<svg width="21" height="21" viewBox="0 0 21 21" fill="none" xmlns="http://www.w3.org/2000/svg">
<path d="M0.352585 9.00817L0.759888 16.7285L2.68999 16.6267L2.28268 8.90634L0.352585 9.00817Z" fill="#3F3F3F"/>
<path d="M-2.29415e-05 9.44264L0.0179443 9.7832L2.44002 9.65542L2.42205 9.31486L-2.29415e-05 9.44264Z" fill="#4D4D4D"/>
<path d="M0.517064 16.5735L0.535034 16.9141L2.95711 16.7863L2.93914 16.4457L0.517064 16.5735Z" fill="#4D4D4D"/>
<path d="M4.72436 4.84012L5.19556 13.7715L6.10384 13.7236L5.63265 4.7922L4.72436 4.84012Z" fill="#3F3F3F"/>
<path d="M0.389303 8.85896L0.814575 16.9199L1.57147 16.88L1.1462 8.81903L0.389303 8.85896Z" fill="#4D4D4D"/>
<path d="M9.14851 17.3213L18.7367 16.5255C19.9873 16.4118 20.9348 14.9338 20.7832 13.1905L20.1389 3.56439C20.0252 1.82109 18.9262 0.49468 17.6376 0.570475L8.04951 1.36632C6.79888 1.48001 5.85142 2.95803 6.00301 4.70133L6.64726 14.3274C6.76095 16.1086 7.89788 17.435 9.14851 17.3213Z" fill="#FF65EB"/>
<path opacity="0.3" d="M9.14851 17.3213L18.7367 16.5255C19.9873 16.4118 20.9348 14.9338 20.7832 13.1905L20.1389 3.56439C20.0252 1.82109 18.9262 0.49468 17.6376 0.570475L8.04951 1.36632C6.79888 1.48001 5.85142 2.95803 6.00301 4.70133L6.64726 14.3274C6.76095 16.1086 7.89788 17.435 9.14851 17.3213Z" fill="#A33499"/>
<path d="M8.99687 15.9961L18.6987 15.2002C19.9114 15.0865 20.821 13.6464 20.7073 11.941L20.1009 2.92129C19.9872 1.21589 18.8882 -0.0726169 17.6754 0.0031788L7.9736 0.799024C6.76087 0.912718 5.85135 2.35283 5.96505 4.05823L6.5714 13.0779C6.6851 14.7833 7.78414 16.1097 8.99687 15.9961Z" fill="#FF65EB"/>
<path d="M6.49635 3.98188L7.10276 13.0395C7.17855 14.328 8.01227 15.3133 8.95971 15.2375L18.6237 14.4417C19.5711 14.3659 20.2533 13.2669 20.1396 11.9404L19.5332 2.88283C19.4574 1.5943 18.6237 0.608964 17.6762 0.68476L8.01227 1.48061C7.10272 1.5943 6.42056 2.69335 6.49635 3.98188Z" fill="#4D4D4D"/>
<path d="M8.08806 4.01991L8.65653 12.7364C8.69443 13.2291 9.14919 13.6081 9.64187 13.5702L17.752 12.9259C18.2447 12.888 18.6236 12.4711 18.5857 11.9406L18.0173 3.22407C17.9794 2.73139 17.5246 2.35241 17.0319 2.39031L8.9218 3.03458C8.42912 3.11037 8.05016 3.52724 8.08806 4.01991Z" fill="#3F3F3F"/>
<path d="M18.1689 3.48983L18.7373 11.7516C18.7752 12.4716 18.2447 13.1159 17.5246 13.1538L9.98293 13.7602C9.22497 13.836 8.58069 13.2675 8.54279 12.5095L7.97432 4.24779C7.93642 3.52773 8.46702 2.88348 9.18708 2.84558L16.7287 2.23921C17.4488 2.16341 18.0931 2.73187 18.1689 3.48983ZM18.3962 11.3726L17.9036 3.86881C17.8657 3.11085 17.2214 2.58029 16.4634 2.61818L9.45235 3.18665C8.73229 3.26245 8.20174 3.86882 8.23963 4.58888L8.73228 12.0926C8.77018 12.8506 9.41446 13.3812 10.1724 13.3433L17.1835 12.7748C17.9036 12.699 18.472 12.0927 18.3962 11.3726Z" fill="white"/>
<path d="M1.64512 18.0814L1.91039 17.3992C2.28937 16.3002 3.08523 14.6327 3.19892 14.4811C4.48745 12.3588 6.87503 12.2072 6.91293 12.2072L6.53395 4.96875C6.49605 4.96875 5.20752 5.04455 3.91899 5.80251C2.74416 6.52257 1.15245 8.72063 1.26614 10.7671C1.34194 12.662 1.64512 18.0814 1.64512 18.0814Z" fill="#FF65EB"/>
<path d="M4.70581 4.05497L5.177 12.9863L6.08529 12.9384L5.61409 4.00705L4.70581 4.05497Z" fill="#4D4D4D"/>
<mask id="mask0_396:44" style="mask-type:alpha" maskUnits="userSpaceOnUse" x="0" y="16" width="4" height="5">
<path d="M0.827851 16.9096L1.02551 20.6562L3.71248 20.5145L3.51482 16.7678L0.827851 16.9096Z" fill="#333131"/>
</mask>
<g mask="url(#mask0_396:44)">
<path d="M2.80798 15.9277H-0.192017V19.6777L1.00798 20.9277L2.80798 15.9277Z" fill="#464646"/>
</g>
</svg>
