<svg width="176" height="212" viewBox="0 0 176 212" fill="none" xmlns="http://www.w3.org/2000/svg">
<path d="M79.4017 126.081L79.0488 125.76L98.4544 105.008H153.688L174.056 84.6399V1.62891H174.537V84.8324L174.441 84.8965L153.881 105.489H98.679L79.4017 126.081Z" fill="#7299FF"/>
<path d="M174.12 63.9833L164.561 54.4249V20.2646H165.01V54.2324L174.44 63.6626L174.12 63.9833Z" fill="#7299FF"/>
<path d="M115.229 105.426L114.909 105.105L125.75 94.2318H149.358L160.712 82.9092L161.033 83.2299L149.55 94.6808H125.943L115.229 105.426Z" fill="#7299FF"/>
<path d="M160.872 84.6395C160.006 84.6395 159.301 83.9338 159.301 83.0678C159.301 82.2018 160.006 81.4961 160.872 81.4961C161.738 81.4961 162.444 82.2018 162.444 83.0678C162.444 83.9338 161.738 84.6395 160.872 84.6395Z" fill="#7299FF"/>
<path d="M144.964 74.0555C144.097 74.0555 143.392 73.3498 143.392 72.4838C143.392 71.6178 144.097 70.9121 144.964 70.9121C145.83 70.9121 146.535 71.6178 146.535 72.4838C146.535 73.3498 145.83 74.0555 144.964 74.0555Z" fill="#7299FF"/>
<path d="M157.57 58.5321C158.438 58.5321 159.141 57.8284 159.141 56.9604C159.141 56.0923 158.438 55.3887 157.57 55.3887C156.701 55.3887 155.998 56.0923 155.998 56.9604C155.998 57.8284 156.701 58.5321 157.57 58.5321Z" fill="#7299FF"/>
<path d="M151.347 19.1112C152.215 19.1112 152.919 18.4075 152.919 17.5395C152.919 16.6714 152.215 15.9678 151.347 15.9678C150.479 15.9678 149.775 16.6714 149.775 17.5395C149.775 18.4075 150.479 19.1112 151.347 19.1112Z" fill="#7299FF"/>
<path d="M164.786 21.8367C163.92 21.8367 163.214 21.1311 163.214 20.265C163.214 19.399 163.92 18.6934 164.786 18.6934C165.652 18.6934 166.358 19.399 166.358 20.265C166.358 21.1311 165.652 21.8367 164.786 21.8367Z" fill="#7299FF"/>
<path d="M174.281 3.201C173.415 3.201 172.709 2.49534 172.709 1.62931C172.709 0.763273 173.415 0.0576172 174.281 0.0576172C175.147 0.0576172 175.852 0.763273 175.852 1.62931C175.852 2.49534 175.147 3.201 174.281 3.201Z" fill="#7299FF"/>
<path d="M99.1274 69.0516C98.2613 69.0516 97.5557 68.3459 97.5557 67.4799C97.5557 66.6138 98.2613 65.9082 99.1274 65.9082C99.9934 65.9082 100.699 66.6138 100.699 67.4799C100.699 68.3459 99.9934 69.0516 99.1274 69.0516Z" fill="#7299FF"/>
<path d="M69.1695 127.012H68.7205V117.807L68.7846 117.742L90.7562 95.418V63.7275L90.8204 63.6634L109.007 45.5088H144.771L151.122 39.1899V17.5391H151.571V39.3503L151.507 39.4465L144.964 45.9578H109.2L91.2373 63.92V95.6104L91.1732 95.6746L69.1695 117.999V127.012Z" fill="#7299FF"/>
<path d="M91.1731 88.2012L90.8203 87.8804L98.9033 79.7974V67.4805H99.3523V79.9899L99.2882 80.054L91.1731 88.2012Z" fill="#7299FF"/>
<path d="M72.4414 123.036L72.1206 122.715L122.607 72.2285H144.611V72.7096H122.8L72.4414 123.036Z" fill="#7299FF"/>
<path d="M113.498 81.8824H113.049V65.8127L113.113 65.7485L122.126 56.7354H157.57V57.1844H122.319L113.498 66.0051V81.8824Z" fill="#7299FF"/>
<path d="M35.105 187.988C35.484 193.066 31.2773 200.532 30.4814 203.45C30.3677 203.943 30.3299 204.284 30.3678 204.549L21.6891 207.088L6.60578 211.484C4.21822 212.167 2.20964 210.651 2.13384 208.036L0.996906 156.154C0.921111 153.577 2.8539 150.886 5.27936 150.166L11.9494 148.233L28.4349 143.42C30.0645 152.553 31.3531 161.194 31.8079 164.415C29.6098 168.508 27.4117 176.353 27.7907 179.499C28.2455 183.554 27.0706 185.828 27.7528 190.375C28.435 194.923 30.8604 195.567 31.8837 193.293C32.9069 191.02 33.3238 180.939 33.3238 180.939C33.3238 180.939 34.726 182.947 35.105 187.988Z" fill="#F3F3F3"/>
<path d="M81.0369 185.07C81.0748 187.647 79.1799 190.338 76.7545 191.058L40.7136 201.556C42.3432 199.964 43.9349 198.372 44.8824 197.387C45.4888 196.743 45.8677 196.364 45.8677 196.364C45.8677 196.364 48.8996 184.729 48.9375 182.872C48.9754 181.129 46.8152 166.387 46.4741 164.075C46.512 164.075 46.512 164.075 46.512 164.075C46.512 164.075 45.9815 151.758 45.1477 138.57L75.3902 129.777C77.7777 129.095 79.7863 130.611 79.8621 133.226L81.0369 185.07Z" fill="#F3F3F3"/>
<path d="M70.5614 132.662C70.5624 132.076 69.7317 131.599 68.7061 131.597C67.6805 131.596 66.8484 132.07 66.8474 132.656C66.8465 133.242 67.6771 133.718 68.7027 133.72C69.7283 133.721 70.5605 133.248 70.5614 132.662Z" fill="#7F7F7F"/>
<path d="M66.8805 130.922L66.8777 132.665L70.5917 132.671L70.5945 130.928L66.8805 130.922Z" fill="#7F7F7F"/>
<path d="M70.5866 130.935C70.5875 130.349 69.7569 129.873 68.7313 129.871C67.7057 129.869 66.8735 130.343 66.8726 130.929C66.8716 131.515 67.7022 131.992 68.7278 131.993C69.7534 131.995 70.5856 131.521 70.5866 130.935Z" fill="#F3F3F3"/>
<path d="M69.6195 130.803C69.62 130.51 69.2132 130.272 68.7108 130.271C68.2085 130.271 67.8009 130.507 67.8004 130.8C67.7999 131.094 68.2068 131.332 68.7091 131.333C69.2114 131.333 69.619 131.096 69.6195 130.803Z" fill="#7F7F7F"/>
<path d="M62.9979 134.608C62.9989 134.022 62.1683 133.545 61.1427 133.544C60.1171 133.542 59.2849 134.016 59.2839 134.602C59.283 135.188 60.1136 135.664 61.1392 135.666C62.1648 135.668 62.997 135.194 62.9979 134.608Z" fill="#7F7F7F"/>
<path d="M59.317 132.869L59.3142 134.612L63.0282 134.618L63.031 132.875L59.317 132.869Z" fill="#7F7F7F"/>
<path d="M63.0228 132.882C63.0238 132.296 62.1932 131.82 61.1676 131.818C60.142 131.817 59.3098 132.29 59.3088 132.876C59.3079 133.462 60.1385 133.939 61.1641 133.941C62.1897 133.942 63.0219 133.468 63.0228 132.882Z" fill="#F3F3F3"/>
<path d="M62.0561 132.75C62.0565 132.457 61.6497 132.218 61.1474 132.218C60.645 132.217 60.2374 132.454 60.2369 132.747C60.2365 133.04 60.6433 133.278 61.1456 133.279C61.648 133.28 62.0556 133.043 62.0561 132.75Z" fill="#7F7F7F"/>
<mask id="mask0_396:64" style="mask-type:alpha" maskUnits="userSpaceOnUse" x="36" y="157" width="19" height="24">
<path opacity="0.14" d="M45.1851 180.939C50.2294 180.939 54.3185 175.662 54.3185 169.152C54.3185 162.643 50.2294 157.366 45.1851 157.366C40.1409 157.366 36.0518 162.643 36.0518 169.152C36.0518 175.662 40.1409 180.939 45.1851 180.939Z" fill="black"/>
</mask>
<g mask="url(#mask0_396:64)">
<path d="M49 182.5L45 156L56.5 155.5L59.5 177.5L49 182.5Z" fill="#7F7F7F"/>
</g>
<path opacity="0.12" d="M3.87695 156.001L4.8244 208.414" stroke="black" stroke-width="7" stroke-miterlimit="10" stroke-linecap="round" stroke-linejoin="round"/>
<path opacity="0.12" d="M76.7168 133.34L77.6264 185.753" stroke="black" stroke-width="7" stroke-miterlimit="10" stroke-linecap="round" stroke-linejoin="round"/>
<path opacity="0.12" d="M71.3352 188.859C72.1515 188.859 72.8132 187.688 72.8132 186.244C72.8132 184.8 72.1515 183.629 71.3352 183.629C70.5189 183.629 69.8572 184.8 69.8572 186.244C69.8572 187.688 70.5189 188.859 71.3352 188.859Z" fill="black"/>
<path opacity="0.12" d="M70.6533 180.56C71.4696 180.56 72.1313 179.389 72.1313 177.945C72.1313 176.501 71.4696 175.33 70.6533 175.33C69.837 175.33 69.1753 176.501 69.1753 177.945C69.1753 179.389 69.837 180.56 70.6533 180.56Z" fill="black"/>
<path d="M70.653 179.27C71.0716 179.27 71.4109 178.676 71.4109 177.944C71.4109 177.211 71.0716 176.617 70.653 176.617C70.2344 176.617 69.895 177.211 69.895 177.944C69.895 178.676 70.2344 179.27 70.653 179.27Z" fill="#7F7F7F"/>
<path d="M71.3349 187.57C71.7535 187.57 72.0928 186.976 72.0928 186.243C72.0928 185.511 71.7535 184.917 71.3349 184.917C70.9163 184.917 70.5769 185.511 70.5769 186.243C70.5769 186.976 70.9163 187.57 71.3349 187.57Z" fill="#7F7F7F"/>
<path d="M29.3527 157.008L29.76 164.729L31.6901 164.627L31.2828 156.906L29.3527 157.008Z" fill="#3F3F3F"/>
<path d="M29.0001 157.443L29.0181 157.783L31.4401 157.655L31.4222 157.315L29.0001 157.443Z" fill="#4D4D4D"/>
<path d="M29.5172 164.573L29.5352 164.914L31.9572 164.786L31.9393 164.446L29.5172 164.573Z" fill="#4D4D4D"/>
<path d="M33.7244 152.84L34.1956 161.771L35.1038 161.724L34.6326 152.792L33.7244 152.84Z" fill="#3F3F3F"/>
<path d="M29.3894 156.859L29.8147 164.92L30.5716 164.88L30.1463 156.819L29.3894 156.859Z" fill="#4D4D4D"/>
<path d="M38.1488 165.321L47.7369 164.525C48.9876 164.412 49.935 162.934 49.7834 161.19L49.1391 151.564C49.0254 149.821 47.9264 148.495 46.6379 148.57L37.0498 149.366C35.7991 149.48 34.8517 150.958 35.0033 152.701L35.6475 162.327C35.7612 164.109 36.8981 165.435 38.1488 165.321Z" fill="#FF65EB"/>
<path opacity="0.3" d="M38.1488 165.321L47.7369 164.525C48.9876 164.412 49.935 162.934 49.7834 161.19L49.1391 151.564C49.0254 149.821 47.9264 148.495 46.6379 148.57L37.0498 149.366C35.7991 149.48 34.8517 150.958 35.0033 152.701L35.6475 162.327C35.7612 164.109 36.8981 165.435 38.1488 165.321Z" fill="#A33499"/>
<path d="M37.997 163.996L47.6988 163.2C48.9116 163.087 49.8211 161.646 49.7074 159.941L49.101 150.921C48.9873 149.216 47.8883 147.927 46.6756 148.003L36.9737 148.799C35.761 148.913 34.8515 150.353 34.9652 152.058L35.5715 161.078C35.6852 162.783 36.7843 164.11 37.997 163.996Z" fill="#FF65EB"/>
<path d="M35.4965 151.982L36.1029 161.039C36.1787 162.328 37.0124 163.313 37.9598 163.238L47.6238 162.442C48.5712 162.366 49.2534 161.267 49.1397 159.94L48.5333 150.883C48.4575 149.594 47.6238 148.609 46.6763 148.685L37.0124 149.481C36.1028 149.594 35.4207 150.693 35.4965 151.982Z" fill="#4D4D4D"/>
<path d="M37.0881 152.02L37.6565 160.736C37.6944 161.229 38.1492 161.608 38.6419 161.57L46.752 160.926C47.2447 160.888 47.6236 160.471 47.5857 159.941L47.0173 151.224C46.9794 150.731 46.5246 150.352 46.0319 150.39L37.9218 151.035C37.4291 151.11 37.0502 151.527 37.0881 152.02Z" fill="#3F3F3F"/>
<path d="M47.1689 151.49L47.7373 159.752C47.7752 160.472 47.2447 161.116 46.5246 161.154L38.9829 161.76C38.225 161.836 37.5807 161.267 37.5428 160.51L36.9743 152.248C36.9364 151.528 37.467 150.883 38.1871 150.846L45.7287 150.239C46.4488 150.163 47.0931 150.732 47.1689 151.49ZM47.3962 159.373L46.9036 151.869C46.8657 151.111 46.2214 150.58 45.4634 150.618L38.4523 151.187C37.7323 151.262 37.2017 151.869 37.2396 152.589L37.7323 160.093C37.7702 160.851 38.4145 161.381 39.1724 161.343L46.1835 160.775C46.9036 160.699 47.472 160.093 47.3962 159.373Z" fill="white"/>
<path d="M30.6452 166.081L30.9105 165.399C31.2895 164.3 32.0854 162.633 32.199 162.481C33.4876 160.359 35.8752 160.207 35.9131 160.207L35.5341 152.969C35.4962 152.969 34.2076 153.045 32.9191 153.803C31.7443 154.523 30.1526 156.721 30.2663 158.767C30.3421 160.662 30.6452 166.081 30.6452 166.081Z" fill="#FF65EB"/>
<path d="M33.7058 152.055L34.177 160.986L35.0853 160.938L34.6141 152.007L33.7058 152.055Z" fill="#4D4D4D"/>
<mask id="mask1_396:64" style="mask-type:alpha" maskUnits="userSpaceOnUse" x="29" y="164" width="4" height="5">
<path d="M29.828 164.91L30.0256 168.656L32.7126 168.514L32.5149 164.768L29.828 164.91Z" fill="#333131"/>
</mask>
<g mask="url(#mask1_396:64)">
<path d="M31.8081 163.928H28.8081V167.678L30.0081 168.928L31.8081 163.928Z" fill="#464646"/>
</g>
</svg>
