<svg width="382" height="519" viewBox="0 0 382 519" fill="none" xmlns="http://www.w3.org/2000/svg">
<path d="M285.401 126.081L285.049 125.76L304.454 105.008H359.688L380.056 84.6399V1.62891H380.537V84.8324L380.441 84.8965L359.88 105.489H304.679L285.401 126.081Z" fill="#7299FF"/>
<path d="M380.119 63.9833L370.561 54.4249V20.2646H371.01V54.2324L380.44 63.6626L380.119 63.9833Z" fill="#7299FF"/>
<path d="M321.229 105.426L320.908 105.105L331.75 94.2318H355.357L366.712 82.9092L367.033 83.2299L355.55 94.6808H331.942L321.229 105.426Z" fill="#7299FF"/>
<path d="M366.872 84.6395C366.006 84.6395 365.3 83.9338 365.3 83.0678C365.3 82.2018 366.006 81.4961 366.872 81.4961C367.738 81.4961 368.444 82.2018 368.444 83.0678C368.444 83.9338 367.738 84.6395 366.872 84.6395Z" fill="#7299FF"/>
<path d="M350.963 74.0555C350.097 74.0555 349.392 73.3498 349.392 72.4838C349.392 71.6178 350.097 70.9121 350.963 70.9121C351.829 70.9121 352.535 71.6178 352.535 72.4838C352.535 73.3498 351.829 74.0555 350.963 74.0555Z" fill="#7299FF"/>
<path d="M363.569 58.5321C364.437 58.5321 365.141 57.8284 365.141 56.9604C365.141 56.0923 364.437 55.3887 363.569 55.3887C362.701 55.3887 361.998 56.0923 361.998 56.9604C361.998 57.8284 362.701 58.5321 363.569 58.5321Z" fill="#7299FF"/>
<path d="M357.347 19.1112C358.215 19.1112 358.918 18.4075 358.918 17.5395C358.918 16.6714 358.215 15.9678 357.347 15.9678C356.479 15.9678 355.775 16.6714 355.775 17.5395C355.775 18.4075 356.479 19.1112 357.347 19.1112Z" fill="#7299FF"/>
<path d="M370.786 21.8367C369.92 21.8367 369.214 21.1311 369.214 20.265C369.214 19.399 369.92 18.6934 370.786 18.6934C371.652 18.6934 372.357 19.399 372.357 20.265C372.357 21.1311 371.652 21.8367 370.786 21.8367Z" fill="#7299FF"/>
<path d="M380.28 3.201C379.414 3.201 378.709 2.49534 378.709 1.62931C378.709 0.763273 379.414 0.0576172 380.28 0.0576172C381.146 0.0576172 381.852 0.763273 381.852 1.62931C381.852 2.49534 381.146 3.201 380.28 3.201Z" fill="#7299FF"/>
<path d="M305.127 69.0516C304.261 69.0516 303.555 68.3459 303.555 67.4799C303.555 66.6138 304.261 65.9082 305.127 65.9082C305.993 65.9082 306.699 66.6138 306.699 67.4799C306.699 68.3459 305.993 69.0516 305.127 69.0516Z" fill="#7299FF"/>
<path d="M275.169 127.012H274.72V117.807L274.784 117.742L296.756 95.418V63.7275L296.82 63.6634L315.007 45.5088H350.771L357.122 39.1899V17.5391H357.571V39.3503L357.507 39.4465L350.963 45.9578H315.199L297.237 63.92V95.6104L297.173 95.6746L275.169 117.999V127.012Z" fill="#7299FF"/>
<path d="M297.173 88.2012L296.82 87.8804L304.903 79.7974V67.4805H305.352V79.9899L305.288 80.054L297.173 88.2012Z" fill="#7299FF"/>
<path d="M278.441 123.036L278.12 122.715L328.607 72.2285H350.611V72.7096H328.799L278.441 123.036Z" fill="#7299FF"/>
<path d="M319.498 81.8824H319.049V65.8127L319.113 65.7485L328.126 56.7354H363.569V57.1844H328.319L319.498 66.0051V81.8824Z" fill="#7299FF"/>
<path d="M241.105 187.988C241.484 193.066 237.277 200.532 236.481 203.45C236.368 203.943 236.33 204.284 236.368 204.549L227.689 207.088L212.606 211.484C210.218 212.167 208.21 210.651 208.134 208.036L206.997 156.154C206.921 153.577 208.854 150.886 211.279 150.166L217.949 148.233L234.435 143.42C236.064 152.553 237.353 161.194 237.808 164.415C235.61 168.508 233.412 176.353 233.791 179.499C234.245 183.554 233.071 185.828 233.753 190.375C234.435 194.923 236.86 195.567 237.884 193.293C238.907 191.02 239.324 180.939 239.324 180.939C239.324 180.939 240.726 182.947 241.105 187.988Z" fill="#F3F3F3"/>
<path d="M287.037 185.07C287.075 187.647 285.18 190.338 282.754 191.058L246.713 201.556C248.343 199.964 249.935 198.372 250.882 197.387C251.489 196.743 251.867 196.364 251.867 196.364C251.867 196.364 254.899 184.729 254.937 182.872C254.975 181.129 252.815 166.387 252.474 164.075C252.512 164.075 252.512 164.075 252.512 164.075C252.512 164.075 251.981 151.758 251.147 138.57L281.39 129.777C283.777 129.095 285.786 130.611 285.862 133.226L287.037 185.07Z" fill="#F3F3F3"/>
<path d="M276.561 132.662C276.562 132.076 275.732 131.599 274.706 131.597C273.681 131.596 272.848 132.07 272.847 132.656C272.846 133.242 273.677 133.718 274.703 133.72C275.728 133.721 276.56 133.248 276.561 132.662Z" fill="#7F7F7F"/>
<path d="M272.881 130.922L272.878 132.665L276.592 132.671L276.594 130.928L272.881 130.922Z" fill="#7F7F7F"/>
<path d="M276.587 130.935C276.588 130.349 275.757 129.873 274.731 129.871C273.706 129.869 272.874 130.343 272.873 130.929C272.872 131.515 273.702 131.992 274.728 131.993C275.753 131.995 276.586 131.521 276.587 130.935Z" fill="#F3F3F3"/>
<path d="M275.62 130.803C275.62 130.51 275.213 130.272 274.711 130.271C274.209 130.271 273.801 130.507 273.8 130.8C273.8 131.094 274.207 131.332 274.709 131.333C275.211 131.333 275.619 131.096 275.62 130.803Z" fill="#7F7F7F"/>
<path d="M268.998 134.608C268.999 134.022 268.168 133.545 267.143 133.544C266.117 133.542 265.285 134.016 265.284 134.602C265.283 135.188 266.114 135.664 267.139 135.666C268.165 135.668 268.997 135.194 268.998 134.608Z" fill="#7F7F7F"/>
<path d="M265.317 132.869L265.314 134.612L269.028 134.618L269.031 132.875L265.317 132.869Z" fill="#7F7F7F"/>
<path d="M269.023 132.882C269.024 132.296 268.193 131.82 267.168 131.818C266.142 131.817 265.31 132.29 265.309 132.876C265.308 133.462 266.139 133.939 267.164 133.941C268.19 133.942 269.022 133.468 269.023 132.882Z" fill="#F3F3F3"/>
<path d="M268.056 132.75C268.057 132.457 267.65 132.218 267.147 132.218C266.645 132.217 266.237 132.454 266.237 132.747C266.236 133.04 266.643 133.278 267.146 133.279C267.648 133.28 268.056 133.043 268.056 132.75Z" fill="#7F7F7F"/>
<mask id="mask0_396:518" style="mask-type:alpha" maskUnits="userSpaceOnUse" x="242" y="157" width="19" height="24">
<path opacity="0.14" d="M251.185 180.939C256.229 180.939 260.319 175.662 260.319 169.152C260.319 162.643 256.229 157.366 251.185 157.366C246.141 157.366 242.052 162.643 242.052 169.152C242.052 175.662 246.141 180.939 251.185 180.939Z" fill="black"/>
</mask>
<g mask="url(#mask0_396:518)">
<path d="M255 182.5L251 156L262.5 155.5L265.5 177.5L255 182.5Z" fill="#7F7F7F"/>
</g>
<path opacity="0.12" d="M209.877 156.001L210.824 208.414" stroke="black" stroke-width="7" stroke-miterlimit="10" stroke-linecap="round" stroke-linejoin="round"/>
<path opacity="0.12" d="M282.717 133.34L283.626 185.753" stroke="black" stroke-width="7" stroke-miterlimit="10" stroke-linecap="round" stroke-linejoin="round"/>
<path opacity="0.12" d="M277.335 188.859C278.151 188.859 278.813 187.688 278.813 186.244C278.813 184.8 278.151 183.629 277.335 183.629C276.519 183.629 275.857 184.8 275.857 186.244C275.857 187.688 276.519 188.859 277.335 188.859Z" fill="black"/>
<path opacity="0.12" d="M276.653 180.56C277.47 180.56 278.131 179.389 278.131 177.945C278.131 176.501 277.47 175.33 276.653 175.33C275.837 175.33 275.175 176.501 275.175 177.945C275.175 179.389 275.837 180.56 276.653 180.56Z" fill="black"/>
<path d="M276.653 179.27C277.072 179.27 277.411 178.676 277.411 177.944C277.411 177.211 277.072 176.617 276.653 176.617C276.234 176.617 275.895 177.211 275.895 177.944C275.895 178.676 276.234 179.27 276.653 179.27Z" fill="#7F7F7F"/>
<path d="M277.335 187.57C277.753 187.57 278.093 186.976 278.093 186.243C278.093 185.511 277.753 184.917 277.335 184.917C276.916 184.917 276.577 185.511 276.577 186.243C276.577 186.976 276.916 187.57 277.335 187.57Z" fill="#7F7F7F"/>
<path d="M235.353 157.008L235.76 164.729L237.69 164.627L237.283 156.906L235.353 157.008Z" fill="#3F3F3F"/>
<path d="M235 157.443L235.018 157.783L237.44 157.655L237.422 157.315L235 157.443Z" fill="#4D4D4D"/>
<path d="M235.517 164.573L235.535 164.914L237.957 164.786L237.939 164.446L235.517 164.573Z" fill="#4D4D4D"/>
<path d="M239.724 152.84L240.196 161.771L241.104 161.724L240.633 152.792L239.724 152.84Z" fill="#3F3F3F"/>
<path d="M235.389 156.859L235.815 164.92L236.572 164.88L236.146 156.819L235.389 156.859Z" fill="#4D4D4D"/>
<path d="M244.149 165.321L253.737 164.525C254.988 164.412 255.935 162.934 255.783 161.19L255.139 151.564C255.025 149.821 253.926 148.495 252.638 148.57L243.05 149.366C241.799 149.48 240.852 150.958 241.003 152.701L241.648 162.327C241.761 164.109 242.898 165.435 244.149 165.321Z" fill="#FF65EB"/>
<path opacity="0.3" d="M244.149 165.321L253.737 164.525C254.988 164.412 255.935 162.934 255.783 161.19L255.139 151.564C255.025 149.821 253.926 148.495 252.638 148.57L243.05 149.366C241.799 149.48 240.852 150.958 241.003 152.701L241.648 162.327C241.761 164.109 242.898 165.435 244.149 165.321Z" fill="#A33499"/>
<path d="M243.997 163.996L253.699 163.2C254.912 163.087 255.821 161.646 255.707 159.941L255.101 150.921C254.987 149.216 253.888 147.927 252.676 148.003L242.974 148.799C241.761 148.913 240.851 150.353 240.965 152.058L241.572 161.078C241.685 162.783 242.784 164.11 243.997 163.996Z" fill="#FF65EB"/>
<path d="M241.496 151.982L242.103 161.039C242.179 162.328 243.012 163.313 243.96 163.238L253.624 162.442C254.571 162.366 255.253 161.267 255.14 159.94L254.533 150.883C254.458 149.594 253.624 148.609 252.676 148.685L243.012 149.481C242.103 149.594 241.421 150.693 241.496 151.982Z" fill="#4D4D4D"/>
<path d="M243.088 152.02L243.657 160.736C243.694 161.229 244.149 161.608 244.642 161.57L252.752 160.926C253.245 160.888 253.624 160.471 253.586 159.941L253.017 151.224C252.979 150.731 252.525 150.352 252.032 150.39L243.922 151.035C243.429 151.11 243.05 151.527 243.088 152.02Z" fill="#3F3F3F"/>
<path d="M253.169 151.49L253.737 159.752C253.775 160.472 253.245 161.116 252.525 161.154L244.983 161.76C244.225 161.836 243.581 161.267 243.543 160.51L242.974 152.248C242.936 151.528 243.467 150.883 244.187 150.846L251.729 150.239C252.449 150.163 253.093 150.732 253.169 151.49ZM253.396 159.373L252.904 151.869C252.866 151.111 252.221 150.58 251.463 150.618L244.452 151.187C243.732 151.262 243.202 151.869 243.24 152.589L243.732 160.093C243.77 160.851 244.414 161.381 245.172 161.343L252.184 160.775C252.904 160.699 253.472 160.093 253.396 159.373Z" fill="white"/>
<path d="M236.645 166.081L236.911 165.399C237.289 164.3 238.085 162.633 238.199 162.481C239.488 160.359 241.875 160.207 241.913 160.207L241.534 152.969C241.496 152.969 240.208 153.045 238.919 153.803C237.744 154.523 236.153 156.721 236.266 158.767C236.342 160.662 236.645 166.081 236.645 166.081Z" fill="#FF65EB"/>
<path d="M239.706 152.055L240.177 160.986L241.085 160.938L240.614 152.007L239.706 152.055Z" fill="#4D4D4D"/>
<mask id="mask1_396:518" style="mask-type:alpha" maskUnits="userSpaceOnUse" x="235" y="164" width="4" height="5">
<path d="M235.828 164.91L236.026 168.656L238.713 168.514L238.515 164.768L235.828 164.91Z" fill="#333131"/>
</mask>
<g mask="url(#mask1_396:518)">
<path d="M237.808 163.928H234.808V167.678L236.008 168.928L237.808 163.928Z" fill="#464646"/>
</g>
<path d="M39.306 489.205H33.1604V515.172C34.0186 514.867 34.9044 514.59 35.818 514.397C39.9427 513.538 39.9427 513.538 39.9427 513.538C39.9427 513.538 47.0296 490.534 39.306 489.205Z" fill="#3D2971"/>
<path d="M33.0782 489.234C33.0782 489.234 27.597 489.677 27.071 495.878C26.545 502.079 21.8112 505.677 20.7039 508.999C19.5966 512.294 20.9531 516.64 23.8598 518.716C25.0778 517.111 27.2648 515.228 31.3896 514.37C35.5143 513.512 35.5143 513.512 35.5143 513.512C35.5143 513.512 43.7085 487.157 33.0782 489.234Z" fill="#7299FF"/>
<path d="M32.109 516.778L31.2231 516.584C31.2508 516.474 33.6869 504.847 34.905 497.289C35.6801 492.472 33.9361 490.258 32.6904 489.316C32.9949 489.206 33.4101 489.178 33.8807 489.15C35.2095 490.451 36.5383 492.943 35.8185 497.455C34.5728 505.013 32.1367 516.667 32.109 516.778Z" fill="#3D2971"/>
<path d="M40.4965 510.078H34.6831V518.742H48.8568C48.8845 518.715 48.1924 509.69 40.4965 510.078Z" fill="#3D2971"/>
<path d="M23.8872 518.715C23.8872 518.715 26.7109 510.466 34.9604 510.051C42.6286 509.691 43.3207 518.715 43.3207 518.715H23.8872Z" fill="#466FCB"/>
<path d="M47.1686 518.716C47.1686 515.92 46.0613 514.646 46.0613 514.646H44.6494C44.6494 514.646 45.563 516.529 45.6183 518.716H47.1686Z" fill="#FAE205"/>
<path d="M85.1773 476.556C81.8 473.511 75.8482 469.829 71.9172 471.739L67.9585 473.649L69.1765 474.839C68.18 477.414 69.3703 480.431 74.6301 485.137C81.3017 491.117 84.3745 490.369 87.2536 486.826C90.1049 483.255 89.3852 480.376 85.1773 476.556Z" fill="#3D2971"/>
<path d="M83.9865 484.446C83.1837 485.276 80.9414 489.152 80.3877 491.117C88.4988 488.598 88.6649 484.501 88.6649 484.418L83.9865 484.446Z" fill="#AFAFAF"/>
<path d="M65.6607 476.141C64.2765 478.798 65.2731 481.927 70.8928 486.965C77.5644 492.944 80.6372 492.197 83.5163 488.654C86.3953 485.11 85.6755 482.203 81.44 478.383C77.2322 474.535 68.955 469.718 65.6607 476.141Z" fill="#7299FF"/>
<path d="M84.8175 486.577C82.9074 484.639 79.973 481.788 76.2357 478.798C71.059 474.618 66.9896 475.891 65.467 476.639C65.5501 476.39 65.9377 475.725 66.1314 475.421C68.3184 474.729 72.2217 474.369 76.8448 478.106C80.3882 480.957 83.2395 483.67 85.1774 485.636C85.0389 485.968 84.9559 486.106 84.8175 486.577Z" fill="#3D2971"/>
<path d="M92.5696 484.498H92.4865C92.4588 484.498 92.4311 484.498 92.3758 484.498H88.3341C88.3341 484.498 88.4171 485.218 88.5832 486.297C86.1194 488.789 84.4031 493.772 83.2957 496.872C82.1607 500.056 84.0709 503.406 85.9533 505.952C87.8358 508.472 90.2719 505.814 93.3724 504.679C96.4452 503.544 98.4937 504.9 98.4937 504.9C98.4937 504.9 98.6045 502.243 98.6322 501.772C98.6045 498.367 98.383 484.636 92.5696 484.498Z" fill="#3D2971"/>
<path d="M85.842 485.135C82.5754 486.796 80.3884 493.163 79.0597 496.845C77.9247 500.029 79.8348 503.378 81.7172 505.925C83.5997 508.444 86.0358 505.787 89.1363 504.652C92.2091 503.517 94.3684 502.493 94.3684 502.493C94.3684 502.493 95.1158 480.457 85.842 485.135Z" fill="#7299FF"/>
<path d="M91.2126 504.873L90.2991 504.846C90.2991 504.79 90.3821 499.143 89.8561 494.049C89.6624 492.111 89.2194 490.921 88.555 490.423C87.8076 489.869 86.6726 490.063 85.2607 490.34L84.9286 490.395C83.4614 490.672 82.3817 490.561 81.6343 490.367C81.7727 490.035 81.9111 489.758 82.0772 489.537C82.6862 489.675 83.5721 489.731 84.7625 489.509L85.0947 489.454C86.6726 489.149 88.0291 488.9 89.1087 489.703C90.0222 490.367 90.5482 491.751 90.7697 493.994C91.2957 499.143 91.2126 504.818 91.2126 504.873Z" fill="#3D2971"/>
<path d="M100.07 504.403L94.5061 502.687L91.9592 510.964L105.524 515.144C105.524 515.144 107.517 506.313 100.07 504.403Z" fill="#3D2971"/>
<path d="M81.634 507.781C81.634 507.781 86.7831 500.722 94.7558 502.77C102.203 504.681 100.209 513.511 100.209 513.511L81.634 507.781Z" fill="#466FCB"/>
<path d="M103.891 514.646C104.694 511.988 104.029 510.41 104.029 510.41L102.673 509.995C102.673 509.995 102.977 512.071 102.396 514.175L103.891 514.646Z" fill="#FAE205"/>
<path d="M7.58158 442.34C7.58158 439.848 7.00023 438.298 6.28047 437.329C4.924 437.772 3.6229 440.236 3.65058 444.333C3.70595 457.095 6.97255 465.649 6.97255 465.649L12.0109 463.407C6.61267 456.624 7.58158 448.596 7.58158 442.34Z" fill="#7299FF"/>
<path d="M9.27029 443.612C9.18724 438.74 7.74772 436.829 6.28052 437.328C7.00028 438.297 7.58162 439.847 7.58162 442.338C7.58162 448.595 6.61272 456.623 12.0109 463.405L15.0007 462.658C15.0007 462.658 9.54712 458.561 9.27029 443.612Z" fill="#466FCB"/>
<path d="M71.8342 459.53C70.2009 459.17 68.6506 459.059 67.1557 459.142V459.114H53.6464V462.409C48.8849 463.682 43.5698 464.402 36.7598 462.298C33.3271 461.218 30.2542 460.72 27.5136 460.858H14.9455V471.018C13.4506 475.032 13.3399 479.24 14.9455 482.866V491.67H29.1192C37.6179 491.808 46.781 486.327 53.6187 486.548V489.621H67.1281V489.593C74.4087 489.621 80.0007 485.828 81.8831 480.569C85.8141 469.606 78.0905 460.886 71.8342 459.53Z" fill="#3D2971"/>
<path d="M1.93431 470.907C5.64384 461.163 12.8414 458.92 23.6932 462.298C39.3895 467.17 47.0577 456.982 58.7399 459.557C64.9963 460.913 72.7198 469.661 68.8165 480.568C66.159 488.071 55.8886 492.611 44.0402 487.295C35.7076 483.558 21.7554 495.185 10.433 490.562C1.07613 486.714 -0.944723 478.492 1.93431 470.907Z" fill="#466FCB"/>
<path d="M60.0351 482.063C63.7972 478.301 63.7973 472.201 60.0351 468.439C56.2729 464.677 50.1733 464.677 46.4111 468.439C42.6489 472.201 42.649 478.301 46.4111 482.063C50.1733 485.825 56.2729 485.825 60.0351 482.063Z" fill="#7299FF"/>
<path d="M18.9869 489.205H12.8413V515.172C13.6995 514.867 14.5853 514.59 15.4989 514.397C19.6237 513.538 19.6237 513.538 19.6237 513.538C19.6237 513.538 26.7105 490.534 18.9869 489.205Z" fill="#3D2971"/>
<path d="M12.7587 489.234C12.7587 489.234 7.27741 489.677 6.75143 495.878C6.22545 502.079 1.49165 505.677 0.384329 508.999C-0.722992 512.294 0.633475 516.64 3.54019 518.716C4.75825 517.111 6.94521 515.228 11.07 514.37C15.1948 513.512 15.1948 513.512 15.1948 513.512C15.1948 513.512 23.3889 487.157 12.7587 489.234Z" fill="#7299FF"/>
<path d="M11.8172 516.778L10.9314 516.584C10.9591 516.474 13.3952 504.847 14.6132 497.289C15.3884 492.472 13.6443 490.258 12.3986 489.316C12.7031 489.206 13.1184 489.178 13.589 489.15C14.9178 490.451 16.2465 492.943 15.5268 497.455C14.281 505.013 11.8172 516.667 11.8172 516.778Z" fill="#3D2971"/>
<path d="M20.205 510.078H14.3916V518.742H28.5653C28.5653 518.715 27.8732 509.69 20.205 510.078Z" fill="#3D2971"/>
<path d="M3.56787 518.715C3.56787 518.715 6.39154 510.466 14.6411 510.051C22.3093 509.691 23.0014 518.715 23.0014 518.715H3.56787Z" fill="#466FCB"/>
<path d="M26.8771 518.716C26.8771 515.92 25.7697 514.646 25.7697 514.646H24.3579C24.3579 514.646 25.2715 516.529 25.3268 518.716H26.8771Z" fill="#FAE205"/>
<path d="M17.5474 474.146H13.7825V489.454H17.5474C21.7829 489.454 25.2156 486.022 25.2156 481.786C25.2156 477.578 21.7829 474.146 17.5474 474.146Z" fill="#3D2971"/>
<path d="M21.4787 481.814C21.4787 486.049 18.046 489.482 13.8105 489.482C9.57503 489.482 6.14233 486.049 6.14233 481.814C6.14233 477.578 9.57503 474.146 13.8105 474.146C18.046 474.146 21.4787 477.578 21.4787 481.814Z" fill="#FAE205"/>
<path d="M18.0181 481.814C18.0181 484.139 16.1357 486.049 13.7826 486.049C11.4572 486.049 9.54712 484.167 9.54712 481.814C9.54712 479.488 11.4296 477.578 13.7826 477.578C16.1357 477.578 18.0181 479.488 18.0181 481.814Z" fill="#3D2971"/>
<path d="M60.6779 486.299C58.9615 482.091 55.1966 476.167 50.8227 476.194H46.4211L47.0301 477.8C45.0093 479.682 44.7601 482.921 47.4454 489.455C50.8504 497.732 53.9509 498.424 58.0757 496.458C62.2004 494.493 62.8095 491.586 60.6779 486.299Z" fill="#3D2971"/>
<path d="M56.4146 493.938C55.3349 494.326 51.3762 495.793 50.0198 497.316C58.4354 498.589 61.1484 493.994 61.176 493.938H56.4146Z" fill="#3D2971"/>
<path d="M43.2933 477.441C40.8849 479.24 40.4419 482.479 43.2933 489.455C46.6983 497.732 49.7988 498.424 53.9236 496.459C58.0483 494.493 58.6574 491.614 56.5258 486.327C54.3942 481.012 49.0237 473.094 43.2933 477.441Z" fill="#7299FF"/>
<path d="M55.9716 495.158C55.1134 492.583 53.6739 488.735 51.6254 484.416C48.774 478.409 44.5662 477.773 42.8499 477.773C43.0436 477.579 43.6803 477.136 43.9572 476.97C46.2272 477.302 49.909 478.686 52.4282 484.029C54.366 488.154 55.7778 491.836 56.636 494.41C56.4699 494.715 56.3315 494.798 55.9716 495.158Z" fill="#3D2971"/>
<path d="M61.675 495.157H61.592C61.5643 495.157 61.5366 495.157 61.4813 495.157H57.4395C57.4395 495.157 57.5226 495.877 57.6887 496.957C55.2249 499.448 53.5085 504.431 52.4012 507.532C51.2662 510.715 53.1763 514.065 55.0588 516.612C56.9412 519.131 59.3773 516.473 62.4778 515.338C65.5507 514.203 67.7099 513.179 67.7099 513.179C67.7099 513.179 68.2913 495.323 61.675 495.157Z" fill="#3D2971"/>
<path d="M54.9475 495.794C51.6809 497.455 49.4939 503.822 48.1651 507.503C47.0301 510.687 48.9403 514.037 50.8227 516.583C52.7051 519.103 55.1412 516.445 58.2417 515.31C61.3146 514.175 63.4738 513.151 63.4738 513.151C63.4738 513.151 64.2213 491.115 54.9475 495.794Z" fill="#7299FF"/>
<path d="M60.3183 515.56L59.4048 515.532C59.4048 515.477 59.4878 509.829 58.9619 504.736C58.7681 502.798 58.3251 501.607 57.6608 501.109C56.9133 500.556 55.7783 500.749 54.3665 501.026L54.0343 501.081C52.5671 501.358 51.4874 501.248 50.74 501.054C50.8784 500.722 51.0168 500.445 51.1829 500.223C51.7919 500.362 52.6778 500.417 53.8682 500.196L54.2004 500.14C55.7783 499.836 57.1348 499.587 58.2144 500.389C59.128 501.054 59.6539 502.438 59.8754 504.68C60.4014 509.802 60.3183 515.504 60.3183 515.56Z" fill="#3D2971"/>
<path d="M68.6787 510.078H62.8652V518.742H77.039C77.039 518.715 76.3469 509.69 68.6787 510.078Z" fill="#3D2971"/>
<path d="M52.041 518.715C52.041 518.715 54.8647 510.466 63.1142 510.051C70.7824 509.691 71.4745 518.715 71.4745 518.715H52.041Z" fill="#466FCB"/>
<path d="M75.3221 518.716C75.3221 515.92 74.2148 514.646 74.2148 514.646H72.803C72.803 514.646 73.7165 516.529 73.7719 518.716H75.3221Z" fill="#FAE205"/>
<path d="M64.1938 459.114C64.1938 459.114 73.1355 461.107 73.1355 471.239C73.1355 479.6 79.4472 476.416 79.4472 471.239C79.4472 461.633 68.2356 459.114 68.2356 459.114H64.1938Z" fill="#466FCB"/>
<path d="M65.6605 484.916C65.1068 484.445 63.169 482.424 64.7747 478.355C67.2108 472.154 63.5566 466.783 61.8402 464.735C61.7572 464.624 60.7883 463.517 60.2346 463.101C55.6116 459.475 49.6597 462.022 43.874 464.485C41.5209 465.482 39.0848 466.534 36.7871 467.143C32.0256 468.389 28.3715 467.42 24.4681 466.423C22.3919 465.87 20.2326 465.316 17.7688 465.039C11.3741 464.319 6.64026 465.787 3.70586 467.198C3.37366 467.697 3.01378 468.499 2.62622 469.192C5.03465 467.752 10.1837 465.399 17.6304 466.257C19.9835 466.534 22.0874 467.088 24.1359 467.614C28.1777 468.666 32.0256 469.662 37.0916 468.333C39.4724 467.697 41.9361 466.645 44.3446 465.62C50.0473 463.184 55.4178 460.887 59.4595 464.07C59.7363 464.292 60.29 464.845 60.4284 465.011C61.5357 466.229 66.0758 471.628 63.612 477.912C61.425 483.448 65.0515 486.023 65.0792 486.051L65.2453 486.161H77.7857C77.7857 486.161 78.2009 485.829 78.5608 485.525C78.893 485.248 79.1422 484.943 79.1422 484.943H65.6605V484.916Z" fill="#3D2971"/>
<path d="M96.2232 428.025C94.839 423.485 93.2334 419.747 89.8284 419.083C89.6623 419.055 89.5239 419.055 89.3578 419.028V419H87.4477V419.609C85.233 421.159 83.6274 425.506 83.0737 431.098C82.3263 438.655 86.285 440.399 89.773 440.925C96.0017 441.922 98.0226 433.949 96.2232 428.025Z" fill="#466FCB"/>
<path d="M87.8902 440.983C84.4022 440.457 80.4435 438.713 81.1909 431.156C81.9107 423.681 84.5406 418.449 87.9456 419.113C91.3506 419.778 92.9562 423.515 94.3404 428.055C96.1398 433.952 94.1189 441.924 87.8902 440.983Z" fill="#FAE205"/>
<path d="M90.4098 436.717C89.524 438.073 87.6969 438.433 86.3404 437.547C84.984 436.661 84.6241 434.834 85.5099 433.478C86.3958 432.121 88.2229 431.762 89.5793 432.647C90.9358 433.533 91.3234 435.36 90.4098 436.717Z" fill="#4D4D4D"/>
<path d="M76.6797 430.85H75.7662L75.1848 435.694H77.0119C76.9842 435.75 76.9288 435.805 76.9012 435.86C74.7142 439.93 74.3543 445.605 81.5519 451.501C84.514 453.91 89.8015 460.775 94.1754 465.149C94.6737 465.647 95.3104 466.201 96.0301 466.699V469.523H105.221V469.495C106.688 469.412 108.238 469.108 109.844 468.471C111.699 467.723 113.415 466.256 114.633 464.291H106.051C106.051 464.263 82.0225 443.002 76.6797 430.85Z" fill="#466FCB"/>
<path d="M106.633 441.561C97.6081 434.973 90.4659 431.042 85.1507 430.82H76.6797C81.9948 442.973 106.024 464.261 106.024 464.261H114.605C118.038 458.836 117.734 449.645 106.633 441.561Z" fill="#3D2971"/>
<path d="M78.4531 450.345L68.5823 459.689L74.958 466.424L84.8288 457.079L78.4531 450.345Z" fill="#466FCB"/>
<path d="M95.6423 465.151C90.9362 463.85 88.1956 454.77 87.5865 448.873C86.9775 442.949 78.3681 436.029 75.6552 438.132C75.6552 438.132 75.0184 433.925 76.5964 431.046C73.0253 430.907 70.2847 432.457 68.3468 436.029C66.1599 440.098 65.8 445.718 72.9976 451.586C75.9597 453.995 81.2471 460.805 85.6211 465.179C88.334 467.864 94.2582 471.297 101.262 468.501C103.117 467.753 104.833 466.286 106.051 464.321C103.753 465.179 99.7117 466.286 95.6423 465.151Z" fill="#7299FF"/>
<path d="M98.0504 441.702C89.0258 435.141 81.8836 431.21 76.5684 431.017C75.0182 433.923 75.6272 438.103 75.6272 438.103C78.3401 436 86.9496 442.948 87.5586 448.844C88.1676 454.769 90.9082 463.821 95.6143 465.122C99.7114 466.257 103.753 465.15 106.023 464.264C109.456 458.893 109.151 449.758 98.0504 441.702Z" fill="#466FCB"/>
<path d="M112.252 462.186C113.552 462.186 114.605 460.81 114.605 459.113C114.605 457.416 113.552 456.04 112.252 456.04C110.953 456.04 109.899 457.416 109.899 459.113C109.899 460.81 110.953 462.186 112.252 462.186Z" fill="#FAE205"/>
<path d="M74.7409 426.337C71.9173 424.012 69.2597 422.157 66.7128 422.046V422.019H64.2767L63.7231 422.849C61.3977 424.731 62.2559 430.102 65.4671 436.165C66.7682 438.628 68.18 440.096 69.5919 440.871V441.646H72.2771C73.772 441.701 75.2115 441.258 76.485 440.677C82.2154 438.047 79.5024 430.268 74.7409 426.337Z" fill="#466FCB"/>
<path d="M74.2423 440.677C71.0311 442.144 66.7679 442.891 63.2245 436.164C59.7087 429.52 59.0166 423.707 62.2279 422.406C65.4391 421.105 68.8441 423.319 72.4983 426.337C77.2598 430.268 79.9727 438.047 74.2423 440.677Z" fill="#FAE205"/>
<path d="M73.9933 435.722C73.9933 437.355 72.6645 438.656 71.0589 438.656C69.4256 438.656 68.1245 437.327 68.1245 435.722C68.1245 434.088 69.4533 432.787 71.0589 432.787C72.6922 432.787 73.9933 434.088 73.9933 435.722Z" fill="#3D2971"/>
<path d="M75.3777 433.009C72.9139 433.009 71.0591 430.822 69.3704 428.884C67.9309 427.196 66.5744 425.618 65.0796 425.507C64.166 425.424 63.3355 425.839 62.5881 426.67C61.6745 427.694 61.0932 429.133 60.7887 430.213C60.5672 429.493 60.4842 429.05 60.4011 428.552C60.4565 428.386 60.5395 428.22 60.5949 428.109C61.7299 425.701 63.3632 424.455 65.1626 424.593C67.0451 424.732 68.5123 426.476 70.0902 428.275C72.0834 430.628 73.9935 432.815 76.6511 431.846L76.8172 431.819H78.8657L79.2256 432.732H76.9002C76.3466 432.926 75.8483 433.009 75.3777 433.009Z" fill="#3D2971"/>
</svg>
