<svg width="168" height="458" viewBox="0 0 168 458" fill="none" xmlns="http://www.w3.org/2000/svg">
<path d="M167.328 424.924C164.675 409.007 159.256 383.729 149.933 368.456C135.569 344.922 113.968 310.283 113.323 275C112.679 239.717 128.369 213.568 125.072 192.648C121.813 171.728 114.612 170.44 100.893 141.031C94.7534 127.881 96.7241 115.564 100.779 106.013C105.782 94.1894 113.968 86.4961 113.968 86.4961C112.982 92.3324 112.224 97.9034 111.694 103.247C110.595 115.071 110.329 131.708 114.422 150.885C114.46 151.074 114.498 151.264 114.536 151.453C115.256 154.599 116.052 156.531 115.749 156.607C117.682 164.187 119.652 169.568 120.676 172.448C132.462 205.836 130.226 230.508 137.426 276.857C144.21 320.477 148.834 315.437 158.46 369.707C161.15 384.714 164.751 407.377 167.328 424.924Z" fill="#7299FF"/>
<path d="M13.652 200.038C12.8183 200.038 12.0224 200.076 11.2266 200.19C11.3024 199.432 11.3781 198.636 11.4539 197.84C11.9087 193.634 12.5909 189.806 13.3867 186.319C13.3867 186.319 13.0835 191.663 13.7278 200.038H13.652Z" fill="#7299FF"/>
<path d="M43.5532 333.969C39.8771 369.063 35.2535 362.393 38.399 407.529C30.9711 374.331 32.7902 337.57 30.7437 316.802C29.2657 301.567 21.5724 268.596 16.2288 241.991C14.296 232.327 12.6664 223.497 11.7569 216.676C11.6432 215.766 11.5295 214.894 11.4537 213.985C11.4158 213.757 11.4158 213.492 11.3779 213.265C11.34 213.075 11.34 212.886 11.34 212.658C11.3021 212.317 11.2642 212.014 11.2642 211.711C11.2263 211.294 11.1884 210.915 11.1884 210.498C11.1505 209.778 11.1126 209.096 11.0747 208.414C11.0747 208.3 11.0747 208.149 11.0747 208.035C11.4916 207.997 11.9085 207.959 12.2874 207.959C13.0833 207.921 13.8792 207.921 14.6371 207.959C16.0772 218.684 19.109 232.138 25.4001 245.402C39.0812 274.432 47.2293 298.876 43.5532 333.969Z" fill="#7299FF"/>
<path d="M150.311 116.589C140.42 123.107 134.394 130.422 130.756 136.448C130.415 134.591 130.036 132.658 129.733 130.725C133.106 124.51 139.093 116.627 149.553 109.54C149.553 109.578 149.553 109.578 149.553 109.616C149.819 112.003 150.084 114.315 150.311 116.589Z" fill="#7299FF"/>
<path d="M152.509 133.756C143.831 139.062 137.919 144.974 133.864 150.394C133.409 148.688 132.954 146.793 132.499 144.785C136.403 139.062 142.391 132.582 151.562 126.783C151.903 129.247 152.206 131.558 152.509 133.756Z" fill="#7299FF"/>
<path d="M154.631 149.748C147.014 154.258 141.443 159.223 137.388 163.998C136.933 161.914 136.478 159.943 136.023 158.124C140.04 153.046 145.725 147.626 153.797 142.737C154.1 144.67 154.366 147.058 154.631 149.748Z" fill="#7299FF"/>
<path d="M14.5616 207.96C13.8036 207.922 13.0078 207.922 12.2119 207.96C11.795 207.96 11.3782 207.997 10.9992 208.035C10.9613 207.694 10.9613 207.315 10.9613 206.974C10.9613 206.709 10.9234 206.444 10.9234 206.178C10.9234 205.837 10.9234 205.496 10.8855 205.117C10.9613 203.525 11.0371 201.858 11.1887 200.153C11.9845 200.039 12.7804 200.001 13.6141 200.001H13.6899C13.9173 202.464 14.1826 205.117 14.5616 207.96Z" fill="#7299FF"/>
<path d="M46.9259 6.11494L21.7617 15.4757C20.9658 15.7789 20.0942 15.362 19.8289 14.5662L19.6773 14.1872C19.3741 13.3913 19.791 12.5197 20.5869 12.2544L45.751 2.89362C46.5469 2.59044 47.4185 3.00731 47.6838 3.80317L47.8354 4.18215C48.1007 4.94011 47.6838 5.84966 46.9259 6.11494Z" fill="#466FCB"/>
<path d="M113.474 4.5244L139.245 12.104C140.041 12.3314 140.874 11.8766 141.14 11.0807L141.253 10.6639C141.481 9.868 141.026 9.03425 140.23 8.76896L114.46 1.18939C113.664 0.962006 112.83 1.41677 112.565 2.21263L112.451 2.62951C112.224 3.46326 112.679 4.29701 113.474 4.5244Z" fill="#466FCB"/>
<path d="M54.6192 5.47041L29.4551 14.8312C28.6592 15.1344 27.7876 14.7175 27.5223 13.9216L27.3707 13.5427C27.0675 12.7468 27.4844 11.8752 28.2802 11.6099L53.4444 2.24909C54.2402 1.94591 55.1119 2.36278 55.3772 3.15864L55.5288 3.53762C55.7941 4.29557 55.3772 5.16723 54.6192 5.47041Z" fill="#7299FF"/>
<path d="M106.122 3.57665L131.893 11.1562C132.689 11.3836 133.523 10.9288 133.788 10.133L133.902 9.7161C134.129 8.92025 133.674 8.0865 132.878 7.82121L107.108 0.24164C106.312 0.0142526 105.478 0.46902 105.213 1.26487L105.099 1.68175C104.834 2.47761 105.327 3.31136 106.122 3.57665Z" fill="#7299FF"/>
<path d="M123.367 85.2459L147.962 82.3656C148.758 82.2898 149.327 81.5319 149.251 80.736L149.175 80.2054C149.099 79.4096 148.341 78.8411 147.546 78.9169L122.95 81.7972C122.154 81.873 121.586 82.6309 121.661 83.4268L121.737 83.9573C121.813 84.7532 122.571 85.3217 123.367 85.2459Z" fill="#7299FF"/>
<path d="M145.593 64.4395C145.596 62.5767 144.733 61.0652 143.666 61.0634C142.598 61.0617 141.731 62.5704 141.728 64.4332C141.725 66.296 142.588 67.8076 143.655 67.8093C144.722 67.811 145.59 66.3023 145.593 64.4395Z" fill="#466FCB"/>
<path d="M143.683 61.0838L143.672 67.8296L146.818 67.8347L146.829 61.0888L143.683 61.0838Z" fill="#466FCB"/>
<path d="M148.735 64.4459C148.738 62.5831 147.875 61.0716 146.807 61.0698C145.74 61.0681 144.872 62.5768 144.869 64.4396C144.866 66.3024 145.729 67.8139 146.797 67.8156C147.864 67.8174 148.732 66.3087 148.735 64.4459Z" fill="#7299FF"/>
<path d="M148.027 64.4558C148.028 63.5349 147.588 62.7876 147.044 62.7867C146.5 62.7858 146.058 63.5317 146.056 64.4526C146.055 65.3735 146.495 66.1208 147.039 66.1217C147.583 66.1226 148.025 65.3767 148.027 64.4558Z" fill="#466FCB"/>
<path d="M8.42759 140.426C9.49504 140.425 10.3579 138.913 10.3549 137.05C10.3519 135.187 9.48412 133.679 8.41667 133.68C7.34922 133.682 6.48633 135.194 6.48935 137.056C6.49237 138.919 7.36014 140.428 8.42759 140.426Z" fill="#466FCB"/>
<path d="M8.417 133.678L5.27148 133.683L5.28241 140.428L8.42793 140.423L8.417 133.678Z" fill="#466FCB"/>
<path d="M5.2826 140.425C6.35005 140.424 7.21293 138.912 7.20992 137.049C7.2069 135.186 6.33912 133.678 5.27167 133.679C4.20422 133.681 3.34131 135.193 3.34433 137.056C3.34735 138.918 4.21515 140.427 5.2826 140.425Z" fill="#7299FF"/>
<path d="M5.05202 138.72C5.59621 138.719 6.03616 137.972 6.03467 137.051C6.03318 136.13 5.5908 135.384 5.04661 135.385C4.50242 135.386 4.06249 136.133 4.06398 137.054C4.06547 137.975 4.50783 138.721 5.05202 138.72Z" fill="#466FCB"/>
<path d="M145.796 52.1558C145.799 50.293 144.936 48.7815 143.869 48.7798C142.801 48.778 141.933 50.2867 141.93 52.1495C141.927 54.0123 142.79 55.5239 143.858 55.5256C144.925 55.5273 145.793 54.0186 145.796 52.1558Z" fill="#466FCB"/>
<path d="M143.886 48.7615L143.875 55.5073L147.021 55.5124L147.031 48.7666L143.886 48.7615Z" fill="#466FCB"/>
<path d="M148.975 52.1622C148.978 50.2994 148.115 48.7879 147.048 48.7861C145.98 48.7844 145.112 50.2931 145.109 52.1559C145.106 54.0187 145.969 55.5302 147.037 55.5319C148.104 55.5337 148.972 54.025 148.975 52.1622Z" fill="#7299FF"/>
<path d="M148.267 52.135C148.269 51.2141 147.829 50.4668 147.284 50.4659C146.74 50.465 146.298 51.2109 146.296 52.1318C146.295 53.0527 146.735 53.8 147.279 53.8009C147.823 53.8018 148.266 53.0559 148.267 52.135Z" fill="#466FCB"/>
<path d="M31.0852 113.555C31.0852 113.555 63.0331 124.128 111.05 113.555L111.277 127.577C111.277 127.577 86.8708 140.386 64.2458 140.045C41.6208 139.704 27.1438 130.343 27.1438 130.343C27.1438 130.343 30.5167 120.149 31.0852 113.555Z" fill="#FF65EB"/>
<path opacity="0.3" d="M37.3382 115.147C37.3382 115.147 37.1109 124.811 32.6389 133.187C32.6389 133.187 35.557 134.437 36.7698 134.892C41.3554 136.56 43.2503 137.015 43.2503 137.015C43.2503 137.015 46.8506 123.978 47.1159 116.815C47.078 116.853 40.9006 116.019 37.3382 115.147Z" fill="#A33499"/>
<path opacity="0.3" d="M80.1244 117.952C80.1244 117.952 78.6085 129.056 83.1183 137.849C83.1183 137.849 91.38 135.499 96.3826 133.756C96.3826 133.756 92.517 123.144 92.2138 116.815C92.2138 116.815 88.0829 117.611 80.1244 117.952Z" fill="#A33499"/>
<path d="M63.8664 141.713C71.0665 141.713 76.9033 135.877 76.9033 128.677C76.9033 121.476 71.0665 115.64 63.8664 115.64C56.6664 115.64 50.8296 121.476 50.8296 128.677C50.8296 135.877 56.6664 141.713 63.8664 141.713Z" fill="#FF65EB"/>
<path d="M63.6393 139.174C69.437 139.174 74.137 134.474 74.137 128.676C74.137 122.879 69.437 118.179 63.6393 118.179C57.8416 118.179 53.1416 122.879 53.1416 128.676C53.1416 134.474 57.8416 139.174 63.6393 139.174Z" fill="#2D2059"/>
<path d="M64.3594 119.696L66.5195 124.357C66.5953 124.546 66.7469 124.66 66.9364 124.698L71.9768 125.57C72.4316 125.646 72.6211 126.252 72.28 126.555L68.5281 130.042C68.3765 130.155 68.3386 130.345 68.3386 130.534L69.0587 135.613C69.1345 136.067 68.6418 136.446 68.2249 136.181L63.753 133.68C63.6014 133.604 63.374 133.566 63.2224 133.68L58.6368 135.954C58.2199 136.181 57.7272 135.802 57.803 135.309L58.7884 130.307C58.8263 130.117 58.7505 129.928 58.6368 129.776L55.0744 126.1C54.7333 125.759 54.9607 125.191 55.4155 125.115L60.4938 124.509C60.6833 124.471 60.8349 124.357 60.9485 124.205L63.3361 119.658C63.5635 119.241 64.1699 119.241 64.3594 119.696Z" fill="#7299FF"/>
<path d="M27.6363 13.6562C27.6363 13.6562 13.1972 18.8104 9.29371 28.7775C3.57113 43.2924 17.0628 62.1276 16.0016 74.2928C14.3341 93.1659 -7.57084 106.354 5.04915 137.052" stroke="#7299FF" stroke-miterlimit="10" stroke-linecap="round" stroke-linejoin="round"/>
<path d="M7.8917 148.574C8.47775 148.574 8.95286 147.623 8.95286 146.451C8.95286 145.279 8.47775 144.329 7.8917 144.329C7.30565 144.329 6.83057 145.279 6.83057 146.451C6.83057 147.623 7.30565 148.574 7.8917 148.574Z" fill="#FF65EB"/>
<path d="M8.42173 130.154C9.00778 130.154 9.48287 129.204 9.48287 128.031C9.48287 126.859 9.00778 125.909 8.42173 125.909C7.83568 125.909 7.3606 126.859 7.3606 128.031C7.3606 129.204 7.83568 130.154 8.42173 130.154Z" fill="#FF65EB"/>
<path d="M7.8917 156.721C8.47775 156.721 8.95286 155.771 8.95286 154.599C8.95286 153.427 8.47775 152.477 7.8917 152.477C7.30565 152.477 6.83057 153.427 6.83057 154.599C6.83057 155.771 7.30565 156.721 7.8917 156.721Z" fill="#FF65EB"/>
<path d="M7.8917 164.87C8.47775 164.87 8.95286 163.919 8.95286 162.747C8.95286 161.575 8.47775 160.625 7.8917 160.625C7.30565 160.625 6.83057 161.575 6.83057 162.747C6.83057 163.919 7.30565 164.87 7.8917 164.87Z" fill="#FF65EB"/>
<path d="M26.3472 7.52141L22.2258 9.05127L23.3205 12.0002L27.4419 10.4703L26.3472 7.52141Z" fill="#FAE205"/>
<path d="M32.0699 5.39836L27.9485 6.92822L29.0431 9.87714L33.1645 8.34728L32.0699 5.39836Z" fill="#FAE205"/>
<path d="M58.1436 29.0842V29.0439C58.1838 29.0439 58.1436 29.0439 58.1436 29.0842Z" fill="#D9FFFF"/>
<path d="M58.1436 29.0842V29.0439C58.1838 29.0439 58.1436 29.0439 58.1436 29.0842Z" fill="#D9FFFF"/>
<path d="M49.9956 22.5254C47.4944 24.3066 43.8562 25.4435 40.218 25.4435C40.1801 25.6709 39.8769 26.9973 38.5505 33.0989C36.7693 41.209 43.4393 46.8558 44.4625 47.7275C45.7132 47.4243 54.1644 45.1504 55.9456 37.0403C57.272 30.9387 57.5752 29.6123 57.6131 29.3849C54.316 27.7932 51.5115 25.2161 49.9956 22.5254Z" fill="white"/>
<path d="M49.7684 23.396C47.2671 24.9119 44.0079 25.8215 40.635 25.973L39.0433 33.2115C38.3232 36.5465 38.9675 39.8058 40.9382 42.9892C42.2267 45.0736 43.7805 46.5137 44.5385 47.1958C44.5764 47.1958 44.6143 47.1579 44.6901 47.1579L49.7684 23.396C49.7684 23.396 49.8063 23.4339 49.7684 23.396Z" fill="#7299FF"/>
<path d="M49.8059 23.4326L44.7275 47.1567C45.7508 46.8535 47.6457 46.2092 49.6164 44.9586C52.724 42.95 54.6947 40.2593 55.4147 36.9243L57.0065 29.6858C53.9746 28.0941 51.4355 25.8581 49.8059 23.4326Z" fill="#466FCB"/>
<path d="M54.6189 32.1122C52.1177 31.9607 48.3279 33.5145 45.6371 35.7883C45.6371 34.424 44.576 32.946 43.9317 32.5291L41.3926 34.2345C42.5674 35.1441 43.6286 37.1527 43.4391 38.9339L45.4477 39.7297C46.6983 38.138 49.8817 34.3482 54.8842 33.0597C54.8463 32.7186 54.6568 32.1501 54.6189 32.1122Z" fill="#0046B3"/>
<path d="M15.7363 170.365C15.7363 170.365 17.6691 212.394 35.2916 249.269C56.287 293.154 49.3517 343.217 46.5852 359.248C44.2355 372.853 43.7615 394.66 51 423.5C56.9121 447.148 59.4512 457.191 59.4512 457.191" stroke="#FAE205" stroke-miterlimit="10" stroke-linecap="round" stroke-linejoin="round"/>
</svg>
