<svg width="165" height="425" viewBox="0 0 165 425" fill="none" xmlns="http://www.w3.org/2000/svg">
<path d="M10.652 200.038C9.81826 200.038 9.02242 200.076 8.22656 200.19C8.30236 199.432 8.37814 198.636 8.45394 197.84C8.90871 193.634 9.59087 189.806 10.3867 186.319C10.3867 186.319 10.0835 191.663 10.7278 200.038H10.652Z" fill="#7299FF"/>
<path d="M40.5532 333.969C36.8771 369.063 32.2535 362.393 35.399 407.529C27.9711 374.331 29.7902 337.57 27.7437 316.802C26.2657 301.567 18.5724 268.596 13.2288 241.991C11.296 232.327 9.66641 223.497 8.75686 216.676C8.64317 215.766 8.52948 214.894 8.45369 213.985C8.41579 213.757 8.41578 213.492 8.37789 213.265C8.33999 213.075 8.34 212.886 8.34 212.658C8.3021 212.317 8.2642 212.014 8.2642 211.711C8.2263 211.294 8.1884 210.915 8.1884 210.498C8.1505 209.778 8.1126 209.096 8.07471 208.414C8.07471 208.3 8.07471 208.149 8.07471 208.035C8.49158 207.997 8.90846 207.959 9.28744 207.959C10.0833 207.921 10.8792 207.921 11.6371 207.959C13.0772 218.684 16.109 232.138 22.4001 245.402C36.0812 274.432 44.2293 298.876 40.5532 333.969Z" fill="#7299FF"/>
<path d="M11.5615 207.96C10.8035 207.922 10.0077 207.922 9.2118 207.96C8.79492 207.96 8.37804 207.997 7.99906 208.035C7.96117 207.694 7.96118 207.315 7.96118 206.974C7.96118 206.709 7.92326 206.444 7.92326 206.178C7.92326 205.837 7.92327 205.496 7.88538 205.117C7.96117 203.525 8.03696 201.858 8.18855 200.153C8.98441 200.039 9.78027 200.001 10.614 200.001H10.6898C10.9172 202.464 11.1825 205.117 11.5615 207.96Z" fill="#7299FF"/>
<path d="M164.328 424.924C161.675 409.007 156.256 383.729 146.933 368.456C132.569 344.922 110.968 310.283 110.323 275C109.679 239.717 125.369 213.568 122.072 192.648C118.813 171.728 111.612 170.44 97.8929 141.031C91.7534 127.881 93.7241 115.564 97.7792 106.013C102.782 94.1894 110.968 86.4961 110.968 86.4961C109.982 92.3324 109.224 97.9034 108.694 103.247C107.595 115.071 107.329 131.708 111.422 150.885C111.46 151.074 111.498 151.264 111.536 151.453C112.256 154.599 113.052 156.531 112.749 156.607C114.682 164.187 116.652 169.568 117.676 172.448C129.462 205.836 127.226 230.508 134.426 276.857C141.21 320.477 145.834 315.437 155.46 369.707C158.15 384.714 161.751 407.377 164.328 424.924Z" fill="#7299FF"/>
<path d="M29.8659 129.093C22.6274 138.643 18.8376 146.677 18.7239 146.905C23.8401 130.495 29.7901 117.913 28.6152 98.585C28.3878 94.6436 27.9331 91.8392 27.3267 88.959C32.405 99.1535 36.8012 119.959 29.8659 129.093Z" fill="#7299FF"/>
<path d="M51.6194 5.47041L26.4552 14.8312C25.6593 15.1344 24.7877 14.7175 24.5224 13.9216L24.3708 13.5427C24.0676 12.7468 24.4845 11.8752 25.2804 11.6099L50.4445 2.24909C51.2404 1.94591 52.112 2.36278 52.3773 3.15864L52.5289 3.53762C52.7942 4.29557 52.3773 5.16723 51.6194 5.47041Z" fill="#7299FF"/>
<path d="M103.123 3.57665L128.893 11.1562C129.689 11.3836 130.523 10.9288 130.788 10.133L130.902 9.7161C131.129 8.92025 130.674 8.0865 129.878 7.82121L104.108 0.24164C103.312 0.0142526 102.478 0.46902 102.213 1.26487L102.099 1.68175C101.834 2.47761 102.327 3.31136 103.123 3.57665Z" fill="#7299FF"/>
<path d="M120.367 85.2459L144.962 82.3656C145.758 82.2898 146.327 81.5319 146.251 80.736L146.175 80.2054C146.099 79.4096 145.341 78.8411 144.546 78.9169L119.95 81.7972C119.154 81.873 118.586 82.6309 118.661 83.4268L118.737 83.9573C118.813 84.7532 119.571 85.3217 120.367 85.2459Z" fill="#7299FF"/>
<path d="M142.593 64.4395C142.596 62.5767 141.733 61.0652 140.666 61.0634C139.598 61.0617 138.731 62.5704 138.728 64.4332C138.725 66.296 139.588 67.8076 140.655 67.8093C141.722 67.811 142.59 66.3023 142.593 64.4395Z" fill="#466FCB"/>
<path d="M140.683 61.0838L140.672 67.8296L143.818 67.8347L143.829 61.0888L140.683 61.0838Z" fill="#466FCB"/>
<path d="M145.735 64.4459C145.738 62.5831 144.875 61.0716 143.807 61.0698C142.74 61.0681 141.872 62.5768 141.869 64.4396C141.866 66.3024 142.729 67.8139 143.797 67.8156C144.864 67.8174 145.732 66.3087 145.735 64.4459Z" fill="#7299FF"/>
<path d="M145.027 64.4558C145.028 63.5349 144.589 62.7876 144.044 62.7867C143.5 62.7858 143.058 63.5317 143.056 64.4526C143.055 65.3735 143.495 66.1208 144.039 66.1217C144.583 66.1226 145.025 65.3767 145.027 64.4558Z" fill="#466FCB"/>
<path d="M5.42759 140.426C6.49504 140.425 7.35793 138.913 7.35491 137.05C7.3519 135.187 6.48412 133.679 5.41667 133.68C4.34922 133.682 3.48633 135.194 3.48935 137.056C3.49237 138.919 4.36014 140.428 5.42759 140.426Z" fill="#466FCB"/>
<path d="M5.417 133.678L2.27148 133.683L2.28241 140.428L5.42793 140.423L5.417 133.678Z" fill="#466FCB"/>
<path d="M2.2826 140.425C3.35005 140.424 4.21293 138.912 4.20992 137.049C4.2069 135.186 3.33912 133.678 2.27167 133.679C1.20422 133.681 0.341313 135.193 0.34433 137.056C0.347348 138.918 1.21515 140.427 2.2826 140.425Z" fill="#7299FF"/>
<path d="M2.05189 138.72C2.59608 138.719 3.03604 137.972 3.03455 137.051C3.03306 136.13 2.59068 135.384 2.04649 135.385C1.5023 135.386 1.06237 136.133 1.06386 137.054C1.06535 137.975 1.5077 138.721 2.05189 138.72Z" fill="#466FCB"/>
<path d="M142.796 52.1558C142.799 50.293 141.936 48.7815 140.869 48.7798C139.801 48.778 138.933 50.2867 138.93 52.1495C138.927 54.0123 139.79 55.5239 140.858 55.5256C141.925 55.5273 142.793 54.0186 142.796 52.1558Z" fill="#466FCB"/>
<path d="M140.886 48.7615L140.875 55.5073L144.021 55.5124L144.032 48.7666L140.886 48.7615Z" fill="#466FCB"/>
<path d="M145.975 52.1622C145.978 50.2994 145.115 48.7879 144.048 48.7861C142.98 48.7844 142.112 50.2931 142.109 52.1559C142.106 54.0187 142.969 55.5302 144.037 55.5319C145.104 55.5337 145.972 54.025 145.975 52.1622Z" fill="#7299FF"/>
<path d="M145.267 52.135C145.269 51.2141 144.829 50.4668 144.284 50.4659C143.74 50.465 143.298 51.2109 143.296 52.1318C143.295 53.0527 143.735 53.8 144.279 53.8009C144.823 53.8018 145.266 53.0559 145.267 52.135Z" fill="#466FCB"/>
<path d="M4.8917 148.574C5.47775 148.574 5.95286 147.623 5.95286 146.451C5.95286 145.279 5.47775 144.329 4.8917 144.329C4.30565 144.329 3.83057 145.279 3.83057 146.451C3.83057 147.623 4.30565 148.574 4.8917 148.574Z" fill="#FF65EB"/>
<path d="M5.42173 130.154C6.00778 130.154 6.48287 129.204 6.48287 128.031C6.48287 126.859 6.00778 125.909 5.42173 125.909C4.83568 125.909 4.3606 126.859 4.3606 128.031C4.3606 129.204 4.83568 130.154 5.42173 130.154Z" fill="#FF65EB"/>
<path d="M4.8917 156.721C5.47775 156.721 5.95286 155.771 5.95286 154.599C5.95286 153.427 5.47775 152.477 4.8917 152.477C4.30565 152.477 3.83057 153.427 3.83057 154.599C3.83057 155.771 4.30565 156.721 4.8917 156.721Z" fill="#FF65EB"/>
<path d="M4.8917 164.87C5.47775 164.87 5.95286 163.919 5.95286 162.747C5.95286 161.575 5.47775 160.625 4.8917 160.625C4.30565 160.625 3.83057 161.575 3.83057 162.747C3.83057 163.919 4.30565 164.87 4.8917 164.87Z" fill="#FF65EB"/>
</svg>
