<svg id="Layer_1" data-name="Layer 1" xmlns="http://www.w3.org/2000/svg" viewBox="0 0 382.15 152.54"><defs><style>.cls-1{fill:#fff;}.cls-2{fill:#f4e236;}.cls-3{fill:#2f3136;}</style></defs><title>logo_raif_dgtl (1)</title><path class="cls-1" d="M175.81,116.59H183a7.26,7.26,0,0,0,3.42-.76,5.14,5.14,0,0,0,2.14-2.09,6.61,6.61,0,0,0,0-5.92,4.87,4.87,0,0,0-2.11-2A7.51,7.51,0,0,0,183,105h-7.75l1.52-1.52v30H171.1V100.05h12.46a12.68,12.68,0,0,1,6.2,1.42,9.52,9.52,0,0,1,3.92,3.88,11.07,11.07,0,0,1,1.33,5.39,10.55,10.55,0,0,1-5.37,9.29,11.55,11.55,0,0,1-5.94,1.5h-7.89Zm21,16.92h-6.46l-8.7-13.74h6.41Z"/><path class="cls-1" d="M215.26,117.44a4.38,4.38,0,0,0-.59-2.33,3.88,3.88,0,0,0-1.69-1.45,6.76,6.76,0,0,0-5.68.29,3.64,3.64,0,0,0-1.59,2h-5.13a8.34,8.34,0,0,1,3.2-5.21,11,11,0,0,1,6.92-2.06,12.22,12.22,0,0,1,5.18,1,8,8,0,0,1,3.47,3,8.88,8.88,0,0,1,1.24,4.78v16h-5v-4.66l.71.86a8.06,8.06,0,0,1-3.33,3.21,10.29,10.29,0,0,1-4.89,1.16,9.61,9.61,0,0,1-4.28-.93,7.12,7.12,0,0,1-4.14-6.68,6.77,6.77,0,0,1,2.59-5.63,11.43,11.43,0,0,1,7.16-2h7.13v4.09h-6.75a5.81,5.81,0,0,0-3.4.88,2.87,2.87,0,0,0-1.26,2.49,3,3,0,0,0,1.12,2.5,4.72,4.72,0,0,0,3,.88,7,7,0,0,0,3-.64,5.36,5.36,0,0,0,2.21-1.86,4.73,4.73,0,0,0,.83-2.78Z"/><path class="cls-1" d="M229.67,98.76a3.32,3.32,0,0,1,2.4.95,3.13,3.13,0,0,1,1,2.33,3.18,3.18,0,0,1-1,2.38,3.32,3.32,0,0,1-2.4,1,3.25,3.25,0,0,1-3.33-3.33,3.19,3.19,0,0,1,.95-2.33A3.24,3.24,0,0,1,229.67,98.76Zm2.71,34.75H227V109.27h5.42Z"/><path class="cls-1" d="M250.72,109.27v4.61H236.46v-4.61Zm-10.26,24.24V106.89a7.81,7.81,0,0,1,2.11-5.92c1.41-1.34,3.48-2,6.2-2h1.95v4.52h-1.33a3.89,3.89,0,0,0-2.68.83,3.52,3.52,0,0,0-.93,2.73v4l.09.38v22.06Z"/><path class="cls-1" d="M267.88,109.27v4.61H253.62v-4.61Zm-10.27,24.24V106.89a7.82,7.82,0,0,1,2.12-5.92c1.41-1.34,3.48-2,6.2-2h1.95v4.52h-1.33a3.94,3.94,0,0,0-2.69.83,3.55,3.55,0,0,0-.92,2.73v4l.09.38v22.06Z"/><path class="cls-1" d="M273.4,118.87h14.92l-.62.86v-.43a6.24,6.24,0,0,0-1.52-4.47,5.39,5.39,0,0,0-4.13-1.62,6.29,6.29,0,0,0-3.14.76,5.32,5.32,0,0,0-2.09,2.19,7.31,7.31,0,0,0-.81,3.33v3.56a6.69,6.69,0,0,0,.83,3.33,6.22,6.22,0,0,0,2.31,2.33,6.57,6.57,0,0,0,3.37.85,6,6,0,0,0,3.31-.83,3.77,3.77,0,0,0,1.64-1.78h5.32a8,8,0,0,1-1.57,3.33,9.49,9.49,0,0,1-3.47,2.71,12,12,0,0,1-5.32,1.09,12.67,12.67,0,0,1-6.28-1.52,10.38,10.38,0,0,1-4.2-4.4,14.32,14.32,0,0,1-1.5-6.72,14.72,14.72,0,0,1,1.47-6.75,10.56,10.56,0,0,1,4.11-4.45,11.77,11.77,0,0,1,6.06-1.54,11.16,11.16,0,0,1,5.78,1.47,9.83,9.83,0,0,1,3.85,4.21,14.15,14.15,0,0,1,1.35,6.34V123H273.4Z"/><path class="cls-1" d="M301,98.76a3.32,3.32,0,0,1,2.4.95,3.13,3.13,0,0,1,1,2.33,3.18,3.18,0,0,1-1,2.38,3.32,3.32,0,0,1-2.4,1,3.25,3.25,0,0,1-3.33-3.33,3.15,3.15,0,0,1,.95-2.33A3.23,3.23,0,0,1,301,98.76Zm2.7,34.75h-5.41V109.27h5.41Z"/><path class="cls-1" d="M314.23,126.52a3.44,3.44,0,0,0,1.71,2.33,6.75,6.75,0,0,0,3.47.81,5.77,5.77,0,0,0,3.28-.81,2.61,2.61,0,0,0,1.19-2.28,2.2,2.2,0,0,0-.84-1.81,4.65,4.65,0,0,0-2.35-.85l-4.28-.57a9.75,9.75,0,0,1-5.18-2.07,5.89,5.89,0,0,1-1.9-4.73,6.86,6.86,0,0,1,1.24-4,8.24,8.24,0,0,1,3.42-2.78,11.84,11.84,0,0,1,4.94-1,12.65,12.65,0,0,1,4.78.86,8.15,8.15,0,0,1,3.42,2.5,7.94,7.94,0,0,1,1.64,3.87H323.5a3.85,3.85,0,0,0-1.67-2.14,5.78,5.78,0,0,0-3-.71,4.94,4.94,0,0,0-3,.85,2.6,2.6,0,0,0-1.15,2.14,2.14,2.14,0,0,0,.77,1.76,4.47,4.47,0,0,0,2.28.81l4.32.52a9.71,9.71,0,0,1,5.28,2.14,6.16,6.16,0,0,1,1.95,4.9,6.94,6.94,0,0,1-1.29,4.23,8,8,0,0,1-3.51,2.68,12.9,12.9,0,0,1-5,.93,15.2,15.2,0,0,1-4.95-.78,8.93,8.93,0,0,1-3.8-2.48,7.37,7.37,0,0,1-1.81-4.3Z"/><path class="cls-1" d="M336,118.87h14.93l-.62.86v-.43a6.29,6.29,0,0,0-1.52-4.47,5.42,5.42,0,0,0-4.14-1.62,6.32,6.32,0,0,0-3.14.76,5.45,5.45,0,0,0-2.09,2.19,7.44,7.44,0,0,0-.81,3.33v3.56a6.59,6.59,0,0,0,.84,3.33,6.13,6.13,0,0,0,2.3,2.33,6.6,6.6,0,0,0,3.38.85,6,6,0,0,0,3.3-.83A3.72,3.72,0,0,0,350,127h5.32a7.92,7.92,0,0,1-1.57,3.33A9.49,9.49,0,0,1,350.3,133a12,12,0,0,1-5.32,1.09,12.6,12.6,0,0,1-6.27-1.52,10.41,10.41,0,0,1-4.21-4.4,14.32,14.32,0,0,1-1.5-6.72,14.6,14.6,0,0,1,1.48-6.75,10.5,10.5,0,0,1,4.11-4.45,11.77,11.77,0,0,1,6.06-1.54,11.15,11.15,0,0,1,5.77,1.47,9.77,9.77,0,0,1,3.85,4.21,14,14,0,0,1,1.36,6.34V123H336Z"/><path class="cls-1" d="M366,109.27v5l-.67-.81a4.81,4.81,0,0,1,1.29-2.16,8.25,8.25,0,0,1,2.73-1.88,9.28,9.28,0,0,1,3.87-.76,9.86,9.86,0,0,1,4.45,1,7.49,7.49,0,0,1,3.23,3.13,10.67,10.67,0,0,1,1.21,5.33v15.35h-5.42V119.15a6.6,6.6,0,0,0-.64-3.08,4.29,4.29,0,0,0-1.76-1.86,5.28,5.28,0,0,0-2.59-.62,6,6,0,0,0-2.68.62,4.86,4.86,0,0,0-2.05,1.93,6.35,6.35,0,0,0-.78,3.3v14.07h-5.42V109.27Z"/><path class="cls-1" d="M191.1,78.09H171V16.94H191.1q13.86,0,22.26,8.72t8.4,21.61q0,13.13-8.4,22T191.1,78.09Zm-9.21-52V69h9q9,0,14.43-6.24a22.62,22.62,0,0,0,5.46-15.45,21.8,21.8,0,0,0-5.46-15.08q-5.46-6.12-14.43-6.12Z"/><path class="cls-1" d="M260.32,79.07q-14.17,0-22.7-9T229.1,47.35q0-13.53,8.48-22.46T260.16,16a35.64,35.64,0,0,1,10.32,1.39,20.49,20.49,0,0,1,7,3.38,25.27,25.27,0,0,1,3.71,3.59A7.48,7.48,0,0,1,282.75,27v5.87h-8.24a4.18,4.18,0,0,0-.53-1.18,11.5,11.5,0,0,0-1.55-2,15.53,15.53,0,0,0-2.57-2.2,13.47,13.47,0,0,0-4-1.75,19.87,19.87,0,0,0-5.55-.74q-9.45,0-14.88,6.32t-5.42,16q0,9.8,5.42,16.19t15.05,6.4a27.21,27.21,0,0,0,12.31-2.61v-13H257.63V45.56h25.69v26a10.93,10.93,0,0,1-2.9,2.45,33.5,33.5,0,0,1-7.91,3.3A40.44,40.44,0,0,1,260.32,79.07Z"/><path class="cls-1" d="M318.05,78.09H307.21v-52H288.45V16.94h48.36v9.13H318.05Z"/><path class="cls-1" d="M382,78.09H345.61V16.94h10.85V69H382Z"/><rect class="cls-2" width="152.54" height="152.54" rx="38.14"/><path class="cls-3" d="M44.56,122.23l31.71-32,31.71,32,12.58-12.68-31.71-32,6.61-6.68V57.7l4.6-4.64v11.5l4,4,16.08-16.22,4,4a27.29,27.29,0,0,0-8-19.08C108.18,29.6,99.6,33.07,96.67,36L80.6,52.25l4.09,4.12-8.42,8.51-8.43-8.51,4.1-4.12L55.87,36c-2.93-3-11.51-6.43-19.46,1.27a27.24,27.24,0,0,0-8,19.08l4-4L48.48,68.59l4-4V53.06l4.6,4.64V70.88l6.61,6.68L32,109.55Z"/></svg>