<svg width="160" height="409" viewBox="0 0 160 409" fill="none" xmlns="http://www.w3.org/2000/svg">
<path d="M14.4027 385.602L43.1672 408.947C43.1672 408.947 68.7482 375.9 68.9756 369.837C69.203 363.735 62.2677 363.697 58.6674 372.3C55.3324 380.334 42.8261 407.848 42.8261 407.848C42.8261 407.848 20.0874 377.719 14.4027 377.871C9.81708 377.909 11.712 383.935 14.4027 385.602Z" fill="#FF65EB"/>
<path opacity="0.3" d="M14.4027 381.738L43.1672 408.911C43.1672 408.911 68.7482 370.179 68.9756 362.941C69.203 355.702 62.2677 355.626 58.6674 365.859C55.3324 375.409 42.8261 407.774 42.8261 407.774C42.8261 407.774 20.0874 372.302 14.4027 372.453C9.81708 372.605 11.712 379.767 14.4027 381.738Z" fill="#A33499"/>
<path d="M112.52 387.195L142.687 404.287C142.687 404.287 158.793 376.925 159.134 368.929C159.4 362.827 152.427 362.789 148.826 371.392C145.491 379.426 142.308 403.15 142.308 403.15C142.308 403.15 118.167 379.237 112.52 379.388C107.897 379.502 109.829 385.528 112.52 387.195Z" fill="#FF65EB"/>
<path opacity="0.3" d="M112.52 382.117L142.687 403.984C142.687 403.984 159.096 366.541 159.134 358.81C159.172 351.306 152.426 350.965 148.826 361.955C145.491 372.264 142.308 402.544 142.308 402.544C142.308 402.544 118.167 371.657 112.52 372.15C106.532 372.68 109.829 379.995 112.52 382.117Z" fill="#A33499"/>
<path d="M107.367 37.2459L131.962 34.3656C132.758 34.2898 133.327 33.5319 133.251 32.736L133.175 32.2054C133.099 31.4096 132.341 30.8411 131.546 30.9169L106.95 33.7972C106.154 33.873 105.586 34.6309 105.661 35.4268L105.737 35.9573C105.813 36.7532 106.571 37.3217 107.367 37.2459Z" fill="#7299FF"/>
<path d="M129.593 16.44C129.596 14.5772 128.733 13.0657 127.666 13.0639C126.598 13.0622 125.731 14.5709 125.728 16.4337C125.725 18.2965 126.588 19.808 127.655 19.8098C128.722 19.8115 129.59 18.3028 129.593 16.44Z" fill="#466FCB"/>
<path d="M127.683 13.0833L127.672 19.8291L130.818 19.8342L130.829 13.0884L127.683 13.0833Z" fill="#466FCB"/>
<path d="M132.735 16.4459C132.738 14.5831 131.875 13.0716 130.807 13.0698C129.74 13.0681 128.872 14.5768 128.869 16.4396C128.866 18.3024 129.729 19.8139 130.797 19.8156C131.864 19.8174 132.732 18.3087 132.735 16.4459Z" fill="#7299FF"/>
<path d="M132.027 16.4558C132.028 15.5349 131.588 14.7876 131.044 14.7867C130.5 14.7858 130.058 15.5317 130.056 16.4526C130.055 17.3735 130.495 18.1208 131.039 18.1217C131.583 18.1226 132.025 17.3767 132.027 16.4558Z" fill="#466FCB"/>
<path d="M129.796 4.1558C129.799 2.293 128.936 0.781485 127.869 0.779756C126.801 0.778027 125.933 2.28674 125.93 4.14954C125.927 6.01235 126.79 7.52386 127.858 7.52559C128.925 7.52732 129.793 6.01861 129.796 4.1558Z" fill="#466FCB"/>
<path d="M127.886 0.761977L127.875 7.50781L131.021 7.51291L131.031 0.767072L127.886 0.761977Z" fill="#466FCB"/>
<path d="M132.975 4.16171C132.978 2.2989 132.115 0.78739 131.048 0.785661C129.98 0.783932 129.112 2.29264 129.109 4.15545C129.106 6.01825 129.969 7.52972 131.037 7.53145C132.104 7.53318 132.972 6.02452 132.975 4.16171Z" fill="#7299FF"/>
<path d="M132.267 4.13451C132.269 3.21357 131.829 2.46628 131.284 2.46539C130.74 2.46451 130.298 3.21038 130.296 4.13131C130.295 5.05225 130.735 5.79954 131.279 5.80042C131.823 5.80131 132.266 5.05544 132.267 4.13451Z" fill="#466FCB"/>
<path d="M3.44925 106.749C3.44925 106.749 33.6917 117.209 64.6922 115.314C82.0494 114.253 100.278 110.615 100.278 110.615L103.537 121.264C103.537 121.264 67.9893 126.532 42.4461 125.433C16.903 124.334 0.947998 116.754 0.947998 116.754C1.36487 115.238 1.59226 113.722 2.00913 112.206C2.5397 110.387 2.91868 108.568 3.44925 106.749Z" fill="#FF65EB"/>
<path d="M101.718 115.352C101.718 115.352 57.5673 127.706 2.00903 112.206" stroke="#3D2971" stroke-width="5" stroke-miterlimit="10"/>
<path d="M44.3023 135.135L15.9547 131.762C13.4534 131.459 11.6722 129.185 11.9754 126.722L13.984 109.743C14.2872 107.242 16.561 105.461 19.0244 105.764L47.372 109.137C49.8733 109.44 51.6544 111.714 51.3513 114.177L49.3427 131.156C49.0395 133.657 46.7656 135.438 44.3023 135.135Z" fill="#D850CB"/>
<path d="M42.9013 132.937L17.8508 129.943C15.7286 129.678 14.1748 127.745 14.44 125.585L16.1076 111.411C16.3728 109.289 18.3056 107.735 20.4658 108L45.5163 110.994C47.6386 111.259 49.1924 113.192 48.9271 115.352L47.2596 129.526C46.9943 131.649 45.0236 133.164 42.9013 132.937Z" fill="#FF65EB"/>
<path d="M45.9325 117.815L18.3428 114.556C17.8881 114.518 17.547 114.101 17.6228 113.646V113.532C17.6607 113.078 18.0775 112.737 18.5323 112.812L46.122 116.072C46.5767 116.109 46.9178 116.526 46.842 116.981V117.095C46.8041 117.55 46.3872 117.891 45.9325 117.815Z" fill="#F3F3F3"/>
<path d="M19.3288 122.4C20.5636 122.4 21.5647 121.399 21.5647 120.164C21.5647 118.929 20.5636 117.928 19.3288 117.928C18.0939 117.928 17.0928 118.929 17.0928 120.164C17.0928 121.399 18.0939 122.4 19.3288 122.4Z" fill="#466FCB"/>
<path d="M18.4945 127.821C19.7294 127.821 20.7305 126.82 20.7305 125.585C20.7305 124.35 19.7294 123.349 18.4945 123.349C17.2596 123.349 16.2585 124.35 16.2585 125.585C16.2585 126.82 17.2596 127.821 18.4945 127.821Z" fill="#466FCB"/>
<path d="M18.4944 125.585C18.4944 125.585 47.6378 129.451 49.4569 130.019C51.276 130.587 50.7455 132.331 49.2296 132.028" stroke="white" stroke-miterlimit="10" stroke-linecap="round" stroke-linejoin="round"/>
<path d="M19.3285 120.128C19.3285 120.128 48.4719 123.994 50.291 124.562C52.1101 125.13 51.5796 126.874 50.0636 126.571" stroke="white" stroke-miterlimit="10" stroke-linecap="round" stroke-linejoin="round"/>
<path d="M64.6934 115.315L65.4892 125.093" stroke="#3D2971" stroke-width="5" stroke-miterlimit="10"/>
<path d="M71.6284 114.747L72.7654 124.638" stroke="#3D2971" stroke-width="5" stroke-miterlimit="10"/>
<path opacity="0.9" d="M9.02153 238.18C-1.77936 241.174 5.76232 265.466 5.76232 265.466C5.76232 265.466 8.52887 274.941 24.9765 284.453C41.4242 293.965 49.1175 298.892 55.3327 296.391C61.548 293.89 55.3327 270.279 55.3327 270.279C55.3327 270.279 53.5894 266.831 51.8082 266.49C51.4292 266.414 51.9977 277.139 51.6945 277.025C49.7238 276.381 47.7531 277.101 42.2201 274.827C31.1539 270.241 12.4702 254.059 12.4702 254.059C12.4702 254.059 10.689 244.206 9.43842 238.331C9.17313 236.853 9.02153 238.18 9.02153 238.18Z" fill="url(#paint0_linear_396:40)"/>
<defs>
<linearGradient id="paint0_linear_396:40" x1="3.22797" y1="267.34" x2="58.1441" y2="267.34" gradientUnits="userSpaceOnUse">
<stop stop-color="#0046B3"/>
<stop offset="0.1253" stop-color="#0449B4"/>
<stop offset="0.2507" stop-color="#1052B8"/>
<stop offset="0.3765" stop-color="#2460BE"/>
<stop offset="0.5024" stop-color="#4075C6"/>
<stop offset="0.6285" stop-color="#658FD1"/>
<stop offset="0.7548" stop-color="#91AFDE"/>
<stop offset="0.8788" stop-color="#C5D5EE"/>
<stop offset="1" stop-color="white"/>
</linearGradient>
</defs>
</svg>
