<svg width="160" height="465" viewBox="0 0 160 465" fill="none" xmlns="http://www.w3.org/2000/svg">
<path d="M107.367 93.2459L131.962 90.3656C132.758 90.2898 133.327 89.5319 133.251 88.736L133.175 88.2054C133.099 87.4096 132.341 86.8411 131.546 86.9169L106.95 89.7972C106.154 89.873 105.586 90.6309 105.661 91.4268L105.737 91.9573C105.813 92.7532 106.571 93.3217 107.367 93.2459Z" fill="#7299FF"/>
<path d="M129.593 72.44C129.596 70.5772 128.733 69.0657 127.666 69.0639C126.598 69.0622 125.731 70.5709 125.728 72.4337C125.725 74.2965 126.588 75.808 127.655 75.8098C128.722 75.8115 129.59 74.3028 129.593 72.44Z" fill="#466FCB"/>
<path d="M127.683 69.0833L127.672 75.8291L130.818 75.8342L130.829 69.0884L127.683 69.0833Z" fill="#466FCB"/>
<path d="M132.735 72.4459C132.738 70.5831 131.875 69.0716 130.807 69.0698C129.74 69.0681 128.872 70.5768 128.869 72.4396C128.866 74.3024 129.729 75.8139 130.797 75.8156C131.864 75.8174 132.732 74.3087 132.735 72.4459Z" fill="#7299FF"/>
<path d="M132.027 72.4558C132.028 71.5349 131.588 70.7876 131.044 70.7867C130.5 70.7858 130.058 71.5317 130.056 72.4526C130.055 73.3735 130.495 74.1208 131.039 74.1217C131.583 74.1226 132.025 73.3767 132.027 72.4558Z" fill="#466FCB"/>
<path d="M3.44925 162.749C3.44925 162.749 33.6917 173.209 64.6922 171.314C82.0494 170.253 100.278 166.615 100.278 166.615L103.537 177.264C103.537 177.264 67.9893 182.532 42.4461 181.433C16.903 180.334 0.947998 172.754 0.947998 172.754C1.36487 171.238 1.59226 169.722 2.00913 168.206C2.5397 166.387 2.91868 164.568 3.44925 162.749Z" fill="#FF65EB"/>
<path d="M101.718 171.352C101.718 171.352 57.5673 183.706 2.00903 168.206" stroke="#3D2971" stroke-width="5" stroke-miterlimit="10"/>
<path d="M44.3022 191.135L15.9545 187.762C13.4533 187.459 11.6721 185.185 11.9753 182.722L13.9839 165.743C14.2871 163.242 16.5609 161.461 19.0243 161.764L47.3719 165.137C49.8731 165.44 51.6543 167.714 51.3511 170.177L49.3426 187.156C49.0394 189.657 46.7655 191.438 44.3022 191.135Z" fill="#D850CB"/>
<path d="M42.9015 188.937L17.851 185.943C15.7287 185.678 14.1749 183.745 14.4402 181.585L16.1077 167.411C16.373 165.289 18.3058 163.735 20.4659 164L45.5164 166.994C47.6387 167.259 49.1925 169.192 48.9272 171.352L47.2597 185.526C46.9944 187.649 45.0238 189.164 42.9015 188.937Z" fill="#FF65EB"/>
<path d="M45.9326 173.815L18.3429 170.556C17.8882 170.518 17.5471 170.101 17.6229 169.646V169.532C17.6608 169.078 18.0777 168.737 18.5324 168.812L46.1221 172.072C46.5768 172.109 46.9179 172.526 46.8421 172.981V173.095C46.8042 173.55 46.3874 173.891 45.9326 173.815Z" fill="#F3F3F3"/>
<path d="M19.3288 178.4C20.5636 178.4 21.5647 177.399 21.5647 176.164C21.5647 174.929 20.5636 173.928 19.3288 173.928C18.0939 173.928 17.0928 174.929 17.0928 176.164C17.0928 177.399 18.0939 178.4 19.3288 178.4Z" fill="#466FCB"/>
<path d="M18.4945 183.821C19.7294 183.821 20.7305 182.82 20.7305 181.585C20.7305 180.35 19.7294 179.349 18.4945 179.349C17.2596 179.349 16.2585 180.35 16.2585 181.585C16.2585 182.82 17.2596 183.821 18.4945 183.821Z" fill="#466FCB"/>
<path d="M18.4944 181.585C18.4944 181.585 47.6378 185.451 49.4569 186.019C51.276 186.587 50.7455 188.331 49.2296 188.028" stroke="white" stroke-miterlimit="10" stroke-linecap="round" stroke-linejoin="round"/>
<path d="M19.3286 176.128C19.3286 176.128 48.4721 179.994 50.2912 180.562C52.1103 181.13 51.5797 182.874 50.0638 182.571" stroke="white" stroke-miterlimit="10" stroke-linecap="round" stroke-linejoin="round"/>
<path d="M64.6934 171.315L65.4892 181.093" stroke="#3D2971" stroke-width="5" stroke-miterlimit="10"/>
<path d="M71.6284 170.747L72.7654 180.638" stroke="#3D2971" stroke-width="5" stroke-miterlimit="10"/>
<path d="M85.4998 6.00005C85.4998 6.00005 92.851 -1.80094 90.7666 13.6614C82.1638 76.7992 21.4998 92 12.9999 106.5C9.99976 110.5 12.3938 113.067 15.7667 113.067" stroke="white" stroke-width="7" stroke-miterlimit="10"/>
<path d="M91.4489 67.8544L71.7041 88.4709C69.9608 90.2899 67.0805 90.3279 65.2614 88.6225L52.9067 76.7983C51.0876 75.055 51.0498 72.1748 52.7552 70.3557L72.4999 49.7393C74.2432 47.9202 77.1235 47.8823 78.9426 49.5877L91.2973 61.4118C93.1164 63.1551 93.1543 66.0353 91.4489 67.8544Z" fill="#7299FF"/>
<path d="M88.8336 67.6273L71.3627 85.8562C69.8847 87.41 67.3834 87.4479 65.8296 85.9699L55.5214 76.0785C53.9676 74.6005 53.9297 72.0992 55.4077 70.5454L72.8786 52.3166C74.3566 50.7627 76.8579 50.7249 78.4117 52.2029L88.7199 62.0942C90.2737 63.5722 90.3116 66.0735 88.8336 67.6273Z" fill="#466FCB"/>
<path d="M55.1809 70.7721L79.1324 77.2147L72.955 52.2021L55.1809 70.7721Z" fill="#0046B3"/>
<path d="M68.7479 85.4382C69.7944 85.4382 70.6428 84.5899 70.6428 83.5433C70.6428 82.4968 69.7944 81.6484 68.7479 81.6484C67.7014 81.6484 66.853 82.4968 66.853 83.5433C66.853 84.5899 67.7014 85.4382 68.7479 85.4382Z" fill="#0046B3"/>
<path d="M86.3329 66.6042C87.3794 66.6042 88.2278 65.7559 88.2278 64.7093C88.2278 63.6628 87.3794 62.8145 86.3329 62.8145C85.2864 62.8145 84.438 63.6628 84.438 64.7093C84.438 65.7559 85.2864 66.6042 86.3329 66.6042Z" fill="#0046B3"/>
<path d="M56.6965 73.5379L75.9865 53.8311" stroke="#7299FF" stroke-width="3" stroke-miterlimit="10" stroke-linecap="round" stroke-linejoin="round"/>
<path d="M68.7479 84.4529C69.2503 84.4529 69.6575 84.0457 69.6575 83.5433C69.6575 83.041 69.2503 82.6338 68.7479 82.6338C68.2456 82.6338 67.8384 83.041 67.8384 83.5433C67.8384 84.0457 68.2456 84.4529 68.7479 84.4529Z" fill="#2D2059"/>
<path d="M86.3331 65.6189C86.8354 65.6189 87.2427 65.2117 87.2427 64.7094C87.2427 64.207 86.8354 63.7998 86.3331 63.7998C85.8308 63.7998 85.4236 64.207 85.4236 64.7094C85.4236 65.2117 85.8308 65.6189 86.3331 65.6189Z" fill="#2D2059"/>
<path d="M68.7483 83.5442C68.7483 83.5442 74.6982 69.4841 86.3329 64.709" stroke="white" stroke-miterlimit="10" stroke-linecap="round" stroke-linejoin="round"/>
<path d="M136.661 347.691C136.661 347.691 156.027 347.691 123.283 374.675C95.4661 397.565 95.5798 382.633 101.416 376.304" stroke="white" stroke-width="1.8145" stroke-miterlimit="10" stroke-linecap="round" stroke-linejoin="round"/>
<path d="M140.034 364.025C140.034 364.025 160.385 360.842 126.732 391.009C100.431 414.581 99.9384 398.967 105.585 392.638" stroke="white" stroke-width="1.7846" stroke-miterlimit="10" stroke-linecap="round" stroke-linejoin="round"/>
<path d="M14.4028 441.602L43.1673 464.947C43.1673 464.947 68.7484 431.9 68.9757 425.837C69.2031 419.735 62.2678 419.697 58.6675 428.3C55.3325 436.334 42.8262 463.848 42.8262 463.848C42.8262 463.848 20.0875 433.719 14.4028 433.871C9.8172 433.909 11.7121 439.935 14.4028 441.602Z" fill="#FF65EB"/>
<path opacity="0.3" d="M14.4028 437.738L43.1673 464.911C43.1673 464.911 68.7484 426.179 68.9757 418.941C69.2031 411.702 62.2678 411.626 58.6675 421.859C55.3325 431.409 42.8262 463.774 42.8262 463.774C42.8262 463.774 20.0875 428.302 14.4028 428.453C9.8172 428.605 11.7121 435.767 14.4028 437.738Z" fill="#A33499"/>
<path d="M112.52 443.195L142.687 460.287C142.687 460.287 158.793 432.925 159.134 424.929C159.4 418.827 152.427 418.789 148.826 427.392C145.491 435.426 142.308 459.15 142.308 459.15C142.308 459.15 118.167 435.237 112.52 435.388C107.897 435.502 109.829 441.528 112.52 443.195Z" fill="#FF65EB"/>
<path opacity="0.3" d="M112.52 438.117L142.687 459.984C142.687 459.984 159.096 422.541 159.134 414.81C159.172 407.306 152.426 406.965 148.826 417.955C145.491 428.264 142.308 458.544 142.308 458.544C142.308 458.544 118.167 427.657 112.52 428.15C106.532 428.68 109.829 435.995 112.52 438.117Z" fill="#A33499"/>
<path opacity="0.9" d="M9.02153 294.18C-1.77936 297.174 5.76232 321.466 5.76232 321.466C5.76232 321.466 8.52887 330.941 24.9765 340.453C41.4242 349.965 49.1175 354.892 55.3327 352.391C61.548 349.89 55.3327 326.279 55.3327 326.279C55.3327 326.279 53.5894 322.831 51.8082 322.49C51.4292 322.414 51.9977 333.139 51.6945 333.025C49.7238 332.381 47.7531 333.101 42.2201 330.827C31.1539 326.241 12.4702 310.059 12.4702 310.059C12.4702 310.059 10.689 300.206 9.43842 294.331C9.17313 292.853 9.02153 294.18 9.02153 294.18Z" fill="url(#paint0_linear_396:39)"/>
<path d="M126.84 335.236C129.2 334.506 130.09 330.608 128.829 326.529C127.567 322.449 124.632 319.734 122.273 320.463C119.913 321.193 119.022 325.091 120.284 329.171C121.545 333.25 124.48 335.965 126.84 335.236Z" fill="#2D2059"/>
<path d="M129.163 318.34L122.283 320.467L126.851 335.239L133.73 333.112L129.163 318.34Z" fill="#2D2059"/>
<path d="M133.741 333.114C136.101 332.384 136.991 328.486 135.73 324.406C134.468 320.327 131.533 317.612 129.173 318.341C126.814 319.071 125.923 322.969 127.185 327.048C128.446 331.128 131.381 333.843 133.741 333.114Z" fill="#FF65EB"/>
<path d="M133.121 329.231C134.301 328.866 134.746 326.917 134.115 324.877C133.484 322.837 132.017 321.48 130.837 321.844C129.657 322.209 129.212 324.158 129.843 326.198C130.473 328.238 131.941 329.595 133.121 329.231Z" fill="#3D2971"/>
<path opacity="0.9" d="M129.155 318.351L143.215 298L155.532 335.254L132.718 333.51C132.718 333.51 127.639 332.146 126.692 325.097C125.782 318.048 129.155 318.351 129.155 318.351Z" fill="url(#paint1_linear_396:39)"/>
<defs>
<linearGradient id="paint0_linear_396:39" x1="3.22797" y1="323.34" x2="58.1441" y2="323.34" gradientUnits="userSpaceOnUse">
<stop stop-color="#0046B3"/>
<stop offset="0.1253" stop-color="#0449B4"/>
<stop offset="0.2507" stop-color="#1052B8"/>
<stop offset="0.3765" stop-color="#2460BE"/>
<stop offset="0.5024" stop-color="#4075C6"/>
<stop offset="0.6285" stop-color="#658FD1"/>
<stop offset="0.7548" stop-color="#91AFDE"/>
<stop offset="0.8788" stop-color="#C5D5EE"/>
<stop offset="1" stop-color="white"/>
</linearGradient>
<linearGradient id="paint1_linear_396:39" x1="126.537" y1="325.845" x2="150.555" y2="316.141" gradientUnits="userSpaceOnUse">
<stop stop-color="#FAE205"/>
<stop offset="0.9747" stop-color="#1C1F23" stop-opacity="0.0253325"/>
<stop offset="1" stop-color="#1D1D1B" stop-opacity="0"/>
</linearGradient>
</defs>
</svg>
