<svg width="85" height="81" viewBox="0 0 85 81" fill="none" xmlns="http://www.w3.org/2000/svg">
<path d="M28.3813 28.3305L23.1541 28.501L23.2207 30.5464L28.448 30.376L28.3813 28.3305Z" fill="#3F3F3F"/>
<path d="M35.6816 28.2988H30.4517V30.3453H35.6816V28.2988Z" fill="#3F3F3F"/>
<path d="M9.76016 56.9484H3.49976C1.87015 56.9484 0.543728 55.622 0.543728 53.9924V38.4922C0.543728 36.8626 1.87015 35.5361 3.49976 35.5361H9.76016C13.2089 35.5361 16.0133 38.3406 16.0133 41.7893V50.6195C16.0133 54.144 13.2089 56.9484 9.76016 56.9484Z" fill="#7299FF"/>
<path d="M75.134 35.5361H80.8945C82.7515 35.5361 84.2295 37.0142 84.2295 38.8711V53.6134C84.2295 55.4704 82.7515 56.9484 80.8945 56.9484H75.134C71.6853 56.9484 68.8809 54.144 68.8809 50.6953V41.8651C68.8809 38.3406 71.6853 35.5361 75.134 35.5361Z" fill="#7299FF"/>
<path d="M78.9243 56.9484V40.3491C78.9243 20.3011 62.6661 4.04297 42.6181 4.04297C22.5702 4.04297 6.31201 20.3011 6.31201 40.3491V56.9484C6.31201 67.6735 15.0285 76.39 25.7536 76.39H37" stroke="#3D2971" stroke-width="7.5813" stroke-miterlimit="10"/>
<path d="M78.9243 56.9484V40.3491C78.9243 20.3011 62.6661 4.04297 42.6181 4.04297C22.5702 4.04297 6.31201 20.3011 6.31201 40.3491V56.9484C6.31201 67.6735 15.0285 76.39 25.7536 76.39H42.3908" stroke="#2D2059" stroke-width="3" stroke-miterlimit="10"/>
<path d="M19.9544 30.7607C19.9544 30.7607 15.9751 31.1018 14.6487 32.3525C13.9666 32.9967 12.9812 35.0053 12.9812 39.7804C12.9812 44.5556 12.9812 45.9199 12.9812 47.739C12.9812 49.5581 13.2086 54.1816 14.7245 55.1291C16.5057 56.2281 20.485 56.7587 20.485 56.7587L19.9544 30.7607Z" fill="#4D4D4D"/>
<path d="M71.3065 43.5334C71.2308 37.2424 70.5486 31.4819 66.3419 30.7619C63.4617 30.2692 47.2793 30.3071 40.4956 30.3829C34.1288 30.3071 22.7594 30.2692 19.8792 30.7619C15.6725 31.4819 14.9903 37.2424 14.9146 43.5334C14.9146 43.6092 14.9146 43.6471 14.9146 43.7229C14.9146 43.7987 14.9146 43.8366 14.9146 43.9124C14.9903 50.2034 15.6725 55.9639 19.8792 56.684C22.7594 57.1767 34.1288 57.1388 40.4956 57.063C47.2793 57.1388 63.4996 57.1767 66.3419 56.684C70.5486 55.9639 71.2308 50.2034 71.3065 43.9124C71.3065 43.8366 71.3065 43.7987 71.3065 43.7229C71.3065 43.6471 71.3065 43.6092 71.3065 43.5334Z" fill="#AFAFAF"/>
<path d="M67.2137 43.571C67.1379 38.6822 66.5694 34.2102 63.0449 33.6418C60.6194 33.2628 47.0899 33.3007 41.4052 33.3386C36.0616 33.3007 26.5492 33.2249 24.1617 33.6418C20.6372 34.2102 20.0687 38.6822 19.9929 43.571C19.9929 43.6089 19.9929 43.6468 19.9929 43.7226C19.9929 43.7605 19.9929 43.7984 19.9929 43.8742C20.0687 48.763 20.6372 53.235 24.1617 53.8034C26.5871 54.1824 36.0616 54.1445 41.4052 54.1066C47.0899 54.1445 60.6573 54.2203 63.0449 53.8034C66.5694 53.235 67.1379 48.763 67.2137 43.8742C67.2137 43.8363 67.2137 43.7984 67.2137 43.7226C67.2137 43.6847 67.2137 43.6468 67.2137 43.571Z" fill="#D3D3D3"/>
<path opacity="0.9" d="M65.1668 43.6838C65.1289 39.5151 64.5983 35.7253 61.4528 35.2326C59.2926 34.8915 47.1274 34.9294 42.0491 34.9673C37.274 34.9294 28.747 34.8915 26.5868 35.2326C23.4413 35.7253 22.9107 39.5151 22.8728 43.6838C22.8728 43.7217 22.8728 43.7596 22.8728 43.7975C22.8728 43.8354 22.8728 43.8733 22.8728 43.9112C22.9107 48.08 23.4413 51.8698 26.5868 52.3624C28.747 52.7035 37.274 52.6656 42.0491 52.6277C47.1653 52.6656 59.2926 52.7035 61.4528 52.3624C64.5983 51.8698 65.1289 48.08 65.1668 43.9112C65.1668 43.8733 65.1668 43.8354 65.1668 43.7975C65.1668 43.7596 65.1668 43.7217 65.1668 43.6838Z" fill="url(#paint0_linear_396:11)" stroke="#3D2971" stroke-width="2" stroke-miterlimit="10"/>
<path d="M17.4534 43.7605C17.4534 39.0233 17.7944 34.7788 17.2639 34.8167C16.5059 34.8167 16.468 40.615 16.468 43.7605C16.468 47.3987 16.5059 52.7802 17.2639 52.7802C17.7944 52.7802 17.4534 48.2704 17.4534 43.7605Z" fill="#3F3F3F"/>
<path d="M68.8806 43.0392C68.8806 47.7765 68.5395 52.021 69.0701 51.9831C69.8281 51.9831 69.866 46.1847 69.866 43.0392C69.866 39.401 69.8281 34.0195 69.0701 34.0195C68.5395 34.0195 68.8806 38.5294 68.8806 43.0392Z" fill="#3F3F3F"/>
<path d="M45.195 80.218H40.0409C37.9944 80.218 36.3269 78.5505 36.3269 76.504C36.3269 74.4575 37.9944 72.79 40.0409 72.79H45.195C47.2415 72.79 48.909 74.4575 48.909 76.504C48.8711 78.5505 47.2415 80.218 45.195 80.218Z" fill="#7299FF"/>
<path d="M39.9275 74.1544C40.0322 74.1544 40.117 74.0695 40.117 73.9649C40.117 73.8602 40.0322 73.7754 39.9275 73.7754C39.8229 73.7754 39.738 73.8602 39.738 73.9649C39.738 74.0695 39.8229 74.1544 39.9275 74.1544Z" fill="#3D2971"/>
<path d="M41.2139 74.1544C41.3186 74.1544 41.4034 74.0695 41.4034 73.9649C41.4034 73.8602 41.3186 73.7754 41.2139 73.7754C41.1093 73.7754 41.0244 73.8602 41.0244 73.9649C41.0244 74.0695 41.1093 74.1544 41.2139 74.1544Z" fill="#3D2971"/>
<path d="M42.502 74.1544C42.6066 74.1544 42.6915 74.0695 42.6915 73.9649C42.6915 73.8602 42.6066 73.7754 42.502 73.7754C42.3973 73.7754 42.3125 73.8602 42.3125 73.9649C42.3125 74.0695 42.3973 74.1544 42.502 74.1544Z" fill="#3D2971"/>
<path d="M43.7532 74.1544C43.8579 74.1544 43.9427 74.0695 43.9427 73.9649C43.9427 73.8602 43.8579 73.7754 43.7532 73.7754C43.6486 73.7754 43.5637 73.8602 43.5637 73.9649C43.5637 74.0695 43.6486 74.1544 43.7532 74.1544Z" fill="#3D2971"/>
<path d="M45.0418 74.1544C45.1464 74.1544 45.2313 74.0695 45.2313 73.9649C45.2313 73.8602 45.1464 73.7754 45.0418 73.7754C44.9371 73.7754 44.8523 73.8602 44.8523 73.9649C44.8523 74.0695 44.9371 74.1544 45.0418 74.1544Z" fill="#3D2971"/>
<path d="M46.3308 74.1544C46.4355 74.1544 46.5203 74.0695 46.5203 73.9649C46.5203 73.8602 46.4355 73.7754 46.3308 73.7754C46.2262 73.7754 46.1414 73.8602 46.1414 73.9649C46.1414 74.0695 46.2262 74.1544 46.3308 74.1544Z" fill="#3D2971"/>
<path d="M39.9258 75.1788C40.0305 75.1788 40.1153 75.0939 40.1153 74.9893C40.1153 74.8846 40.0305 74.7998 39.9258 74.7998C39.8212 74.7998 39.7363 74.8846 39.7363 74.9893C39.7363 75.0939 39.8212 75.1788 39.9258 75.1788Z" fill="#3D2971"/>
<path d="M41.2141 75.1788C41.3188 75.1788 41.4036 75.0939 41.4036 74.9893C41.4036 74.8846 41.3188 74.7998 41.2141 74.7998C41.1095 74.7998 41.0247 74.8846 41.0247 74.9893C41.0247 75.0939 41.1095 75.1788 41.2141 75.1788Z" fill="#3D2971"/>
<path d="M42.5022 75.1788C42.6069 75.1788 42.6917 75.0939 42.6917 74.9893C42.6917 74.8846 42.6069 74.7998 42.5022 74.7998C42.3976 74.7998 42.3127 74.8846 42.3127 74.9893C42.3127 75.0939 42.3976 75.1788 42.5022 75.1788Z" fill="#3D2971"/>
<path d="M43.753 75.1788C43.8576 75.1788 43.9425 75.0939 43.9425 74.9893C43.9425 74.8846 43.8576 74.7998 43.753 74.7998C43.6483 74.7998 43.5635 74.8846 43.5635 74.9893C43.5635 75.0939 43.6483 75.1788 43.753 75.1788Z" fill="#3D2971"/>
<path d="M45.0415 75.1788C45.1462 75.1788 45.231 75.0939 45.231 74.9893C45.231 74.8846 45.1462 74.7998 45.0415 74.7998C44.9369 74.7998 44.8521 74.8846 44.8521 74.9893C44.8521 75.0939 44.9369 75.1788 45.0415 75.1788Z" fill="#3D2971"/>
<path d="M46.3301 75.1788C46.4348 75.1788 46.5196 75.0939 46.5196 74.9893C46.5196 74.8846 46.4348 74.7998 46.3301 74.7998C46.2255 74.7998 46.1406 74.8846 46.1406 74.9893C46.1406 75.0939 46.2255 75.1788 46.3301 75.1788Z" fill="#3D2971"/>
<path d="M47.618 75.1788C47.7226 75.1788 47.8074 75.0939 47.8074 74.9893C47.8074 74.8846 47.7226 74.7998 47.618 74.7998C47.5133 74.7998 47.4285 74.8846 47.4285 74.9893C47.4285 75.0939 47.5133 75.1788 47.618 75.1788Z" fill="#3D2971"/>
<path d="M39.9258 76.2032C40.0305 76.2032 40.1153 76.1184 40.1153 76.0137C40.1153 75.9091 40.0305 75.8242 39.9258 75.8242C39.8212 75.8242 39.7363 75.9091 39.7363 76.0137C39.7363 76.1184 39.8212 76.2032 39.9258 76.2032Z" fill="#3D2971"/>
<path d="M41.2141 76.2032C41.3188 76.2032 41.4036 76.1184 41.4036 76.0137C41.4036 75.9091 41.3188 75.8242 41.2141 75.8242C41.1095 75.8242 41.0247 75.9091 41.0247 76.0137C41.0247 76.1184 41.1095 76.2032 41.2141 76.2032Z" fill="#3D2971"/>
<path d="M42.5022 76.2032C42.6069 76.2032 42.6917 76.1184 42.6917 76.0137C42.6917 75.9091 42.6069 75.8242 42.5022 75.8242C42.3976 75.8242 42.3127 75.9091 42.3127 76.0137C42.3127 76.1184 42.3976 76.2032 42.5022 76.2032Z" fill="#3D2971"/>
<path d="M43.753 76.2032C43.8576 76.2032 43.9425 76.1184 43.9425 76.0137C43.9425 75.9091 43.8576 75.8242 43.753 75.8242C43.6483 75.8242 43.5635 75.9091 43.5635 76.0137C43.5635 76.1184 43.6483 76.2032 43.753 76.2032Z" fill="#3D2971"/>
<path d="M45.0415 76.2032C45.1462 76.2032 45.231 76.1184 45.231 76.0137C45.231 75.9091 45.1462 75.8242 45.0415 75.8242C44.9369 75.8242 44.8521 75.9091 44.8521 76.0137C44.8521 76.1184 44.9369 76.2032 45.0415 76.2032Z" fill="#3D2971"/>
<path d="M46.3301 76.2032C46.4348 76.2032 46.5196 76.1184 46.5196 76.0137C46.5196 75.9091 46.4348 75.8242 46.3301 75.8242C46.2255 75.8242 46.1406 75.9091 46.1406 76.0137C46.1406 76.1184 46.2255 76.2032 46.3301 76.2032Z" fill="#3D2971"/>
<path d="M47.618 76.2032C47.7226 76.2032 47.8074 76.1184 47.8074 76.0137C47.8074 75.9091 47.7226 75.8242 47.618 75.8242C47.5133 75.8242 47.4285 75.9091 47.4285 76.0137C47.4285 76.1184 47.5133 76.2032 47.618 76.2032Z" fill="#3D2971"/>
<path d="M39.9258 77.2276C40.0305 77.2276 40.1153 77.1428 40.1153 77.0381C40.1153 76.9335 40.0305 76.8486 39.9258 76.8486C39.8212 76.8486 39.7363 76.9335 39.7363 77.0381C39.7363 77.1428 39.8212 77.2276 39.9258 77.2276Z" fill="#3D2971"/>
<path d="M41.2141 77.2266C41.3188 77.2266 41.4036 77.1418 41.4036 77.0371C41.4036 76.9325 41.3188 76.8477 41.2141 76.8477C41.1095 76.8477 41.0247 76.9325 41.0247 77.0371C41.0247 77.1418 41.1095 77.2266 41.2141 77.2266Z" fill="#3D2971"/>
<path d="M42.5022 77.2266C42.6069 77.2266 42.6917 77.1418 42.6917 77.0371C42.6917 76.9325 42.6069 76.8477 42.5022 76.8477C42.3976 76.8477 42.3127 76.9325 42.3127 77.0371C42.3127 77.1418 42.3976 77.2266 42.5022 77.2266Z" fill="#3D2971"/>
<path d="M43.753 77.2266C43.8576 77.2266 43.9425 77.1418 43.9425 77.0371C43.9425 76.9325 43.8576 76.8477 43.753 76.8477C43.6483 76.8477 43.5635 76.9325 43.5635 77.0371C43.5635 77.1418 43.6483 77.2266 43.753 77.2266Z" fill="#3D2971"/>
<path d="M45.0415 77.2266C45.1462 77.2266 45.231 77.1418 45.231 77.0371C45.231 76.9325 45.1462 76.8477 45.0415 76.8477C44.9369 76.8477 44.8521 76.9325 44.8521 77.0371C44.8521 77.1418 44.9369 77.2266 45.0415 77.2266Z" fill="#3D2971"/>
<path d="M46.3301 77.2266C46.4348 77.2266 46.5196 77.1418 46.5196 77.0371C46.5196 76.9325 46.4348 76.8477 46.3301 76.8477C46.2255 76.8477 46.1406 76.9325 46.1406 77.0371C46.1406 77.1418 46.2255 77.2266 46.3301 77.2266Z" fill="#3D2971"/>
<path d="M47.618 77.2266C47.7226 77.2266 47.8074 77.1418 47.8074 77.0371C47.8074 76.9325 47.7226 76.8477 47.618 76.8477C47.5133 76.8477 47.4285 76.9325 47.4285 77.0371C47.4285 77.1418 47.5133 77.2266 47.618 77.2266Z" fill="#3D2971"/>
<path d="M39.9258 78.2491C40.0305 78.2491 40.1153 78.1643 40.1153 78.0596C40.1153 77.955 40.0305 77.8701 39.9258 77.8701C39.8212 77.8701 39.7363 77.955 39.7363 78.0596C39.7363 78.1643 39.8212 78.2491 39.9258 78.2491Z" fill="#3D2971"/>
<path d="M41.2141 78.2481C41.3188 78.2481 41.4036 78.1633 41.4036 78.0586C41.4036 77.954 41.3188 77.8691 41.2141 77.8691C41.1095 77.8691 41.0247 77.954 41.0247 78.0586C41.0247 78.1633 41.1095 78.2481 41.2141 78.2481Z" fill="#3D2971"/>
<path d="M42.5022 78.2481C42.6069 78.2481 42.6917 78.1633 42.6917 78.0586C42.6917 77.954 42.6069 77.8691 42.5022 77.8691C42.3976 77.8691 42.3127 77.954 42.3127 78.0586C42.3127 78.1633 42.3976 78.2481 42.5022 78.2481Z" fill="#3D2971"/>
<path d="M43.753 78.2481C43.8576 78.2481 43.9425 78.1633 43.9425 78.0586C43.9425 77.954 43.8576 77.8691 43.753 77.8691C43.6483 77.8691 43.5635 77.954 43.5635 78.0586C43.5635 78.1633 43.6483 78.2481 43.753 78.2481Z" fill="#3D2971"/>
<path d="M45.0415 78.2481C45.1462 78.2481 45.231 78.1633 45.231 78.0586C45.231 77.954 45.1462 77.8691 45.0415 77.8691C44.9369 77.8691 44.8521 77.954 44.8521 78.0586C44.8521 78.1633 44.9369 78.2481 45.0415 78.2481Z" fill="#3D2971"/>
<path d="M46.3301 78.2481C46.4348 78.2481 46.5196 78.1633 46.5196 78.0586C46.5196 77.954 46.4348 77.8691 46.3301 77.8691C46.2255 77.8691 46.1406 77.954 46.1406 78.0586C46.1406 78.1633 46.2255 78.2481 46.3301 78.2481Z" fill="#3D2971"/>
<path d="M47.618 78.2481C47.7226 78.2481 47.8074 78.1633 47.8074 78.0586C47.8074 77.954 47.7226 77.8691 47.618 77.8691C47.5133 77.8691 47.4285 77.954 47.4285 78.0586C47.4285 78.1633 47.5133 78.2481 47.618 78.2481Z" fill="#3D2971"/>
<path d="M39.9258 79.2706C40.0305 79.2706 40.1153 79.1857 40.1153 79.0811C40.1153 78.9764 40.0305 78.8916 39.9258 78.8916C39.8212 78.8916 39.7363 78.9764 39.7363 79.0811C39.7363 79.1857 39.8212 79.2706 39.9258 79.2706Z" fill="#3D2971"/>
<path d="M41.2141 79.2706C41.3188 79.2706 41.4036 79.1857 41.4036 79.0811C41.4036 78.9764 41.3188 78.8916 41.2141 78.8916C41.1095 78.8916 41.0247 78.9764 41.0247 79.0811C41.0247 79.1857 41.1095 79.2706 41.2141 79.2706Z" fill="#3D2971"/>
<path d="M42.5022 79.2706C42.6069 79.2706 42.6917 79.1857 42.6917 79.0811C42.6917 78.9764 42.6069 78.8916 42.5022 78.8916C42.3976 78.8916 42.3127 78.9764 42.3127 79.0811C42.3127 79.1857 42.3976 79.2706 42.5022 79.2706Z" fill="#3D2971"/>
<path d="M43.753 79.2706C43.8576 79.2706 43.9425 79.1857 43.9425 79.0811C43.9425 78.9764 43.8576 78.8916 43.753 78.8916C43.6483 78.8916 43.5635 78.9764 43.5635 79.0811C43.5635 79.1857 43.6483 79.2706 43.753 79.2706Z" fill="#3D2971"/>
<path d="M45.0415 79.2706C45.1462 79.2706 45.231 79.1857 45.231 79.0811C45.231 78.9764 45.1462 78.8916 45.0415 78.8916C44.9369 78.8916 44.8521 78.9764 44.8521 79.0811C44.8521 79.1857 44.9369 79.2706 45.0415 79.2706Z" fill="#3D2971"/>
<path d="M46.3301 79.2706C46.4348 79.2706 46.5196 79.1857 46.5196 79.0811C46.5196 78.9764 46.4348 78.8916 46.3301 78.8916C46.2255 78.8916 46.1406 78.9764 46.1406 79.0811C46.1406 79.1857 46.2255 79.2706 46.3301 79.2706Z" fill="#3D2971"/>
<path d="M38.6761 74.1173C38.7807 74.1173 38.8656 74.0324 38.8656 73.9278C38.8656 73.8231 38.7807 73.7383 38.6761 73.7383C38.5714 73.7383 38.4866 73.8231 38.4866 73.9278C38.4866 74.0324 38.5714 74.1173 38.6761 74.1173Z" fill="#3D2971"/>
<path d="M37.4251 75.1417C37.5297 75.1417 37.6146 75.0568 37.6146 74.9522C37.6146 74.8475 37.5297 74.7627 37.4251 74.7627C37.3204 74.7627 37.2356 74.8475 37.2356 74.9522C37.2356 75.0568 37.3204 75.1417 37.4251 75.1417Z" fill="#3D2971"/>
<path d="M38.6756 75.1417C38.7802 75.1417 38.8651 75.0568 38.8651 74.9522C38.8651 74.8475 38.7802 74.7627 38.6756 74.7627C38.5709 74.7627 38.4861 74.8475 38.4861 74.9522C38.4861 75.0568 38.5709 75.1417 38.6756 75.1417Z" fill="#3D2971"/>
<path d="M37.4256 76.1641C37.5302 76.1641 37.6151 76.0793 37.6151 75.9746C37.6151 75.87 37.5302 75.7852 37.4256 75.7852C37.3209 75.7852 37.2361 75.87 37.2361 75.9746C37.2361 76.0793 37.3209 76.1641 37.4256 76.1641Z" fill="#3D2971"/>
<path d="M38.6761 76.1641C38.7807 76.1641 38.8656 76.0793 38.8656 75.9746C38.8656 75.87 38.7807 75.7852 38.6761 75.7852C38.5714 75.7852 38.4866 75.87 38.4866 75.9746C38.4866 76.0793 38.5714 76.1641 38.6761 76.1641Z" fill="#3D2971"/>
<path d="M37.4251 77.1876C37.5297 77.1876 37.6146 77.1027 37.6146 76.9981C37.6146 76.8934 37.5297 76.8086 37.4251 76.8086C37.3204 76.8086 37.2356 76.8934 37.2356 76.9981C37.2356 77.1027 37.3204 77.1876 37.4251 77.1876Z" fill="#3D2971"/>
<path d="M38.6756 77.1866C38.7802 77.1866 38.8651 77.1018 38.8651 76.9971C38.8651 76.8925 38.7802 76.8076 38.6756 76.8076C38.5709 76.8076 38.4861 76.8925 38.4861 76.9971C38.4861 77.1018 38.5709 77.1866 38.6756 77.1866Z" fill="#3D2971"/>
<path d="M37.4256 78.2091C37.5302 78.2091 37.6151 78.1242 37.6151 78.0196C37.6151 77.9149 37.5302 77.8301 37.4256 77.8301C37.3209 77.8301 37.2361 77.9149 37.2361 78.0196C37.2361 78.1242 37.3209 78.2091 37.4256 78.2091Z" fill="#3D2971"/>
<path d="M38.6761 78.2091C38.7807 78.2091 38.8656 78.1242 38.8656 78.0196C38.8656 77.9149 38.7807 77.8301 38.6761 77.8301C38.5714 77.8301 38.4866 77.9149 38.4866 78.0196C38.4866 78.1242 38.5714 78.2091 38.6761 78.2091Z" fill="#3D2971"/>
<path d="M38.6761 79.2325C38.7807 79.2325 38.8656 79.1477 38.8656 79.043C38.8656 78.9384 38.7807 78.8535 38.6761 78.8535C38.5714 78.8535 38.4866 78.9384 38.4866 79.043C38.4866 79.1477 38.5714 79.2325 38.6761 79.2325Z" fill="#3D2971"/>
<path d="M36.4983 81C35.642 81 34.9998 80.2252 34.9998 79.3311V73.6689C34.9998 72.7152 35.6955 72 36.4983 72C37.3546 72 37.9969 72.7748 37.9969 73.6689V79.3311C38.0504 80.2848 37.3546 81 36.4983 81Z" fill="#3D2971"/>
<path d="M75.7807 10.8721C76.077 6.0673 72.4221 1.93198 67.6172 1.63567C62.8124 1.33935 58.6771 4.99423 58.3808 9.79908C58.0845 14.6039 61.7393 18.7392 66.5442 19.0356C71.349 19.3319 75.4843 15.677 75.7807 10.8721Z" fill="#090909"/>
<g opacity="0.9">
<g opacity="0.9">
<path opacity="0.9" d="M67.0612 19.0522C71.8752 19.0522 75.7777 15.1496 75.7777 10.3356C75.7777 5.52165 71.8752 1.61914 67.0612 1.61914C62.2472 1.61914 58.3447 5.52165 58.3447 10.3356C58.3447 15.1496 62.2472 19.0522 67.0612 19.0522Z" fill="url(#paint1_linear_396:11)"/>
</g>
</g>
<path d="M68.8419 2.15128C71.2674 2.64396 73.8444 4.87993 74.6403 7.2296C75.4361 9.57926 74.1097 11.0573 71.7221 10.5646C69.2967 10.0719 66.7196 7.83596 65.9238 5.4863C65.1279 3.13663 66.4543 1.65861 68.8419 2.15128Z" fill="#251C72"/>
<path opacity="0.9" d="M68.8419 2.15128C71.2674 2.64396 73.8444 4.87993 74.6403 7.2296C75.4361 9.57926 74.1097 11.0573 71.7221 10.5646C69.2967 10.0719 66.7196 7.83596 65.9238 5.4863C65.1279 3.13663 66.4543 1.65861 68.8419 2.15128Z" fill="#3D2971"/>
<path d="M65.7729 3.62662C66.3035 3.39923 66.9478 3.32343 67.7436 3.47502C70.1691 3.9677 72.7462 6.20367 73.542 8.55334C73.7694 9.2734 73.8452 9.91766 73.6936 10.4103C74.7547 9.95556 75.1716 8.74283 74.6411 7.18901C73.8452 4.87725 71.2682 2.60337 68.8427 2.1107C67.1752 1.80752 66.0382 2.45178 65.7729 3.62662Z" fill="#7299FF"/>
<defs>
<linearGradient id="paint0_linear_396:11" x1="22.8404" y1="43.7916" x2="65.1677" y2="43.7916" gradientUnits="userSpaceOnUse">
<stop offset="0.0165344" stop-color="white"/>
<stop offset="0.3112" stop-color="#7299FF"/>
<stop offset="0.4272" stop-color="#7698FE"/>
<stop offset="0.5434" stop-color="#8293FD"/>
<stop offset="0.6598" stop-color="#968CFA"/>
<stop offset="0.7763" stop-color="#B281F6"/>
<stop offset="0.8917" stop-color="#D674F1"/>
<stop offset="1" stop-color="#FF65EB"/>
</linearGradient>
<linearGradient id="paint1_linear_396:11" x1="70.7316" y1="18.2302" x2="63.4156" y2="2.4279" gradientUnits="userSpaceOnUse">
<stop stop-color="#0046B3"/>
<stop offset="0.1253" stop-color="#0449B4"/>
<stop offset="0.2507" stop-color="#1052B8"/>
<stop offset="0.3765" stop-color="#2460BE"/>
<stop offset="0.5024" stop-color="#4075C6"/>
<stop offset="0.6285" stop-color="#658FD1"/>
<stop offset="0.7548" stop-color="#91AFDE"/>
<stop offset="0.8788" stop-color="#C5D5EE"/>
<stop offset="1" stop-color="white"/>
</linearGradient>
</defs>
</svg>
