<svg width="85" height="57" viewBox="0 0 85 57" fill="none" xmlns="http://www.w3.org/2000/svg">
<path d="M9.76016 56.9484H3.49976C1.87015 56.9484 0.543728 55.622 0.543728 53.9924V38.4922C0.543728 36.8626 1.87015 35.5361 3.49976 35.5361H9.76016C13.2089 35.5361 16.0133 38.3406 16.0133 41.7893V50.6195C16.0133 54.144 13.2089 56.9484 9.76016 56.9484Z" fill="#7299FF"/>
<path d="M75.134 35.5361H80.8945C82.7515 35.5361 84.2295 37.0142 84.2295 38.8711V53.6134C84.2295 55.4704 82.7515 56.9484 80.8945 56.9484H75.134C71.6853 56.9484 68.8809 54.144 68.8809 50.6953V41.8651C68.8809 38.3406 71.6853 35.5361 75.134 35.5361Z" fill="#7299FF"/>
<path d="M78.9242 56.9484V40.3491C78.9242 20.3011 62.666 4.04297 42.618 4.04297C22.5701 4.04297 6.31189 20.3011 6.31189 40.3491V56.9484" stroke="#3D2971" stroke-width="7.5813" stroke-miterlimit="10"/>
<path d="M78.9242 41.4489C79.3218 41.4489 79.6442 41.1265 79.6442 40.7288C79.6442 40.3312 79.3218 40.0088 78.9242 40.0088C78.5265 40.0088 78.2041 40.3312 78.2041 40.7288C78.2041 41.1265 78.5265 41.4489 78.9242 41.4489Z" fill="#7299FF"/>
<path d="M78.9242 43.9889C79.3218 43.9889 79.6442 43.6666 79.6442 43.2689C79.6442 42.8712 79.3218 42.5488 78.9242 42.5488C78.5265 42.5488 78.2041 42.8712 78.2041 43.2689C78.2041 43.6666 78.5265 43.9889 78.9242 43.9889Z" fill="#7299FF"/>
<path d="M78.9242 46.527C79.3218 46.527 79.6442 46.2047 79.6442 45.807C79.6442 45.4093 79.3218 45.0869 78.9242 45.0869C78.5265 45.0869 78.2041 45.4093 78.2041 45.807C78.2041 46.2047 78.5265 46.527 78.9242 46.527Z" fill="#7299FF"/>
</svg>
