<svg width="263" height="447" viewBox="0 0 263 447" fill="none" xmlns="http://www.w3.org/2000/svg">
<path d="M5.49519 403.977H2.53916V395.412L0 397.042V394.123L2.76655 392.229H5.4573V403.977H5.49519Z" fill="#2D2059"/>
<path d="M12.8847 392C13.87 392 14.7038 392.265 15.4617 392.758C16.2197 393.251 16.7882 393.971 17.1671 394.88C17.584 395.79 17.7735 396.851 17.7735 398.102C17.7735 399.314 17.584 400.375 17.1671 401.323C16.7503 402.232 16.1818 402.952 15.4617 403.445C14.7038 403.938 13.87 404.203 12.8847 404.203C11.8993 404.203 11.0656 403.938 10.3076 403.445C9.54966 402.952 8.9812 402.232 8.60222 401.323C8.18534 400.413 7.99585 399.352 7.99585 398.102C7.99585 396.889 8.18534 395.828 8.60222 394.88C9.01909 393.971 9.58756 393.251 10.3076 392.758C11.0656 392.265 11.8993 392 12.8847 392ZM12.8847 401.626C13.3015 401.626 13.6805 401.474 13.9458 401.171C14.2111 400.868 14.4385 400.451 14.5901 399.921C14.7417 399.39 14.8175 398.784 14.8175 398.102C14.8175 397.419 14.7417 396.813 14.5901 396.282C14.4385 395.752 14.249 395.335 13.9458 395.032C13.6426 394.729 13.3015 394.577 12.8847 394.577C12.4678 394.577 12.0888 394.729 11.8235 395.032C11.5582 395.335 11.3309 395.752 11.1793 396.282C11.0277 396.813 10.9519 397.419 10.9519 398.102C10.9519 398.784 11.0277 399.39 11.1793 399.921C11.3309 400.451 11.5204 400.868 11.8235 401.171C12.1267 401.474 12.4299 401.626 12.8847 401.626Z" fill="#2D2059"/>
<path d="M24.7101 392C25.6955 392 26.5292 392.265 27.2872 392.758C28.0451 393.251 28.6136 393.971 28.9926 394.88C29.4094 395.79 29.5989 396.851 29.5989 398.102C29.5989 399.314 29.4094 400.375 28.9926 401.323C28.5757 402.232 28.0072 402.952 27.2872 403.445C26.5292 403.938 25.6955 404.203 24.7101 404.203C23.7248 404.203 22.891 403.938 22.1331 403.445C21.3751 402.952 20.8066 402.232 20.4277 401.323C20.0108 400.413 19.8213 399.352 19.8213 398.102C19.8213 396.889 20.0108 395.828 20.4277 394.88C20.8445 393.971 21.413 393.251 22.1331 392.758C22.891 392.265 23.7248 392 24.7101 392ZM24.7101 401.626C25.127 401.626 25.506 401.474 25.7712 401.171C26.0365 400.868 26.2639 400.451 26.4155 399.921C26.5671 399.39 26.6429 398.784 26.6429 398.102C26.6429 397.419 26.5671 396.813 26.4155 396.282C26.2639 395.752 26.0744 395.335 25.7712 395.032C25.4681 394.729 25.127 394.577 24.7101 394.577C24.2932 394.577 23.9143 394.729 23.649 395.032C23.3837 395.335 23.1563 395.752 23.0047 396.282C22.8531 396.813 22.7773 397.419 22.7773 398.102C22.7773 398.784 22.8531 399.39 23.0047 399.921C23.1563 400.451 23.3458 400.868 23.649 401.171C23.9522 401.474 24.2553 401.626 24.7101 401.626Z" fill="#2D2059"/>
<path d="M32.8953 400.943C33.35 400.943 33.729 401.095 34.0701 401.436C34.3733 401.739 34.5628 402.156 34.5628 402.611C34.5628 403.066 34.4112 403.445 34.0701 403.786C33.7669 404.089 33.35 404.278 32.8953 404.278C32.4405 404.278 32.0236 404.127 31.7205 403.786C31.4173 403.483 31.2278 403.066 31.2278 402.611C31.2278 402.156 31.3794 401.777 31.7205 401.436C32.0236 401.095 32.4405 400.943 32.8953 400.943Z" fill="#2D2059"/>
<path d="M38.1636 400.943C38.6184 400.943 38.9974 401.095 39.3384 401.436C39.6416 401.739 39.8311 402.156 39.8311 402.611C39.8311 403.066 39.6795 403.445 39.3384 403.786C39.0352 404.089 38.6184 404.278 38.1636 404.278C37.7088 404.278 37.292 404.127 36.9888 403.786C36.6856 403.483 36.4961 403.066 36.4961 402.611C36.4961 402.156 36.6477 401.777 36.9888 401.436C37.292 401.095 37.6709 400.943 38.1636 400.943Z" fill="#2D2059"/>
<path d="M43.3936 400.943C43.8483 400.943 44.2273 401.095 44.5684 401.436C44.8716 401.739 45.0611 402.156 45.0611 402.611C45.0611 403.066 44.9095 403.445 44.5684 403.786C44.2652 404.089 43.8483 404.278 43.3936 404.278C42.9388 404.278 42.5219 404.127 42.2187 403.786C41.9156 403.483 41.7261 403.066 41.7261 402.611C41.7261 402.156 41.8777 401.777 42.2187 401.436C42.5598 401.095 42.9388 400.943 43.3936 400.943Z" fill="#2D2059"/>
<path d="M51.2002 403.977H48.2821V395.412L45.7429 397.042V394.123L48.5095 392.229H51.2002V403.977Z" fill="#2D2059"/>
<path d="M58.6658 403.977H55.7477V395.412L53.2085 397.042V394.123L55.975 392.229H58.6658V403.977Z" fill="#2D2059"/>
<path d="M66.1697 403.977H63.2516V395.412L60.7124 397.042V394.123L63.4789 392.229H66.1697V403.977Z" fill="#2D2059"/>
<path d="M73.5602 392C74.5456 392 75.3793 392.265 76.1373 392.758C76.8952 393.251 77.4637 393.971 77.8427 394.88C78.2595 395.79 78.449 396.851 78.449 398.102C78.449 399.314 78.2595 400.375 77.8427 401.323C77.4258 402.232 76.8573 402.952 76.1373 403.445C75.3793 403.938 74.5456 404.203 73.5602 404.203C72.5749 404.203 71.7411 403.938 70.9831 403.445C70.2252 402.952 69.6567 402.232 69.2777 401.323C68.8609 400.413 68.6714 399.352 68.6714 398.102C68.6714 396.889 68.8609 395.828 69.2777 394.88C69.6946 393.971 70.2631 393.251 70.9831 392.758C71.7411 392.265 72.5749 392 73.5602 392ZM73.5602 401.626C73.9771 401.626 74.3561 401.474 74.6214 401.171C74.8866 400.868 75.114 400.451 75.2656 399.921C75.4172 399.39 75.493 398.784 75.493 398.102C75.493 397.419 75.4172 396.813 75.2656 396.282C75.114 395.752 74.9245 395.335 74.6214 395.032C74.3182 394.729 73.9771 394.577 73.5602 394.577C73.1433 394.577 72.7643 394.729 72.4991 395.032C72.2338 395.335 72.0064 395.752 71.8548 396.282C71.7032 396.813 71.6274 397.419 71.6274 398.102C71.6274 398.784 71.7032 399.39 71.8548 399.921C72.0064 400.451 72.1959 400.868 72.4991 401.171C72.8022 401.474 73.1054 401.626 73.5602 401.626Z" fill="#2D2059"/>
<path d="M85.6109 403.977H82.6927V395.412L80.1536 397.042V394.123L82.9201 392.229H85.6109V403.977Z" fill="#2D2059"/>
<path d="M93.0011 392C93.9865 392 94.8202 392.265 95.5782 392.758C96.3361 393.251 96.9046 393.971 97.2836 394.88C97.7005 395.79 97.8899 396.851 97.8899 398.102C97.8899 399.314 97.7005 400.375 97.2836 401.323C96.8667 402.232 96.2982 402.952 95.5782 403.445C94.8202 403.938 93.9865 404.203 93.0011 404.203C92.0158 404.203 91.182 403.938 90.4241 403.445C89.6661 402.952 89.0977 402.232 88.7187 401.323C88.3018 400.413 88.1123 399.352 88.1123 398.102C88.1123 396.889 88.3018 395.828 88.7187 394.88C89.1356 393.971 89.704 393.251 90.4241 392.758C91.182 392.265 92.0158 392 93.0011 392ZM93.0011 401.626C93.418 401.626 93.797 401.474 94.0623 401.171C94.3655 400.868 94.5549 400.451 94.7065 399.921C94.8581 399.39 94.9339 398.784 94.9339 398.102C94.9339 397.419 94.8581 396.813 94.7065 396.282C94.5549 395.752 94.3655 395.335 94.0623 395.032C93.7591 394.729 93.418 394.577 93.0011 394.577C92.5843 394.577 92.2053 394.729 91.94 395.032C91.6368 395.335 91.4473 395.752 91.2957 396.282C91.1441 396.813 91.0683 397.419 91.0683 398.102C91.0683 398.784 91.1441 399.39 91.2957 399.921C91.4473 400.451 91.6368 400.868 91.94 401.171C92.2053 401.474 92.5464 401.626 93.0011 401.626Z" fill="#2D2059"/>
<path d="M105.015 403.977H102.097V395.412L99.5581 397.042V394.123L102.325 392.229H105.015V403.977Z" fill="#2D2059"/>
<path d="M112.519 403.977H109.601V395.412L107.062 397.042V394.123L109.829 392.229H112.519V403.977Z" fill="#2D2059"/>
<path d="M34.6393 413.223C35.6247 413.223 36.4584 413.488 37.2164 413.981C37.9743 414.473 38.5428 415.193 38.9218 416.103C39.3386 417.012 39.5281 418.074 39.5281 419.324C39.5281 420.537 39.3386 421.598 38.9218 422.546C38.5049 423.455 37.9364 424.175 37.2164 424.668C36.4584 425.16 35.6247 425.426 34.6393 425.426C33.654 425.426 32.8202 425.16 32.0623 424.668C31.3043 424.175 30.7358 423.455 30.3569 422.546C29.94 421.636 29.7505 420.575 29.7505 419.324C29.7505 418.111 29.94 417.05 30.3569 416.103C30.7737 415.193 31.3422 414.473 32.0623 413.981C32.8202 413.488 33.6919 413.223 34.6393 413.223ZM34.6393 422.849C35.0562 422.849 35.4352 422.697 35.7005 422.394C36.0036 422.091 36.1931 421.674 36.3447 421.143C36.4963 420.613 36.5721 420.006 36.5721 419.324C36.5721 418.642 36.4963 418.036 36.3447 417.505C36.1931 416.975 36.0036 416.558 35.7005 416.254C35.3973 415.951 35.0562 415.8 34.6393 415.8C34.2224 415.8 33.8435 415.951 33.5782 416.254C33.275 416.558 33.0855 416.975 32.9339 417.505C32.7823 418.036 32.7065 418.642 32.7065 419.324C32.7065 420.006 32.7823 420.613 32.9339 421.143C33.0855 421.674 33.275 422.091 33.5782 422.394C33.8435 422.697 34.2224 422.849 34.6393 422.849Z" fill="#2D2059"/>
<path d="M46.4628 413.223C47.4482 413.223 48.2819 413.488 49.0399 413.981C49.7978 414.473 50.3663 415.193 50.7453 416.103C51.1621 417.012 51.3516 418.074 51.3516 419.324C51.3516 420.537 51.1621 421.598 50.7453 422.546C50.3284 423.455 49.7599 424.175 49.0399 424.668C48.2819 425.16 47.4482 425.426 46.4628 425.426C45.4775 425.426 44.6437 425.16 43.8857 424.668C43.1278 424.175 42.5593 423.455 42.1803 422.546C41.7635 421.636 41.574 420.575 41.574 419.324C41.574 418.111 41.7635 417.05 42.1803 416.103C42.5972 415.193 43.1657 414.473 43.8857 413.981C44.6437 413.488 45.5154 413.223 46.4628 413.223ZM46.4628 422.849C46.8797 422.849 47.2587 422.697 47.5239 422.394C47.8271 422.091 48.0166 421.674 48.1682 421.143C48.3198 420.613 48.3956 420.006 48.3956 419.324C48.3956 418.642 48.3198 418.036 48.1682 417.505C48.0166 416.975 47.8271 416.558 47.5239 416.254C47.2208 415.951 46.8797 415.8 46.4628 415.8C46.0459 415.8 45.6669 415.951 45.4016 416.254C45.0985 416.558 44.909 416.975 44.7574 417.505C44.6058 418.036 44.53 418.642 44.53 419.324C44.53 420.006 44.6058 420.613 44.7574 421.143C44.909 421.674 45.0985 422.091 45.4016 422.394C45.6669 422.697 46.0459 422.849 46.4628 422.849Z" fill="#2D2059"/>
<path d="M58.5144 425.198H55.5963V416.633L53.0571 418.262V415.344L55.8237 413.449H58.5144V425.198Z" fill="#2D2059"/>
<path d="M65.9042 413.223C66.8896 413.223 67.7233 413.488 68.4813 413.981C69.2392 414.473 69.8077 415.193 70.1867 416.103C70.6035 417.012 70.793 418.074 70.793 419.324C70.793 420.537 70.6035 421.598 70.1867 422.546C69.7698 423.455 69.2013 424.175 68.4813 424.668C67.7233 425.16 66.8896 425.426 65.9042 425.426C64.9189 425.426 64.0851 425.16 63.3272 424.668C62.5692 424.175 62.0007 423.455 61.6218 422.546C61.2049 421.636 61.0154 420.575 61.0154 419.324C61.0154 418.111 61.2049 417.05 61.6218 416.103C62.0386 415.193 62.6071 414.473 63.3272 413.981C64.0851 413.488 64.9189 413.223 65.9042 413.223ZM65.9042 422.849C66.3211 422.849 66.7001 422.697 66.9653 422.394C67.2685 422.091 67.458 421.674 67.6096 421.143C67.7612 420.613 67.837 420.006 67.837 419.324C67.837 418.642 67.7612 418.036 67.6096 417.505C67.458 416.975 67.2685 416.558 66.9653 416.254C66.6622 415.951 66.3211 415.8 65.9042 415.8C65.4873 415.8 65.1084 415.951 64.8431 416.254C64.5399 416.558 64.3504 416.975 64.1988 417.505C64.0472 418.036 63.9714 418.642 63.9714 419.324C63.9714 420.006 64.0472 420.613 64.1988 421.143C64.3504 421.674 64.5399 422.091 64.8431 422.394C65.1084 422.697 65.4873 422.849 65.9042 422.849Z" fill="#2D2059"/>
<path d="M77.9566 425.198H75.0384V416.633L72.4993 418.262V415.344L75.2658 413.449H77.9566V425.198Z" fill="#2D2059"/>
<path d="M82.2383 422.166C82.6931 422.166 83.0721 422.318 83.4131 422.659C83.7163 422.962 83.9058 423.379 83.9058 423.834C83.9058 424.288 83.7542 424.667 83.4131 425.008C83.11 425.312 82.6931 425.501 82.2383 425.501C81.7835 425.501 81.3667 425.349 81.0635 425.008C80.7603 424.705 80.5708 424.288 80.5708 423.834C80.5708 423.379 80.7224 423 81.0635 422.659C81.3667 422.318 81.7835 422.166 82.2383 422.166Z" fill="#2D2059"/>
<path d="M87.5064 422.166C87.9612 422.166 88.3401 422.318 88.6812 422.659C88.9844 422.962 89.1739 423.379 89.1739 423.834C89.1739 424.288 89.0223 424.667 88.6812 425.008C88.378 425.312 87.9612 425.501 87.5064 425.501C87.0516 425.501 86.6347 425.349 86.3315 425.008C86.0284 424.705 85.8389 424.288 85.8389 423.834C85.8389 423.379 85.9905 423 86.3315 422.659C86.6347 422.318 87.0137 422.166 87.5064 422.166Z" fill="#2D2059"/>
<path d="M92.7356 422.166C93.1904 422.166 93.5694 422.318 93.9105 422.659C94.2136 422.962 94.4031 423.379 94.4031 423.834C94.4031 424.288 94.2515 424.667 93.9105 425.008C93.6073 425.312 93.1904 425.501 92.7356 425.501C92.2809 425.501 91.864 425.349 91.5608 425.008C91.2576 424.705 91.0681 424.288 91.0681 423.834C91.0681 423.379 91.2197 423 91.5608 422.659C91.9019 422.318 92.2809 422.166 92.7356 422.166Z" fill="#2D2059"/>
<path d="M100.544 425.198H97.6256V416.633L95.0864 418.262V415.344L97.853 413.449H100.544V425.198Z" fill="#2D2059"/>
<path d="M17.7362 434.445C18.7216 434.445 19.5553 434.711 20.3133 435.203C21.0712 435.696 21.6397 436.416 22.0187 437.326C22.4356 438.235 22.6251 439.296 22.6251 440.547C22.6251 441.76 22.4356 442.821 22.0187 443.768C21.6018 444.678 21.0333 445.398 20.3133 445.89C19.5553 446.383 18.7216 446.648 17.7362 446.648C16.7509 446.648 15.9171 446.383 15.1592 445.89C14.4012 445.398 13.8327 444.678 13.4538 443.768C13.0369 442.859 12.8474 441.797 12.8474 440.547C12.8474 439.334 13.0369 438.273 13.4538 437.326C13.8706 436.416 14.4391 435.696 15.1592 435.203C15.9171 434.711 16.7509 434.445 17.7362 434.445ZM17.7362 444.071C18.1531 444.071 18.5321 443.92 18.7974 443.617C19.0627 443.313 19.29 442.897 19.4416 442.366C19.5932 441.835 19.669 441.229 19.669 440.547C19.669 439.865 19.5932 439.258 19.4416 438.728C19.29 438.197 19.1006 437.78 18.7974 437.477C18.4942 437.174 18.1531 437.022 17.7362 437.022C17.3194 437.022 16.9404 437.174 16.6751 437.477C16.4098 437.78 16.1824 438.197 16.0308 438.728C15.8792 439.258 15.8034 439.865 15.8034 440.547C15.8034 441.229 15.8792 441.835 16.0308 442.366C16.1824 442.897 16.3719 443.313 16.6751 443.617C16.9783 443.92 17.2815 444.071 17.7362 444.071Z" fill="#2D2059"/>
<path d="M29.56 434.445C30.5453 434.445 31.3791 434.711 32.137 435.203C32.895 435.696 33.4634 436.416 33.8424 437.326C34.2593 438.235 34.4488 439.296 34.4488 440.547C34.4488 441.76 34.2593 442.821 33.8424 443.768C33.4255 444.678 32.8571 445.398 32.137 445.89C31.3791 446.383 30.5453 446.648 29.56 446.648C28.5746 446.648 27.7409 446.383 26.9829 445.89C26.225 445.398 25.6565 444.678 25.2775 443.768C24.8606 442.859 24.6711 441.797 24.6711 440.547C24.6711 439.334 24.8606 438.273 25.2775 437.326C25.6944 436.416 26.2629 435.696 26.9829 435.203C27.703 434.711 28.5746 434.445 29.56 434.445ZM29.56 444.071C29.9768 444.071 30.3558 443.92 30.6211 443.617C30.8864 443.313 31.1138 442.897 31.2654 442.366C31.417 441.835 31.4928 441.229 31.4928 440.547C31.4928 439.865 31.417 439.258 31.2654 438.728C31.1138 438.197 30.9243 437.78 30.6211 437.477C30.3179 437.174 29.9768 437.022 29.56 437.022C29.1431 437.022 28.7641 437.174 28.4988 437.477C28.2335 437.78 28.0062 438.197 27.8546 438.728C27.703 439.258 27.6272 439.865 27.6272 440.547C27.6272 441.229 27.703 441.835 27.8546 442.366C28.0062 442.897 28.1956 443.313 28.4988 443.617C28.802 443.92 29.1052 444.071 29.56 444.071Z" fill="#2D2059"/>
<path d="M41.5738 446.421H38.6556V437.856L36.1165 439.486V436.568L38.883 434.673H41.5738V446.421Z" fill="#2D2059"/>
<path d="M49.078 446.421H46.1219V437.856L43.5828 439.486V436.568L46.3493 434.673H49.0401V446.421H49.078Z" fill="#2D2059"/>
<path d="M53.3604 443.391C53.8151 443.391 54.1941 443.542 54.5352 443.883C54.8384 444.186 55.0279 444.603 55.0279 445.058C55.0279 445.513 54.8763 445.892 54.5352 446.233C54.232 446.536 53.8151 446.726 53.3604 446.726C52.9056 446.726 52.4887 446.574 52.1855 446.233C51.8824 445.93 51.6929 445.513 51.6929 445.058C51.6929 444.603 51.8445 444.224 52.1855 443.883C52.4887 443.542 52.9056 443.391 53.3604 443.391Z" fill="#2D2059"/>
<path d="M58.6277 443.391C59.0825 443.391 59.4615 443.542 59.8025 443.883C60.1057 444.186 60.2952 444.603 60.2952 445.058C60.2952 445.513 60.1436 445.892 59.8025 446.233C59.4994 446.536 59.0825 446.726 58.6277 446.726C58.1729 446.726 57.7561 446.574 57.4529 446.233C57.1497 445.93 56.9602 445.513 56.9602 445.058C56.9602 444.603 57.1118 444.224 57.4529 443.883C57.7561 443.542 58.135 443.391 58.6277 443.391Z" fill="#2D2059"/>
<path d="M63.8577 443.391C64.3125 443.391 64.6914 443.542 65.0325 443.883C65.3357 444.186 65.5252 444.603 65.5252 445.058C65.5252 445.513 65.3736 445.892 65.0325 446.233C64.7293 446.536 64.3125 446.726 63.8577 446.726C63.4029 446.726 62.986 446.574 62.6829 446.233C62.3797 445.93 62.1902 445.513 62.1902 445.058C62.1902 444.603 62.3418 444.224 62.6829 443.883C62.986 443.542 63.4029 443.391 63.8577 443.391Z" fill="#2D2059"/>
<path d="M69.126 443.391C69.5808 443.391 69.9598 443.542 70.3008 443.883C70.604 444.186 70.7935 444.603 70.7935 445.058C70.7935 445.513 70.6419 445.892 70.3008 446.233C69.9977 446.536 69.5808 446.726 69.126 446.726C68.6712 446.726 68.2543 446.574 67.9512 446.233C67.648 445.93 67.4585 445.513 67.4585 445.058C67.4585 444.603 67.6101 444.224 67.9512 443.883C68.2543 443.542 68.6712 443.391 69.126 443.391Z" fill="#2D2059"/>
<path d="M76.895 446.421H73.9769V437.856L71.4377 439.486V436.568L74.2043 434.673H76.895V446.421Z" fill="#2D2059"/>
<path d="M84.3229 434.445C85.3082 434.445 86.142 434.711 86.8999 435.203C87.6579 435.696 88.2264 436.416 88.6053 437.326C89.0222 438.235 89.2117 439.296 89.2117 440.547C89.2117 441.76 89.0222 442.821 88.6053 443.768C88.1885 444.678 87.62 445.398 86.8999 445.89C86.142 446.383 85.3082 446.648 84.3229 446.648C83.3375 446.648 82.5038 446.383 81.7458 445.89C80.9879 445.398 80.4194 444.678 80.0404 443.768C79.6236 442.859 79.4341 441.797 79.4341 440.547C79.4341 439.334 79.6236 438.273 80.0404 437.326C80.4573 436.416 81.0258 435.696 81.7458 435.203C82.5038 434.711 83.3375 434.445 84.3229 434.445ZM84.3229 444.071C84.7398 444.071 85.1187 443.92 85.384 443.617C85.6872 443.313 85.8767 442.897 86.0283 442.366C86.1799 441.835 86.2557 441.229 86.2557 440.547C86.2557 439.865 86.1799 439.258 86.0283 438.728C85.8767 438.197 85.6872 437.78 85.384 437.477C85.0808 437.174 84.7398 437.022 84.3229 437.022C83.906 437.022 83.527 437.174 83.2618 437.477C82.9586 437.78 82.7691 438.197 82.6175 438.728C82.4659 439.258 82.3901 439.865 82.3901 440.547C82.3901 441.229 82.4659 441.835 82.6175 442.366C82.7691 442.897 82.9586 443.313 83.2618 443.617C83.527 443.92 83.8681 444.071 84.3229 444.071Z" fill="#2D2059"/>
<path d="M96.336 446.421H93.4178V437.856L90.8787 439.486V436.568L93.6452 434.673H96.336V446.421Z" fill="#2D2059"/>
<path d="M103.765 434.445C104.75 434.445 105.584 434.711 106.342 435.203C107.1 435.696 107.668 436.416 108.047 437.326C108.464 438.235 108.653 439.296 108.653 440.547C108.653 441.76 108.464 442.821 108.047 443.768C107.63 444.678 107.062 445.398 106.342 445.89C105.584 446.383 104.75 446.648 103.765 446.648C102.779 446.648 101.945 446.383 101.187 445.89C100.43 445.398 99.8611 444.678 99.4821 443.768C99.0652 442.859 98.8757 441.797 98.8757 440.547C98.8757 439.334 99.0652 438.273 99.4821 437.326C99.899 436.416 100.467 435.696 101.187 435.203C101.908 434.711 102.779 434.445 103.765 434.445ZM103.765 444.071C104.181 444.071 104.56 443.92 104.826 443.617C105.129 443.313 105.318 442.897 105.47 442.366C105.622 441.835 105.697 441.229 105.697 440.547C105.697 439.865 105.622 439.258 105.47 438.728C105.318 438.197 105.129 437.78 104.826 437.477C104.523 437.174 104.181 437.022 103.765 437.022C103.348 437.022 102.969 437.174 102.703 437.477C102.4 437.78 102.211 438.197 102.059 438.728C101.908 439.258 101.832 439.865 101.832 440.547C101.832 441.229 101.908 441.835 102.059 442.366C102.211 442.897 102.4 443.313 102.703 443.617C102.969 443.92 103.31 444.071 103.765 444.071Z" fill="#2D2059"/>
<path d="M115.778 446.421H112.86V437.856L110.321 439.486V436.568L113.087 434.673H115.778V446.421Z" fill="#2D2059"/>
<path d="M123.281 446.421H120.363V437.856L117.824 439.486V436.568L120.591 434.673H123.281V446.421Z" fill="#2D2059"/>
<path d="M130.748 446.421H127.829V437.856L125.29 439.486V436.568L128.057 434.673H130.748V446.421Z" fill="#2D2059"/>
<path d="M138.138 434.445C139.123 434.445 139.957 434.711 140.715 435.203C141.473 435.696 142.042 436.416 142.421 437.326C142.837 438.235 143.027 439.296 143.027 440.547C143.027 441.76 142.837 442.821 142.421 443.768C142.004 444.678 141.435 445.398 140.715 445.89C139.957 446.383 139.123 446.648 138.138 446.648C137.153 446.648 136.319 446.383 135.561 445.89C134.803 445.398 134.235 444.678 133.856 443.768C133.439 442.859 133.249 441.797 133.249 440.547C133.249 439.334 133.439 438.273 133.856 437.326C134.273 436.416 134.841 435.696 135.561 435.203C136.319 434.711 137.191 434.445 138.138 434.445ZM138.138 444.071C138.555 444.071 138.934 443.92 139.199 443.617C139.464 443.313 139.692 442.897 139.843 442.366C139.995 441.835 140.071 441.229 140.071 440.547C140.071 439.865 139.995 439.258 139.843 438.728C139.692 438.197 139.502 437.78 139.199 437.477C138.896 437.174 138.555 437.022 138.138 437.022C137.721 437.022 137.342 437.174 137.077 437.477C136.812 437.78 136.584 438.197 136.433 438.728C136.281 439.258 136.205 439.865 136.205 440.547C136.205 441.229 136.281 441.835 136.433 442.366C136.584 442.897 136.774 443.313 137.077 443.617C137.38 443.92 137.721 444.071 138.138 444.071Z" fill="#2D2059"/>
<path d="M263 322.823C263 326.478 260.985 332.717 259.465 335.818C257.944 338.919 253.079 348 248.973 348C247.605 348 243.994 347.446 243.994 347.446C243.994 347.446 239.47 347.077 240.269 344.197C241.067 341.318 247.377 334.12 246.997 329.173C246.617 324.226 245.286 322.343 245.286 322.343C245.286 322.343 245.248 333.381 244.222 335.633C243.196 337.848 239.09 339.583 238.406 335.153C237.722 330.723 238.482 324.595 238.026 320.645C237.646 317.544 240.796 306.986 243 302.999C243.608 301.929 244.944 304.329 245.476 303.923C246.427 303.221 248.289 303 250.266 303C253.421 303 256.842 303.627 257.184 303.923C257.716 304.366 258.477 305.584 258.477 305.584C258.477 305.584 258.477 305.695 258.515 305.879C258.819 308.168 263 321.162 263 322.823Z" fill="#D850CB"/>
<path d="M243 309.5C243 309.5 239.289 277.197 236.272 269.242C233.255 261.287 256.313 253.926 256.636 258.313C256.96 262.699 258.5 293.5 259 308C257.779 318.446 243 309.5 243 309.5Z" fill="#D850CB"/>
<path d="M247 312L250 324" stroke="white" stroke-width="4" stroke-miterlimit="10" stroke-linecap="round" stroke-linejoin="round"/>
<path d="M251 312L254 324" stroke="white" stroke-width="4" stroke-miterlimit="10" stroke-linecap="round" stroke-linejoin="round"/>
<path d="M254 312L257 323" stroke="white" stroke-width="4" stroke-miterlimit="10" stroke-linecap="round" stroke-linejoin="round"/>
<path d="M257 312L260 323" stroke="white" stroke-width="4" stroke-miterlimit="10" stroke-linecap="round" stroke-linejoin="round"/>
<path d="M242 347C242 347 248.024 341.207 251 330" stroke="#3D2971" stroke-miterlimit="10" stroke-linecap="round" stroke-linejoin="round"/>
<path d="M245 348C245 348 251.024 342.207 254 331" stroke="#3D2971" stroke-miterlimit="10" stroke-linecap="round" stroke-linejoin="round"/>
<path d="M248 348C248 348 254.693 342.207 258 331" stroke="#3D2971" stroke-miterlimit="10" stroke-linecap="round" stroke-linejoin="round"/>
<path d="M246.879 328.416C246.879 328.416 247.713 319.236 245.003 316C245.003 316 242.971 317.543 244.5 335C244.5 335 245.431 333.61 245.5 323C245.5 323 246.636 324.842 246.879 328.416Z" fill="#3D2971"/>
<path opacity="0.9" d="M238 274.981C238 274.981 248.664 259.848 257.282 266.85L258 283C258 283 255.307 275.697 248.628 279.424C243.925 282.059 239.185 280.365 239.185 280.365L238 274.981Z" fill="url(#paint0_linear_396:35)"/>
<mask id="mask0_396:35" style="mask-type:alpha" maskUnits="userSpaceOnUse" x="104" y="270" width="27" height="87">
<path d="M109.574 314.496C109.574 314.496 108.361 331.891 108.512 333.748C108.664 335.605 112.567 346.974 112.567 346.974C112.567 346.974 123.255 356.449 124.619 356.449C125.983 356.449 126.324 354.402 126.324 354.402C126.324 354.402 129.546 355.767 128.522 352.886C127.499 350.006 122.762 342.881 122.762 337.803C122.762 332.725 123.937 330.678 123.937 330.678C123.937 330.678 125.112 340.683 126.324 342.881C127.499 345.079 129.887 344.246 130.228 339.66C130.569 335.074 129.205 332.876 129.394 328.821C129.584 324.766 125.036 313.511 122.383 311.843C119.73 310.176 111.241 312.222 110.748 312.715C110.218 313.207 109.574 314.496 109.574 314.496Z" fill="#D850CB"/>
<path d="M109.5 318C109.5 318 103.116 278.456 104.139 273.302C105.162 268.148 114.712 270.005 114.03 272.316C112.097 278.721 111.773 314.408 112 316C112.227 317.592 109.5 318 109.5 318Z" fill="#D850CB"/>
</mask>
<g mask="url(#mask0_396:35)">
<path d="M112 317C112 309.4 114.167 278.5 115.5 264L96.5 261.5L90 329.5L108.5 358.5L118 354.5C116 345.167 112 324.6 112 317Z" fill="#D850CB"/>
</g>
<path d="M63.3329 58.6659C79.5331 58.6659 92.6659 45.5331 92.6659 29.3329C92.6659 13.1328 79.5331 0 63.3329 0C47.1328 0 34 13.1328 34 29.3329C34 45.5331 47.1328 58.6659 63.3329 58.6659Z" fill="#7299FF"/>
<path d="M111.539 30.3174C108.849 56.808 86.4889 77.4623 59.3161 77.4623C54.6547 77.4623 50.1448 76.8559 45.8245 75.719" stroke="#7299FF" stroke-miterlimit="10"/>
<path d="M118.778 73.6357C104.68 90.8035 83.3054 101.794 59.3161 101.794C56.0948 101.794 52.9113 101.604 49.8037 101.225" stroke="#7299FF" stroke-miterlimit="10"/>
<path d="M91.3016 132.832C81.1829 135.826 70.4578 137.456 59.3537 137.456C58.1031 137.456 56.8524 137.418 55.6018 137.38" stroke="#7299FF" stroke-miterlimit="10"/>
<path d="M139.129 104.181C135.49 107.857 131.587 111.268 127.494 114.413" stroke="#7299FF" stroke-miterlimit="10"/>
<path d="M88.5355 186.988C80.4254 188.428 72.1258 189.3 63.6746 189.527" stroke="#7299FF" stroke-miterlimit="10"/>
<path d="M66.5168 46.8426C74.2401 46.8426 80.5011 40.5817 80.5011 32.8583C80.5011 25.135 74.2401 18.874 66.5168 18.874C58.7935 18.874 52.5325 25.135 52.5325 32.8583C52.5325 40.5817 58.7935 46.8426 66.5168 46.8426Z" fill="#F3F3F3"/>
<path d="M67.3507 43.2796C72.3322 43.2796 76.3704 39.2414 76.3704 34.2599C76.3704 29.2785 72.3322 25.2402 67.3507 25.2402C62.3693 25.2402 58.3311 29.2785 58.3311 34.2599C58.3311 39.2414 62.3693 43.2796 67.3507 43.2796Z" fill="#3D2971"/>
<path d="M67.957 39.5657C70.3849 39.5657 72.3531 37.5975 72.3531 35.1696C72.3531 32.7417 70.3849 30.7734 67.957 30.7734C65.529 30.7734 63.5608 32.7417 63.5608 35.1696C63.5608 37.5975 65.529 39.5657 67.957 39.5657Z" fill="#7299FF"/>
<path d="M40.2917 40.248L72.8081 247.89" stroke="#7299FF" stroke-miterlimit="10"/>
<path d="M80.5386 12.7334L122.491 36.7227" stroke="#7299FF" stroke-miterlimit="10"/>
<path d="M59.6191 54.4961L91.946 149.923" stroke="#7299FF" stroke-miterlimit="10"/>
<path d="M76.2944 50.0254L116.239 114.149" stroke="#7299FF" stroke-miterlimit="10"/>
<path d="M89.4072 36.4199L117.641 65.6771" stroke="#7299FF" stroke-miterlimit="10"/>
<defs>
<linearGradient id="paint0_linear_396:35" x1="237.984" y1="273.999" x2="257.96" y2="273.999" gradientUnits="userSpaceOnUse">
<stop offset="0.0165344" stop-color="white"/>
<stop offset="0.3112" stop-color="#7299FF"/>
<stop offset="0.4272" stop-color="#7698FE"/>
<stop offset="0.5434" stop-color="#8293FD"/>
<stop offset="0.6598" stop-color="#968CFA"/>
<stop offset="0.7763" stop-color="#B281F6"/>
<stop offset="0.8917" stop-color="#D674F1"/>
<stop offset="1" stop-color="#FF65EB"/>
</linearGradient>
</defs>
</svg>
