<svg width="263" height="147" viewBox="0 0 263 147" fill="none" xmlns="http://www.w3.org/2000/svg">
<path d="M5.49519 103.977H2.53916V95.4119L0 97.0415V94.1234L2.76655 92.2285H5.4573V103.977H5.49519Z" fill="#2D2059"/>
<path d="M12.8848 92C13.8701 92 14.7039 92.2653 15.4619 92.758C16.2198 93.2506 16.7883 93.9707 17.1673 94.8802C17.5841 95.7898 17.7736 96.8509 17.7736 98.1015C17.7736 99.3143 17.5841 100.375 17.1673 101.323C16.7504 102.232 16.1819 102.952 15.4619 103.445C14.7039 103.938 13.8701 104.203 12.8848 104.203C11.8994 104.203 11.0657 103.938 10.3077 103.445C9.54979 102.952 8.98132 102.232 8.60234 101.323C8.18546 100.413 7.99597 99.3522 7.99597 98.1015C7.99597 96.8888 8.18546 95.8277 8.60234 94.8802C9.01922 93.9707 9.58768 93.2506 10.3077 92.758C11.0657 92.2653 11.8994 92 12.8848 92ZM12.8848 101.626C13.3017 101.626 13.6807 101.474 13.9459 101.171C14.2112 100.868 14.4386 100.451 14.5902 99.9207C14.7418 99.3901 14.8176 98.7837 14.8176 98.1015C14.8176 97.4194 14.7418 96.813 14.5902 96.2825C14.4386 95.7519 14.2491 95.335 13.9459 95.0318C13.6428 94.7286 13.3017 94.577 12.8848 94.577C12.4679 94.577 12.0889 94.7286 11.8237 95.0318C11.5584 95.335 11.331 95.7519 11.1794 96.2825C11.0278 96.813 10.952 97.4194 10.952 98.1015C10.952 98.7837 11.0278 99.3901 11.1794 99.9207C11.331 100.451 11.5205 100.868 11.8237 101.171C12.1268 101.474 12.43 101.626 12.8848 101.626Z" fill="#2D2059"/>
<path d="M24.7101 92C25.6955 92 26.5292 92.2653 27.2872 92.758C28.0451 93.2506 28.6136 93.9707 28.9926 94.8802C29.4094 95.7898 29.5989 96.8509 29.5989 98.1015C29.5989 99.3143 29.4094 100.375 28.9926 101.323C28.5757 102.232 28.0072 102.952 27.2872 103.445C26.5292 103.938 25.6955 104.203 24.7101 104.203C23.7248 104.203 22.891 103.938 22.1331 103.445C21.3751 102.952 20.8066 102.232 20.4277 101.323C20.0108 100.413 19.8213 99.3522 19.8213 98.1015C19.8213 96.8888 20.0108 95.8277 20.4277 94.8802C20.8445 93.9707 21.413 93.2506 22.1331 92.758C22.891 92.2653 23.7248 92 24.7101 92ZM24.7101 101.626C25.127 101.626 25.506 101.474 25.7712 101.171C26.0365 100.868 26.2639 100.451 26.4155 99.9207C26.5671 99.3901 26.6429 98.7837 26.6429 98.1015C26.6429 97.4194 26.5671 96.813 26.4155 96.2825C26.2639 95.7519 26.0744 95.335 25.7712 95.0318C25.4681 94.7286 25.127 94.577 24.7101 94.577C24.2932 94.577 23.9143 94.7286 23.649 95.0318C23.3837 95.335 23.1563 95.7519 23.0047 96.2825C22.8531 96.813 22.7773 97.4194 22.7773 98.1015C22.7773 98.7837 22.8531 99.3901 23.0047 99.9207C23.1563 100.451 23.3458 100.868 23.649 101.171C23.9522 101.474 24.2553 101.626 24.7101 101.626Z" fill="#2D2059"/>
<path d="M32.8954 100.943C33.3502 100.943 33.7292 101.095 34.0702 101.436C34.3734 101.739 34.5629 102.156 34.5629 102.611C34.5629 103.066 34.4113 103.445 34.0702 103.786C33.7671 104.089 33.3502 104.278 32.8954 104.278C32.4406 104.278 32.0238 104.127 31.7206 103.786C31.4174 103.483 31.2279 103.066 31.2279 102.611C31.2279 102.156 31.3795 101.777 31.7206 101.436C32.0238 101.095 32.4406 100.943 32.8954 100.943Z" fill="#2D2059"/>
<path d="M38.1636 100.943C38.6184 100.943 38.9974 101.095 39.3384 101.436C39.6416 101.739 39.8311 102.156 39.8311 102.611C39.8311 103.066 39.6795 103.445 39.3384 103.786C39.0352 104.089 38.6184 104.278 38.1636 104.278C37.7088 104.278 37.292 104.127 36.9888 103.786C36.6856 103.483 36.4961 103.066 36.4961 102.611C36.4961 102.156 36.6477 101.777 36.9888 101.436C37.292 101.095 37.6709 100.943 38.1636 100.943Z" fill="#2D2059"/>
<path d="M43.3937 100.943C43.8485 100.943 44.2275 101.095 44.5685 101.436C44.8717 101.739 45.0612 102.156 45.0612 102.611C45.0612 103.066 44.9096 103.445 44.5685 103.786C44.2654 104.089 43.8485 104.278 43.3937 104.278C42.9389 104.278 42.522 104.127 42.2189 103.786C41.9157 103.483 41.7262 103.066 41.7262 102.611C41.7262 102.156 41.8778 101.777 42.2189 101.436C42.5599 101.095 42.9389 100.943 43.3937 100.943Z" fill="#2D2059"/>
<path d="M51.2002 103.977H48.2821V95.4119L45.7429 97.0415V94.1234L48.5095 92.2285H51.2002V103.977Z" fill="#2D2059"/>
<path d="M58.6657 103.977H55.7475V95.4119L53.2084 97.0415V94.1234L55.9749 92.2285H58.6657V103.977Z" fill="#2D2059"/>
<path d="M66.1697 103.977H63.2516V95.4119L60.7124 97.0415V94.1234L63.4789 92.2285H66.1697V103.977Z" fill="#2D2059"/>
<path d="M73.5601 92C74.5454 92 75.3792 92.2653 76.1371 92.758C76.8951 93.2506 77.4636 93.9707 77.8425 94.8802C78.2594 95.7898 78.4489 96.8509 78.4489 98.1015C78.4489 99.3143 78.2594 100.375 77.8425 101.323C77.4257 102.232 76.8572 102.952 76.1371 103.445C75.3792 103.938 74.5454 104.203 73.5601 104.203C72.5748 104.203 71.741 103.938 70.983 103.445C70.2251 102.952 69.6566 102.232 69.2776 101.323C68.8607 100.413 68.6713 99.3522 68.6713 98.1015C68.6713 96.8888 68.8607 95.8277 69.2776 94.8802C69.6945 93.9707 70.263 93.2506 70.983 92.758C71.741 92.2653 72.5748 92 73.5601 92ZM73.5601 101.626C73.977 101.626 74.3559 101.474 74.6212 101.171C74.8865 100.868 75.1139 100.451 75.2655 99.9207C75.4171 99.3901 75.4929 98.7837 75.4929 98.1015C75.4929 97.4194 75.4171 96.813 75.2655 96.2825C75.1139 95.7519 74.9244 95.335 74.6212 95.0318C74.318 94.7286 73.977 94.577 73.5601 94.577C73.1432 94.577 72.7642 94.7286 72.4989 95.0318C72.2337 95.335 72.0063 95.7519 71.8547 96.2825C71.7031 96.813 71.6273 97.4194 71.6273 98.1015C71.6273 98.7837 71.7031 99.3901 71.8547 99.9207C72.0063 100.451 72.1958 100.868 72.4989 101.171C72.8021 101.474 73.1053 101.626 73.5601 101.626Z" fill="#2D2059"/>
<path d="M85.6107 103.977H82.6926V95.4119L80.1534 97.0415V94.1234L82.92 92.2285H85.6107V103.977Z" fill="#2D2059"/>
<path d="M93.0013 92C93.9866 92 94.8204 92.2653 95.5783 92.758C96.3363 93.2506 96.9047 93.9707 97.2837 94.8802C97.7006 95.7898 97.8901 96.8509 97.8901 98.1015C97.8901 99.3143 97.7006 100.375 97.2837 101.323C96.8668 102.232 96.2984 102.952 95.5783 103.445C94.8204 103.938 93.9866 104.203 93.0013 104.203C92.0159 104.203 91.1822 103.938 90.4242 103.445C89.6663 102.952 89.0978 102.232 88.7188 101.323C88.3019 100.413 88.1124 99.3522 88.1124 98.1015C88.1124 96.8888 88.3019 95.8277 88.7188 94.8802C89.1357 93.9707 89.7042 93.2506 90.4242 92.758C91.1822 92.2653 92.0159 92 93.0013 92ZM93.0013 101.626C93.4181 101.626 93.7971 101.474 94.0624 101.171C94.3656 100.868 94.5551 100.451 94.7067 99.9207C94.8583 99.3901 94.934 98.7837 94.934 98.1015C94.934 97.4194 94.8583 96.813 94.7067 96.2825C94.5551 95.7519 94.3656 95.335 94.0624 95.0318C93.7592 94.7286 93.4181 94.577 93.0013 94.577C92.5844 94.577 92.2054 94.7286 91.9401 95.0318C91.6369 95.335 91.4474 95.7519 91.2959 96.2825C91.1443 96.813 91.0685 97.4194 91.0685 98.1015C91.0685 98.7837 91.1443 99.3901 91.2959 99.9207C91.4474 100.451 91.6369 100.868 91.9401 101.171C92.2054 101.474 92.5465 101.626 93.0013 101.626Z" fill="#2D2059"/>
<path d="M105.015 103.977H102.097V95.4119L99.558 97.0415V94.1234L102.325 92.2285H105.015V103.977Z" fill="#2D2059"/>
<path d="M112.519 103.977H109.601V95.4119L107.062 97.0415V94.1234L109.829 92.2285H112.519V103.977Z" fill="#2D2059"/>
<path d="M34.6393 113.223C35.6247 113.223 36.4584 113.488 37.2164 113.981C37.9743 114.473 38.5428 115.193 38.9218 116.103C39.3386 117.012 39.5281 118.074 39.5281 119.324C39.5281 120.537 39.3386 121.598 38.9218 122.546C38.5049 123.455 37.9364 124.175 37.2164 124.668C36.4584 125.16 35.6247 125.426 34.6393 125.426C33.654 125.426 32.8202 125.16 32.0623 124.668C31.3043 124.175 30.7358 123.455 30.3569 122.546C29.94 121.636 29.7505 120.575 29.7505 119.324C29.7505 118.111 29.94 117.05 30.3569 116.103C30.7737 115.193 31.3422 114.473 32.0623 113.981C32.8202 113.488 33.6919 113.223 34.6393 113.223ZM34.6393 122.849C35.0562 122.849 35.4352 122.697 35.7005 122.394C36.0036 122.091 36.1931 121.674 36.3447 121.143C36.4963 120.613 36.5721 120.006 36.5721 119.324C36.5721 118.642 36.4963 118.036 36.3447 117.505C36.1931 116.975 36.0036 116.558 35.7005 116.254C35.3973 115.951 35.0562 115.8 34.6393 115.8C34.2224 115.8 33.8435 115.951 33.5782 116.254C33.275 116.558 33.0855 116.975 32.9339 117.505C32.7823 118.036 32.7065 118.642 32.7065 119.324C32.7065 120.006 32.7823 120.613 32.9339 121.143C33.0855 121.674 33.275 122.091 33.5782 122.394C33.8435 122.697 34.2224 122.849 34.6393 122.849Z" fill="#2D2059"/>
<path d="M46.4627 113.223C47.448 113.223 48.2818 113.488 49.0397 113.981C49.7977 114.473 50.3662 115.193 50.7451 116.103C51.162 117.012 51.3515 118.074 51.3515 119.324C51.3515 120.537 51.162 121.598 50.7451 122.546C50.3283 123.455 49.7598 124.175 49.0397 124.668C48.2818 125.16 47.448 125.426 46.4627 125.426C45.4773 125.426 44.6436 125.16 43.8856 124.668C43.1277 124.175 42.5592 123.455 42.1802 122.546C41.7633 121.636 41.5739 120.575 41.5739 119.324C41.5739 118.111 41.7633 117.05 42.1802 116.103C42.5971 115.193 43.1656 114.473 43.8856 113.981C44.6436 113.488 45.5152 113.223 46.4627 113.223ZM46.4627 122.849C46.8796 122.849 47.2585 122.697 47.5238 122.394C47.827 122.091 48.0165 121.674 48.1681 121.143C48.3197 120.613 48.3955 120.006 48.3955 119.324C48.3955 118.642 48.3197 118.036 48.1681 117.505C48.0165 116.975 47.827 116.558 47.5238 116.254C47.2206 115.951 46.8796 115.8 46.4627 115.8C46.0458 115.8 45.6668 115.951 45.4015 116.254C45.0983 116.558 44.9089 116.975 44.7573 117.505C44.6057 118.036 44.5299 118.642 44.5299 119.324C44.5299 120.006 44.6057 120.613 44.7573 121.143C44.9089 121.674 45.0983 122.091 45.4015 122.394C45.6668 122.697 46.0458 122.849 46.4627 122.849Z" fill="#2D2059"/>
<path d="M58.5144 125.198H55.5963V116.633L53.0571 118.262V115.344L55.8237 113.449H58.5144V125.198Z" fill="#2D2059"/>
<path d="M65.9043 113.223C66.8897 113.223 67.7234 113.488 68.4814 113.981C69.2393 114.473 69.8078 115.193 70.1868 116.103C70.6037 117.012 70.7931 118.074 70.7931 119.324C70.7931 120.537 70.6037 121.598 70.1868 122.546C69.7699 123.455 69.2014 124.175 68.4814 124.668C67.7234 125.16 66.8897 125.426 65.9043 125.426C64.919 125.426 64.0852 125.16 63.3273 124.668C62.5693 124.175 62.0009 123.455 61.6219 122.546C61.205 121.636 61.0155 120.575 61.0155 119.324C61.0155 118.111 61.205 117.05 61.6219 116.103C62.0388 115.193 62.6072 114.473 63.3273 113.981C64.0852 113.488 64.919 113.223 65.9043 113.223ZM65.9043 122.849C66.3212 122.849 66.7002 122.697 66.9655 122.394C67.2687 122.091 67.4581 121.674 67.6097 121.143C67.7613 120.613 67.8371 120.006 67.8371 119.324C67.8371 118.642 67.7613 118.036 67.6097 117.505C67.4581 116.975 67.2687 116.558 66.9655 116.254C66.6623 115.951 66.3212 115.8 65.9043 115.8C65.4875 115.8 65.1085 115.951 64.8432 116.254C64.54 116.558 64.3505 116.975 64.1989 117.505C64.0473 118.036 63.9715 118.642 63.9715 119.324C63.9715 120.006 64.0473 120.613 64.1989 121.143C64.3505 121.674 64.54 122.091 64.8432 122.394C65.1085 122.697 65.4875 122.849 65.9043 122.849Z" fill="#2D2059"/>
<path d="M77.9564 125.198H75.0383V116.633L72.4991 118.262V115.344L75.2657 113.449H77.9564V125.198Z" fill="#2D2059"/>
<path d="M82.2383 122.166C82.6931 122.166 83.0721 122.318 83.4131 122.659C83.7163 122.962 83.9058 123.379 83.9058 123.834C83.9058 124.288 83.7542 124.667 83.4131 125.008C83.11 125.312 82.6931 125.501 82.2383 125.501C81.7835 125.501 81.3667 125.349 81.0635 125.008C80.7603 124.705 80.5708 124.288 80.5708 123.834C80.5708 123.379 80.7224 123 81.0635 122.659C81.3667 122.318 81.7835 122.166 82.2383 122.166Z" fill="#2D2059"/>
<path d="M87.5065 122.166C87.9613 122.166 88.3402 122.318 88.6813 122.659C88.9845 122.962 89.174 123.379 89.174 123.834C89.174 124.288 89.0224 124.667 88.6813 125.008C88.3781 125.312 87.9613 125.501 87.5065 125.501C87.0517 125.501 86.6348 125.349 86.3317 125.008C86.0285 124.705 85.839 124.288 85.839 123.834C85.839 123.379 85.9906 123 86.3317 122.659C86.6348 122.318 87.0138 122.166 87.5065 122.166Z" fill="#2D2059"/>
<path d="M92.7356 122.166C93.1904 122.166 93.5694 122.318 93.9105 122.659C94.2136 122.962 94.4031 123.379 94.4031 123.834C94.4031 124.288 94.2515 124.667 93.9105 125.008C93.6073 125.312 93.1904 125.501 92.7356 125.501C92.2809 125.501 91.864 125.349 91.5608 125.008C91.2576 124.705 91.0681 124.288 91.0681 123.834C91.0681 123.379 91.2197 123 91.5608 122.659C91.9019 122.318 92.2809 122.166 92.7356 122.166Z" fill="#2D2059"/>
<path d="M100.544 125.198H97.6256V116.633L95.0864 118.262V115.344L97.853 113.449H100.544V125.198Z" fill="#2D2059"/>
<path d="M17.7361 134.445C18.7215 134.445 19.5552 134.711 20.3132 135.203C21.0711 135.696 21.6396 136.416 22.0186 137.326C22.4354 138.235 22.6249 139.296 22.6249 140.547C22.6249 141.76 22.4354 142.821 22.0186 143.768C21.6017 144.678 21.0332 145.398 20.3132 145.89C19.5552 146.383 18.7215 146.648 17.7361 146.648C16.7508 146.648 15.917 146.383 15.159 145.89C14.4011 145.398 13.8326 144.678 13.4536 143.768C13.0368 142.859 12.8473 141.797 12.8473 140.547C12.8473 139.334 13.0368 138.273 13.4536 137.326C13.8705 136.416 14.439 135.696 15.159 135.203C15.917 134.711 16.7508 134.445 17.7361 134.445ZM17.7361 144.071C18.153 144.071 18.532 143.92 18.7972 143.617C19.0625 143.313 19.2899 142.897 19.4415 142.366C19.5931 141.835 19.6689 141.229 19.6689 140.547C19.6689 139.865 19.5931 139.258 19.4415 138.728C19.2899 138.197 19.1004 137.78 18.7972 137.477C18.4941 137.174 18.153 137.022 17.7361 137.022C17.3192 137.022 16.9402 137.174 16.675 137.477C16.4097 137.78 16.1823 138.197 16.0307 138.728C15.8791 139.258 15.8033 139.865 15.8033 140.547C15.8033 141.229 15.8791 141.835 16.0307 142.366C16.1823 142.897 16.3718 143.313 16.675 143.617C16.9781 143.92 17.2813 144.071 17.7361 144.071Z" fill="#2D2059"/>
<path d="M29.5601 134.445C30.5454 134.445 31.3792 134.711 32.1371 135.203C32.8951 135.696 33.4636 136.416 33.8425 137.326C34.2594 138.235 34.4489 139.296 34.4489 140.547C34.4489 141.76 34.2594 142.821 33.8425 143.768C33.4257 144.678 32.8572 145.398 32.1371 145.89C31.3792 146.383 30.5454 146.648 29.5601 146.648C28.5747 146.648 27.741 146.383 26.983 145.89C26.2251 145.398 25.6566 144.678 25.2776 143.768C24.8608 142.859 24.6713 141.797 24.6713 140.547C24.6713 139.334 24.8608 138.273 25.2776 137.326C25.6945 136.416 26.263 135.696 26.983 135.203C27.7031 134.711 28.5747 134.445 29.5601 134.445ZM29.5601 144.071C29.977 144.071 30.3559 143.92 30.6212 143.617C30.8865 143.313 31.1139 142.897 31.2655 142.366C31.4171 141.835 31.4929 141.229 31.4929 140.547C31.4929 139.865 31.4171 139.258 31.2655 138.728C31.1139 138.197 30.9244 137.78 30.6212 137.477C30.318 137.174 29.977 137.022 29.5601 137.022C29.1432 137.022 28.7642 137.174 28.499 137.477C28.2337 137.78 28.0063 138.197 27.8547 138.728C27.7031 139.258 27.6273 139.865 27.6273 140.547C27.6273 141.229 27.7031 141.835 27.8547 142.366C28.0063 142.897 28.1958 143.313 28.499 143.617C28.8021 143.92 29.1053 144.071 29.5601 144.071Z" fill="#2D2059"/>
<path d="M41.5736 146.421H38.6555V137.856L36.1163 139.486V136.568L38.8829 134.673H41.5736V146.421Z" fill="#2D2059"/>
<path d="M49.078 146.421H46.1219V137.856L43.5828 139.486V136.568L46.3493 134.673H49.0401V146.421H49.078Z" fill="#2D2059"/>
<path d="M53.3605 143.391C53.8153 143.391 54.1943 143.542 54.5353 143.883C54.8385 144.186 55.028 144.603 55.028 145.058C55.028 145.513 54.8764 145.892 54.5353 146.233C54.2321 146.536 53.8153 146.726 53.3605 146.726C52.9057 146.726 52.4888 146.574 52.1857 146.233C51.8825 145.93 51.693 145.513 51.693 145.058C51.693 144.603 51.8446 144.224 52.1857 143.883C52.4888 143.542 52.9057 143.391 53.3605 143.391Z" fill="#2D2059"/>
<path d="M58.6277 143.391C59.0825 143.391 59.4615 143.542 59.8025 143.883C60.1057 144.186 60.2952 144.603 60.2952 145.058C60.2952 145.513 60.1436 145.892 59.8025 146.233C59.4994 146.536 59.0825 146.726 58.6277 146.726C58.1729 146.726 57.7561 146.574 57.4529 146.233C57.1497 145.93 56.9602 145.513 56.9602 145.058C56.9602 144.603 57.1118 144.224 57.4529 143.883C57.7561 143.542 58.135 143.391 58.6277 143.391Z" fill="#2D2059"/>
<path d="M63.8578 143.391C64.3126 143.391 64.6916 143.542 65.0326 143.883C65.3358 144.186 65.5253 144.603 65.5253 145.058C65.5253 145.513 65.3737 145.892 65.0326 146.233C64.7295 146.536 64.3126 146.726 63.8578 146.726C63.403 146.726 62.9862 146.574 62.683 146.233C62.3798 145.93 62.1903 145.513 62.1903 145.058C62.1903 144.603 62.3419 144.224 62.683 143.883C62.9862 143.542 63.403 143.391 63.8578 143.391Z" fill="#2D2059"/>
<path d="M69.126 143.391C69.5808 143.391 69.9598 143.542 70.3008 143.883C70.604 144.186 70.7935 144.603 70.7935 145.058C70.7935 145.513 70.6419 145.892 70.3008 146.233C69.9977 146.536 69.5808 146.726 69.126 146.726C68.6712 146.726 68.2543 146.574 67.9512 146.233C67.648 145.93 67.4585 145.513 67.4585 145.058C67.4585 144.603 67.6101 144.224 67.9512 143.883C68.2543 143.542 68.6712 143.391 69.126 143.391Z" fill="#2D2059"/>
<path d="M76.8949 146.421H73.9768V137.856L71.4376 139.486V136.568L74.2042 134.673H76.8949V146.421Z" fill="#2D2059"/>
<path d="M84.3229 134.445C85.3082 134.445 86.142 134.711 86.8999 135.203C87.6579 135.696 88.2264 136.416 88.6053 137.326C89.0222 138.235 89.2117 139.296 89.2117 140.547C89.2117 141.76 89.0222 142.821 88.6053 143.768C88.1885 144.678 87.62 145.398 86.8999 145.89C86.142 146.383 85.3082 146.648 84.3229 146.648C83.3375 146.648 82.5038 146.383 81.7458 145.89C80.9879 145.398 80.4194 144.678 80.0404 143.768C79.6236 142.859 79.4341 141.797 79.4341 140.547C79.4341 139.334 79.6236 138.273 80.0404 137.326C80.4573 136.416 81.0258 135.696 81.7458 135.203C82.5038 134.711 83.3375 134.445 84.3229 134.445ZM84.3229 144.071C84.7398 144.071 85.1187 143.92 85.384 143.617C85.6872 143.313 85.8767 142.897 86.0283 142.366C86.1799 141.835 86.2557 141.229 86.2557 140.547C86.2557 139.865 86.1799 139.258 86.0283 138.728C85.8767 138.197 85.6872 137.78 85.384 137.477C85.0808 137.174 84.7398 137.022 84.3229 137.022C83.906 137.022 83.527 137.174 83.2618 137.477C82.9586 137.78 82.7691 138.197 82.6175 138.728C82.4659 139.258 82.3901 139.865 82.3901 140.547C82.3901 141.229 82.4659 141.835 82.6175 142.366C82.7691 142.897 82.9586 143.313 83.2618 143.617C83.527 143.92 83.8681 144.071 84.3229 144.071Z" fill="#2D2059"/>
<path d="M96.3361 146.421H93.4179V137.856L90.8788 139.486V136.568L93.6453 134.673H96.3361V146.421Z" fill="#2D2059"/>
<path d="M103.765 134.445C104.75 134.445 105.584 134.711 106.342 135.203C107.1 135.696 107.668 136.416 108.047 137.326C108.464 138.235 108.653 139.296 108.653 140.547C108.653 141.76 108.464 142.821 108.047 143.768C107.63 144.678 107.062 145.398 106.342 145.89C105.584 146.383 104.75 146.648 103.765 146.648C102.779 146.648 101.945 146.383 101.187 145.89C100.43 145.398 99.8611 144.678 99.4821 143.768C99.0652 142.859 98.8757 141.797 98.8757 140.547C98.8757 139.334 99.0652 138.273 99.4821 137.326C99.899 136.416 100.467 135.696 101.187 135.203C101.908 134.711 102.779 134.445 103.765 134.445ZM103.765 144.071C104.181 144.071 104.56 143.92 104.826 143.617C105.129 143.313 105.318 142.897 105.47 142.366C105.622 141.835 105.697 141.229 105.697 140.547C105.697 139.865 105.622 139.258 105.47 138.728C105.318 138.197 105.129 137.78 104.826 137.477C104.523 137.174 104.181 137.022 103.765 137.022C103.348 137.022 102.969 137.174 102.703 137.477C102.4 137.78 102.211 138.197 102.059 138.728C101.908 139.258 101.832 139.865 101.832 140.547C101.832 141.229 101.908 141.835 102.059 142.366C102.211 142.897 102.4 143.313 102.703 143.617C102.969 143.92 103.31 144.071 103.765 144.071Z" fill="#2D2059"/>
<path d="M115.778 146.421H112.86V137.856L110.321 139.486V136.568L113.087 134.673H115.778V146.421Z" fill="#2D2059"/>
<path d="M123.282 146.421H120.364V137.856L117.824 139.486V136.568L120.591 134.673H123.282V146.421Z" fill="#2D2059"/>
<path d="M130.748 146.421H127.829V137.856L125.29 139.486V136.568L128.057 134.673H130.748V146.421Z" fill="#2D2059"/>
<path d="M138.138 134.445C139.123 134.445 139.957 134.711 140.715 135.203C141.473 135.696 142.042 136.416 142.421 137.326C142.837 138.235 143.027 139.296 143.027 140.547C143.027 141.76 142.837 142.821 142.421 143.768C142.004 144.678 141.435 145.398 140.715 145.89C139.957 146.383 139.123 146.648 138.138 146.648C137.153 146.648 136.319 146.383 135.561 145.89C134.803 145.398 134.235 144.678 133.856 143.768C133.439 142.859 133.249 141.797 133.249 140.547C133.249 139.334 133.439 138.273 133.856 137.326C134.273 136.416 134.841 135.696 135.561 135.203C136.319 134.711 137.191 134.445 138.138 134.445ZM138.138 144.071C138.555 144.071 138.934 143.92 139.199 143.617C139.464 143.313 139.692 142.897 139.843 142.366C139.995 141.835 140.071 141.229 140.071 140.547C140.071 139.865 139.995 139.258 139.843 138.728C139.692 138.197 139.502 137.78 139.199 137.477C138.896 137.174 138.555 137.022 138.138 137.022C137.721 137.022 137.342 137.174 137.077 137.477C136.812 137.78 136.584 138.197 136.433 138.728C136.281 139.258 136.205 139.865 136.205 140.547C136.205 141.229 136.281 141.835 136.433 142.366C136.584 142.897 136.774 143.313 137.077 143.617C137.38 143.92 137.721 144.071 138.138 144.071Z" fill="#2D2059"/>
<path d="M263 22.8234C263 26.478 260.985 32.7167 259.465 35.8176C257.944 38.9185 253.079 47.9998 248.973 47.9998C247.605 47.9998 243.994 47.446 243.994 47.446C243.994 47.446 239.47 47.0769 240.269 44.1975C241.067 41.3181 247.377 34.1195 246.997 29.1728C246.617 24.2262 245.286 22.3435 245.286 22.3435C245.286 22.3435 245.248 33.3812 244.222 35.6331C243.196 37.848 239.09 39.583 238.406 35.1532C237.722 30.7233 238.482 24.5953 238.026 20.6454C237.646 17.5445 240.796 6.98611 243 2.99924C243.608 1.92869 244.968 1.40607 245.5 1C246.451 0.298605 248.524 0 250.5 0C253.655 0 257.658 1.70468 258 2C258.532 2.44299 259 5 259 5C259 5 259.367 6.5 259.5 7.5C259.804 9.78876 263 21.1622 263 22.8234Z" fill="#D850CB"/>
<path d="M247 12L250 24" stroke="white" stroke-width="4" stroke-miterlimit="10" stroke-linecap="round" stroke-linejoin="round"/>
<path d="M251 12L254 24" stroke="white" stroke-width="4" stroke-miterlimit="10" stroke-linecap="round" stroke-linejoin="round"/>
<path d="M254 12L257 23" stroke="white" stroke-width="4" stroke-miterlimit="10" stroke-linecap="round" stroke-linejoin="round"/>
<path d="M257 12L260 23" stroke="white" stroke-width="4" stroke-miterlimit="10" stroke-linecap="round" stroke-linejoin="round"/>
<path d="M242 47C242 47 248.024 41.2071 251 30" stroke="#3D2971" stroke-miterlimit="10" stroke-linecap="round" stroke-linejoin="round"/>
<path d="M245 48C245 48 251.024 42.2071 254 31" stroke="#3D2971" stroke-miterlimit="10" stroke-linecap="round" stroke-linejoin="round"/>
<path d="M248 48C248 48 254.693 42.2071 258 31" stroke="#3D2971" stroke-miterlimit="10" stroke-linecap="round" stroke-linejoin="round"/>
<path d="M246.879 28.4158C246.879 28.4158 247.713 19.2356 245.003 16C245.003 16 243.057 17.5426 244.586 35C244.586 35 245.431 33.6099 245.5 23C245.5 23 246.636 24.8416 246.879 28.4158Z" fill="#3D2971"/>
<mask id="mask0_396:31" style="mask-type:alpha" maskUnits="userSpaceOnUse" x="109" y="12" width="22" height="46">
<path d="M110.074 15.2957C110.074 15.2957 108.862 32.6908 109.013 34.5478C109.165 36.4048 113.068 47.7741 113.068 47.7741C113.068 47.7741 123.755 57.2486 125.12 57.2486C126.484 57.2486 126.825 55.2021 126.825 55.2021C126.825 55.2021 130.046 56.5664 129.023 53.6862C128 50.8059 123.263 43.6812 123.263 38.6028C123.263 33.5245 124.438 31.4781 124.438 31.4781C124.438 31.4781 125.612 41.4831 126.825 43.6811C128 45.8792 130.388 45.0455 130.729 40.4598C131.07 35.8742 129.705 33.6761 129.895 29.621C130.084 25.566 125.537 14.3103 122.884 12.6428C120.231 10.9753 111.742 13.0218 111.249 13.5145C110.719 14.0071 110.074 15.2957 110.074 15.2957Z" fill="#D850CB"/>
</mask>
<g mask="url(#mask0_396:31)">
<path d="M118.001 53.2998C115.501 41.2998 112.501 23.2998 112.501 12.2998L103.501 11.2998L106.501 49.2998L118.001 53.2998Z" fill="#D850CB"/>
</g>
</svg>
