<svg width="155" height="58" viewBox="0 0 155 58" fill="none" xmlns="http://www.w3.org/2000/svg">
<path d="M155 23.8241C155 27.4787 152.985 33.7174 151.465 36.8183C149.944 39.9192 145.079 49.0004 140.973 49.0004C139.605 49.0004 135.994 48.4467 135.994 48.4467C135.994 48.4467 131.47 48.0775 132.269 45.1981C133.067 42.3187 139.377 35.1202 138.997 30.1735C138.617 25.2268 137.286 23.3442 137.286 23.3442C137.286 23.3442 137.248 34.3819 136.222 36.6337C135.196 38.8487 131.09 40.5837 130.406 36.1538C129.722 31.724 130.482 25.596 130.026 21.6461C129.646 18.5451 132.796 7.98679 135 3.99992C135.608 2.92937 136.968 1.90601 137.5 1.49994C138.451 0.798544 141.024 1.00065 143 1.00065C146.155 1.00065 148.658 2.20468 149 2.5C149.532 2.94299 151 4.5 151 4.5C151 4.5 151.962 7.31542 152 7.5C152.304 9.78876 155 22.1629 155 23.8241Z" fill="#D850CB"/>
<path d="M134 48C134 48 140.024 42.2071 143 31" stroke="#3D2971" stroke-miterlimit="10" stroke-linecap="round" stroke-linejoin="round"/>
<path d="M137 49C137 49 143.024 43.2071 146 32" stroke="#3D2971" stroke-miterlimit="10" stroke-linecap="round" stroke-linejoin="round"/>
<path d="M140 49C140 49 146.693 43.2071 150 32" stroke="#3D2971" stroke-miterlimit="10" stroke-linecap="round" stroke-linejoin="round"/>
<path d="M138.879 29.4158C138.879 29.4158 139.713 20.2356 137.003 17C137.003 17 135.057 18.5426 136.586 36C136.586 36 137.431 34.6099 137.5 24C137.5 24 138.636 25.8416 138.879 29.4158Z" fill="#3D2971"/>
<mask id="mask0_396:29" style="mask-type:alpha" maskUnits="userSpaceOnUse" x="0" y="12" width="23" height="46">
<path d="M1.57366 15.4959C1.57366 15.4959 0.360912 32.891 0.512503 34.748C0.664094 36.605 4.56758 47.9743 4.56758 47.9743C4.56758 47.9743 15.2548 57.4488 16.6191 57.4488C17.9834 57.4488 18.3245 55.4023 18.3245 55.4023C18.3245 55.4023 21.5458 56.7666 20.5226 53.8864C19.4993 51.0061 14.7621 43.8813 14.7621 38.803C14.7621 33.7247 15.9369 31.6782 15.9369 31.6782C15.9369 31.6782 17.1118 41.6833 18.3245 43.8813C19.4993 46.0794 21.8869 45.2457 22.228 40.66C22.5691 36.0744 21.2047 33.8763 21.3942 29.8212C21.5837 25.7662 17.036 14.5105 14.3831 12.843C11.7303 11.1755 3.24116 13.222 2.74849 13.7147C2.21792 14.2073 1.57366 15.4959 1.57366 15.4959Z" fill="#D850CB"/>
</mask>
<g mask="url(#mask0_396:29)">
<path d="M9.5 53.5C7 41.5 4 23.5 4 12.5L-5 11.5L-2 49.5L9.5 53.5Z" fill="#D850CB"/>
</g>
</svg>
