<svg width="50" height="50" viewBox="0 0 50 50" fill="none" xmlns="http://www.w3.org/2000/svg">
<rect width="50" height="50" rx="10" fill="#FAE205"/>
<circle cx="25" cy="25" r="25" fill="black"/>
<path d="M25 0C11.193 0 0 11.193 0 25C0 38.807 11.193 50 25 50C38.807 50 50 38.807 50 25C50 11.193 38.807 0 25 0ZM38.879 19.0349V19.9029C38.879 28.5818 32.3699 38.4176 20.3642 38.4176C16.6035 38.4176 13.2767 37.4052 10.3834 35.5248C10.9618 35.6693 11.3958 35.6693 11.9743 35.6693C15.0121 35.6693 17.9049 34.6569 20.0747 32.921C17.1819 32.921 14.8676 31.0406 13.9996 28.4368C14.2891 28.5813 14.7231 28.5813 15.1571 28.5813C15.7355 28.5813 16.314 28.4368 16.8929 28.2918C13.8551 27.7133 11.6858 25.1095 11.6858 21.9272V21.7827C12.5537 22.3612 13.5662 22.6507 14.5786 22.6507C12.8427 21.4932 11.6858 19.6129 11.6858 17.2985C11.6858 15.9966 11.9753 14.9842 12.5537 13.9718C15.8805 17.877 20.6542 20.4808 26.0058 20.7703C25.8614 20.3363 25.8614 19.9024 25.8614 19.3239C25.8614 15.7076 28.7542 12.8148 32.3704 12.8148C34.2508 12.8148 35.9867 13.5383 37.1436 14.8397C38.7345 14.5502 40.0364 13.9718 41.3383 13.2488C40.7599 14.8397 39.7474 15.9971 38.4455 16.8651C39.7474 16.7206 41.0493 16.4311 42.2063 15.8526C41.3383 17.1545 40.3254 18.3115 38.879 19.0349Z" fill="#FAE205"/>
</svg>
