<svg width="50" height="50" viewBox="0 0 50 50" fill="none" xmlns="http://www.w3.org/2000/svg">
<rect width="50" height="50" rx="10" fill="#FAE205"/>
<circle cx="25" cy="25" r="25" fill="black"/>
<path d="M31.5142 12.4058H18.3617C15.0704 12.4058 12.3926 15.0836 12.3926 18.3749V31.648C12.3926 34.9393 15.0704 37.6172 18.3617 37.6172H31.5142C34.8055 37.6172 37.4833 34.9393 37.4833 31.648V18.3749C37.4833 15.0836 34.8055 12.4058 31.5142 12.4058ZM24.963 32.9591C20.5017 32.9591 16.8722 29.3682 16.8722 24.9544C16.8722 20.5407 20.5022 16.9498 24.963 16.9498C29.4239 16.9498 33.0539 20.5407 33.0539 24.9544C33.0539 29.3682 29.4244 32.9591 24.963 32.9591ZM33.1979 18.526C32.1464 18.526 31.2942 17.6737 31.2942 16.6223C31.2942 15.5708 32.1464 14.7186 33.1979 14.7186C34.2493 14.7186 35.1016 15.5708 35.1016 16.6223C35.1016 17.6737 34.2493 18.526 33.1979 18.526Z" fill="#FAE205"/>
<path d="M25 0C11.193 0 0 11.193 0 25C0 38.807 11.193 50 25 50C38.807 50 50 38.807 50 25C50 11.193 38.807 0 25 0ZM40.4359 31.648C40.4359 36.5677 36.4333 40.5697 31.5141 40.5697H18.3617C13.442 40.5697 9.43989 36.5672 9.43989 31.648V18.3748C9.43989 13.4551 13.4425 9.45307 18.3617 9.45307H31.5141C36.4338 9.45307 40.4359 13.4557 40.4359 18.3748V31.648Z" fill="#FAE205"/>
<path d="M24.9631 19.897C22.1266 19.897 19.8193 22.1657 19.8193 24.9546C19.8193 27.7434 22.1266 30.0122 24.9631 30.0122C27.7996 30.0122 30.1069 27.7434 30.1069 24.9546C30.1069 22.1657 27.7996 19.897 24.9631 19.897Z" fill="#FAE205"/>
</svg>
