<svg width="159" height="63" viewBox="0 0 159 63" fill="none" xmlns="http://www.w3.org/2000/svg">
<path d="M73.1762 48.0908H76.1123C76.6769 48.0908 77.1286 47.9787 77.5803 47.7545C78.032 47.5303 78.2579 47.3061 78.4838 46.8577C78.7096 46.5214 78.8225 46.0731 78.8225 45.6247C78.8225 45.1763 78.7096 44.7279 78.4838 44.3916C78.2579 44.0553 78.032 43.719 77.5803 43.4948C77.1286 43.2706 76.6769 43.1585 76.1123 43.1585H72.8374L73.515 42.4859V54.8168H71.1436V41.3649H76.3382C77.3545 41.3649 78.145 41.5891 78.9355 41.9254C79.613 42.3738 80.1776 42.8222 80.5164 43.4948C80.8552 44.1674 81.0811 44.9521 81.0811 45.7368C81.0811 46.5214 80.8552 47.3061 80.5164 47.9787C80.1776 48.6513 79.613 49.2118 78.8225 49.6602C78.145 50.1086 77.2416 50.3328 76.3382 50.3328H73.0633V48.0908H73.1762ZM81.8715 55.1531H79.1613L75.5477 49.436H78.2579L81.8715 55.1531Z" fill="white"/>
<path d="M89.5506 48.5393C89.5506 48.203 89.4376 47.8667 89.3247 47.5304C89.2118 47.3062 88.873 47.082 88.6471 46.9699C88.3084 46.8578 87.9696 46.7457 87.6308 46.7457C87.0662 46.7457 86.6145 46.8578 86.2757 47.082C85.9369 47.3062 85.7111 47.5304 85.5981 47.8667H83.4526C83.5655 46.9699 84.0172 46.2973 84.8077 45.7368C85.5981 45.1763 86.5016 44.84 87.6308 44.84C88.4213 44.84 89.2118 44.9521 89.7764 45.2884C90.341 45.6247 90.9057 45.961 91.2445 46.5215C91.5832 47.082 91.8091 47.7546 91.8091 48.5393V55.1531H89.6635V53.2474L90.0023 53.5837C89.6635 54.1442 89.2118 54.5926 88.6471 54.9289C88.0825 55.2652 87.405 55.3773 86.6145 55.3773C85.9369 55.3773 85.3723 55.2652 84.8077 55.041C84.243 54.8168 83.9043 54.3684 83.5655 53.92C83.2267 53.4716 83.1138 52.9111 83.1138 52.2385C83.1138 51.2296 83.4525 50.4449 84.243 49.8844C84.9206 49.324 85.9369 49.0998 87.1791 49.0998H90.1152V50.7812H87.292C86.7274 50.7812 86.2757 50.8933 85.824 51.1175C85.4852 51.3417 85.2594 51.678 85.2594 52.1264C85.2594 52.5748 85.3723 52.9111 85.7111 53.1353C86.0499 53.3595 86.3886 53.4716 86.9533 53.4716C87.405 53.4716 87.8567 53.3595 88.1954 53.2474C88.5342 53.0232 88.873 52.799 89.0989 52.4627C89.3247 52.1264 89.4376 51.7901 89.4376 51.3417V48.5393H89.5506Z" fill="white"/>
<path d="M95.5357 40.8043C95.9874 40.8043 96.2132 40.9164 96.552 41.2527C96.7779 41.4769 97.0037 41.8132 97.0037 42.2616C97.0037 42.71 96.8908 42.9342 96.552 43.2705C96.3261 43.4947 95.9874 43.7189 95.5357 43.7189C95.084 43.7189 94.8581 43.6068 94.5193 43.2705C94.2935 43.0463 94.0676 42.71 94.0676 42.2616C94.0676 41.9253 94.1805 41.589 94.5193 41.2527C94.8581 40.9164 95.1969 40.8043 95.5357 40.8043ZM96.6649 55.1531H94.4064V45.1762H96.6649V55.1531Z" fill="white"/>
<path d="M104.344 45.1762V47.0819H98.3586V45.1762H104.344ZM100.053 55.153V44.1673C100.053 43.0463 100.391 42.2616 100.956 41.7011C101.521 41.1406 102.424 40.9164 103.553 40.9164H104.344V42.8221H103.779C103.327 42.8221 102.876 42.9342 102.65 43.1584C102.424 43.3826 102.311 43.7189 102.311 44.2794V45.9609V46.073V55.153H100.053Z" fill="white"/>
<path d="M111.458 45.1762V47.0819H105.473V45.1762H111.458ZM107.167 55.153V44.1673C107.167 43.0463 107.506 42.2616 108.07 41.7011C108.635 41.1406 109.538 40.9164 110.668 40.9164H111.458V42.8221H110.894C110.442 42.8221 109.99 42.9342 109.764 43.1584C109.538 43.3826 109.426 43.7189 109.426 44.2794V45.9609V46.073V55.153H107.167Z" fill="white"/>
<path d="M113.717 49.0997H119.928L119.702 49.436V49.2118C119.702 48.4271 119.476 47.8666 119.024 47.4182C118.573 46.9698 118.008 46.7456 117.33 46.7456C116.879 46.7456 116.427 46.8577 115.975 47.0819C115.637 47.3061 115.298 47.6424 115.072 47.9787C114.846 48.4271 114.733 48.8755 114.733 49.3239C114.733 49.5481 114.733 49.7723 114.733 50.1086C114.733 50.3328 114.733 50.557 114.733 50.7812C114.733 51.3417 114.846 51.7901 115.072 52.1264C115.298 52.5748 115.637 52.799 115.975 53.1353C116.427 53.3595 116.879 53.4716 117.33 53.4716C117.895 53.4716 118.347 53.3595 118.686 53.1353C119.024 52.9111 119.25 52.6869 119.363 52.3506H121.622C121.509 52.799 121.283 53.2474 120.944 53.6958C120.605 54.1442 120.154 54.4804 119.476 54.8167C118.911 55.153 118.121 55.2651 117.218 55.2651C116.201 55.2651 115.411 55.0409 114.62 54.5925C113.83 54.1441 113.265 53.5836 112.926 52.799C112.475 52.0143 112.249 51.1175 112.249 49.9965C112.249 48.9876 112.475 47.9787 112.813 47.194C113.265 46.4093 113.83 45.7367 114.507 45.4004C115.185 44.952 116.088 44.7278 116.992 44.7278C117.895 44.7278 118.686 44.952 119.363 45.2883C120.041 45.7367 120.605 46.2972 120.944 46.9698C121.283 47.7545 121.509 48.6513 121.509 49.5481V50.4449H113.378V49.0997H113.717Z" fill="white"/>
<path d="M125.235 40.8043C125.687 40.8043 125.913 40.9164 126.251 41.2527C126.477 41.4769 126.703 41.8132 126.703 42.2616C126.703 42.71 126.59 42.9342 126.251 43.2705C126.026 43.4947 125.687 43.7189 125.235 43.7189C124.783 43.7189 124.558 43.6068 124.219 43.2705C123.993 43.0463 123.767 42.71 123.767 42.2616C123.767 41.9253 123.88 41.589 124.219 41.2527C124.445 40.9164 124.783 40.8043 125.235 40.8043ZM126.364 55.1531H124.106V45.1762H126.364V55.1531Z" fill="white"/>
<path d="M130.769 52.2385C130.882 52.6869 131.107 53.0232 131.446 53.2474C131.785 53.4716 132.35 53.5837 132.914 53.5837C133.479 53.5837 133.931 53.4716 134.269 53.2474C134.608 53.0232 134.721 52.6869 134.721 52.3506C134.721 52.0143 134.608 51.7901 134.382 51.5659C134.156 51.3417 133.818 51.2296 133.366 51.2296L131.559 51.0054C130.656 50.8933 129.978 50.557 129.414 50.1086C128.849 49.6602 128.623 48.9876 128.623 48.2029C128.623 47.6424 128.849 47.0819 129.188 46.5214C129.526 46.073 129.978 45.6246 130.656 45.4004C131.22 45.1762 131.898 44.952 132.688 44.952C133.479 44.952 134.044 45.0641 134.721 45.2883C135.286 45.5125 135.737 45.8488 136.189 46.2972C136.528 46.7456 136.754 47.3061 136.867 47.8666H134.721C134.608 47.4182 134.382 47.194 134.044 46.9698C133.705 46.7456 133.253 46.6335 132.801 46.6335C132.237 46.6335 131.898 46.7456 131.559 46.9698C131.22 47.194 131.107 47.5303 131.107 47.8666C131.107 48.2029 131.22 48.4271 131.446 48.5392C131.672 48.7634 132.011 48.8755 132.35 48.8755L134.156 49.0997C135.06 49.2118 135.85 49.5481 136.302 49.9965C136.867 50.4449 137.093 51.1175 137.093 52.0143C137.093 52.6869 136.867 53.2474 136.528 53.8079C136.189 54.2563 135.737 54.7047 135.06 54.9289C134.495 55.1531 133.705 55.2652 133.027 55.2652C132.237 55.2652 131.559 55.1531 130.994 54.9289C130.317 54.7047 129.865 54.3684 129.414 53.92C128.962 53.4716 128.736 52.9111 128.623 52.1264H130.769V52.2385Z" fill="white"/>
<path d="M139.803 49.0997H146.014L145.788 49.436V49.2118C145.788 48.4271 145.562 47.8666 145.11 47.4182C144.659 46.9698 144.094 46.7456 143.416 46.7456C142.965 46.7456 142.513 46.8577 142.061 47.0819C141.723 47.3061 141.384 47.6424 141.158 47.9787C140.932 48.4271 140.819 48.8755 140.819 49.3239C140.819 49.5481 140.819 49.7723 140.819 50.1086C140.819 50.3328 140.819 50.557 140.819 50.7812C140.819 51.3417 140.932 51.7901 141.158 52.1264C141.384 52.5748 141.723 52.799 142.061 53.1353C142.513 53.3595 142.965 53.4716 143.416 53.4716C143.981 53.4716 144.433 53.3595 144.771 53.1353C145.11 52.9111 145.336 52.6869 145.449 52.3506H147.708C147.595 52.799 147.369 53.2474 147.03 53.6958C146.691 54.1442 146.24 54.4804 145.562 54.8167C144.997 55.153 144.207 55.2651 143.303 55.2651C142.287 55.2651 141.497 55.0409 140.706 54.5925C139.916 54.1441 139.351 53.5836 139.012 52.799C138.561 52.0143 138.335 51.1175 138.335 49.9965C138.335 48.9876 138.561 47.9787 138.899 47.194C139.351 46.4093 139.916 45.7367 140.593 45.4004C141.271 44.952 142.174 44.7278 143.078 44.7278C143.981 44.7278 144.772 44.952 145.449 45.2883C146.127 45.7367 146.691 46.2972 147.03 46.9698C147.369 47.7545 147.595 48.6513 147.595 49.5481V50.4449H139.464V49.0997H139.803Z" fill="white"/>
<path d="M152.225 45.1762V47.3061L151.999 46.9698C152.112 46.6335 152.225 46.4093 152.563 46.073C152.902 45.7367 153.241 45.5125 153.693 45.2883C154.144 45.0641 154.709 44.952 155.274 44.952C155.951 44.952 156.516 45.0641 157.08 45.4004C157.645 45.6246 158.097 46.073 158.436 46.7456C158.774 47.3061 158.887 48.0908 158.887 48.9876V55.3773H156.629V49.436C156.629 48.8755 156.516 48.5392 156.403 48.2029C156.177 47.8666 155.951 47.6424 155.725 47.4182C155.387 47.194 155.048 47.194 154.596 47.194C154.144 47.194 153.806 47.3061 153.467 47.4182C153.128 47.6424 152.789 47.8666 152.563 48.2029C152.338 48.5392 152.225 48.9876 152.225 49.5481V55.3773H149.966V45.4004H152.225V45.1762Z" fill="white"/>
<path d="M79.5001 32.2847H71.1436V6.9502H79.5001C83.3396 6.9502 86.3886 8.18329 88.76 10.5374C91.1315 12.8915 92.2607 15.9182 92.2607 19.5054C92.2607 23.0925 91.1315 26.1192 88.76 28.5854C86.3886 31.0516 83.3396 32.2847 79.5001 32.2847ZM75.6606 10.7616V28.4733H79.3872C81.8715 28.4733 83.9042 27.5765 85.3722 25.895C86.8403 24.2135 87.6308 22.0836 87.6308 19.5054C87.6308 17.0392 86.8403 14.9093 85.3722 13.2278C83.9042 11.5463 81.8715 10.6495 79.3872 10.6495H75.6606V10.7616Z" fill="white"/>
<path d="M108.296 32.621C104.344 32.621 101.182 31.3879 98.8105 28.9217C96.4391 26.4555 95.3098 23.3167 95.3098 19.5053C95.3098 15.806 96.4391 12.6673 98.8105 10.2011C101.182 7.73487 104.344 6.50177 108.183 6.50177C109.764 6.50177 111.232 6.72597 112.475 7.06227C113.717 7.39857 114.733 7.95907 115.411 8.40746C116.088 8.96796 116.653 9.41636 116.992 9.86476C117.33 10.3132 117.556 10.6495 117.669 10.9858V13.4519H114.281C114.281 13.3398 114.168 13.2277 114.056 13.0036C113.943 12.7794 113.717 12.5552 113.378 12.2189C113.039 11.8826 112.7 11.5463 112.362 11.3221C111.91 10.9858 111.345 10.7616 110.668 10.6495C109.99 10.4253 109.2 10.3132 108.409 10.3132C105.812 10.3132 103.666 11.21 102.198 12.8915C100.73 14.685 99.9398 16.8149 99.9398 19.5053C99.9398 22.1957 100.73 24.4377 102.198 26.2313C103.666 28.0249 105.812 28.9217 108.409 28.9217C110.329 28.9217 112.136 28.5854 113.491 27.8007V22.4199H107.167V18.8327H117.895V29.5943C117.782 29.8185 117.33 30.1548 116.653 30.6032C115.975 31.0516 114.959 31.5 113.378 31.9484C111.797 32.3968 110.103 32.621 108.296 32.621Z" fill="white"/>
<path d="M132.349 32.2847H127.832V10.7616H120.041V6.9502H140.141V10.7616H132.349V32.2847Z" fill="white"/>
<path d="M158.887 32.2847H143.755V6.9502H148.272V28.4733H158.887V32.2847Z" fill="white"/>
<path d="M15.8097 0H47.5419C56.3501 0 63.3516 7.06228 63.3516 15.694V47.194C63.3516 55.9377 56.2372 62.8879 47.5419 62.8879H15.8097C7.00142 62.8879 0 55.8256 0 47.194V15.694C0 7.06228 7.11435 0 15.8097 0Z" fill="#FAE205"/>
<path d="M18.5198 50.4448L31.7322 37.2171L44.9445 50.4448L50.1391 45.1761L36.9268 32.0605L39.637 29.258V23.7651L41.5568 21.8594V26.5676L43.2506 28.2491L49.9133 21.5231L51.6072 23.2046C51.6072 21.9715 51.3813 18.3843 48.3323 15.3576C45.0575 12.2188 41.4438 13.564 40.2016 14.7971L33.539 21.5231L35.2329 23.2046L31.7322 26.6797L28.2315 23.3167L29.9254 21.6352L23.2627 14.9092C22.0205 13.6761 18.5198 12.2188 15.132 15.4697C12.083 18.4964 11.8572 22.0836 11.8572 23.3167L13.5511 21.6352L20.2137 28.3612L21.9076 26.6797V21.9715L23.8273 23.8772V29.3701L26.5376 32.1726L13.3252 45.2882L18.5198 50.4448Z" fill="#2A2D33"/>
</svg>
